<!DOCTYPE svg PUBLIC "-//W3C//DTD SVG 20010904//EN" "http://www.w3.org/TR/2001/REC-SVG-20010904/DTD/svg10.dtd">
<svg version="1.0" xmlns="http://www.w3.org/2000/svg" width="1200px" height="1200px" viewBox="0 0 12000 12000" preserveAspectRatio="xMidYMid meet">
<g id="layer101" fill="#010101" stroke="none">
 <path d="M5027 9153 c-4 -4 -15 -8 -25 -10 -9 -1 -27 -4 -40 -6 -13 -2 -27 -8 -30 -13 -4 -5 -18 -11 -32 -12 -14 -2 -26 -8 -28 -13 -2 -5 -10 -9 -18 -9 -8 0 -14 -5 -14 -11 0 -5 -5 -7 -10 -4 -6 3 -13 0 -16 -8 -5 -15 -34 -19 -34 -5 0 5 -4 6 -10 3 -5 -3 -10 -1 -10 6 0 6 -8 9 -20 6 -11 -3 -20 -1 -20 4 0 9 -23 7 -50 -4 -8 -4 -28 -9 -43 -11 -16 -3 -35 -10 -43 -17 -8 -6 -14 -9 -14 -5 0 3 -24 -9 -52 -26 -29 -17 -59 -31 -65 -31 -7 0 -13 -4 -13 -9 0 -4 -3 -7 -7 -6 -12 2 -63 -24 -63 -33 0 -6 -40 -21 -63 -23 -4 -1 -12 -8 -17 -16 -5 -8 -10 -11 -10 -6 0 4 -11 1 -25 -8 -14 -9 -25 -13 -25 -10 0 4 -9 -1 -20 -11 -11 -10 -20 -15 -20 -11 0 3 -17 -4 -37 -17 -42 -27 -39 -25 -70 -33 -13 -4 -23 -10 -23 -15 0 -5 -7 -9 -15 -9 -8 0 -15 -5 -15 -12 0 -6 -3 -8 -7 -5 -3 4 -12 2 -19 -3 -6 -6 -21 -12 -32 -15 -11 -2 -38 -15 -61 -29 -22 -14 -46 -27 -53 -28 -7 -2 -15 -5 -18 -8 -3 -3 -14 -10 -25 -16 -11 -6 -25 -21 -31 -32 -6 -12 -14 -19 -17 -15 -15 14 -12 -95 4 -144 11 -34 73 -106 83 -96 3 4 6 1 6 -6 0 -7 5 -9 10 -6 6 3 10 1 10 -6 0 -7 3 -10 6 -7 3 4 19 -8 35 -24 16 -17 29 -27 29 -23 0 4 11 -4 24 -18 13 -14 27 -23 30 -20 3 4 6 1 6 -5 0 -6 9 -14 21 -17 12 -4 30 -14 41 -24 11 -9 29 -24 40 -33 12 -10 24 -18 29 -18 4 0 22 -15 41 -32 18 -18 36 -33 40 -33 10 0 56 -34 83 -60 12 -11 34 -27 51 -35 16 -8 39 -25 51 -38 12 -13 24 -23 27 -23 19 3 25 -1 31 -19 4 -11 10 -18 15 -15 5 3 13 -3 19 -12 6 -10 11 -14 11 -10 0 4 11 -3 23 -17 13 -14 27 -23 30 -19 4 3 7 1 7 -6 0 -7 4 -10 9 -6 5 3 16 -3 23 -13 7 -10 24 -25 37 -32 14 -7 35 -23 48 -36 14 -14 28 -22 33 -19 5 3 11 -4 15 -15 3 -11 10 -20 15 -20 5 0 25 -14 45 -31 19 -17 35 -28 35 -25 0 4 11 -5 25 -20 14 -15 25 -23 25 -19 0 4 9 -2 20 -15 11 -13 20 -19 20 -15 0 4 11 -4 25 -19 14 -15 25 -24 25 -21 0 3 14 -8 30 -25 17 -17 30 -28 30 -24 0 4 11 -5 25 -20 14 -15 25 -24 25 -20 0 4 10 -5 23 -19 12 -15 28 -27 34 -27 6 0 29 -17 52 -39 22 -21 41 -36 41 -33 0 3 11 -7 24 -21 13 -14 27 -23 30 -20 3 4 6 0 6 -7 0 -7 3 -11 6 -7 4 3 22 -9 40 -29 19 -19 34 -31 34 -27 0 3 14 -9 30 -27 17 -18 30 -30 30 -25 0 4 11 -4 24 -18 13 -14 27 -23 30 -20 3 3 8 -2 12 -11 3 -9 12 -16 19 -16 8 0 17 -9 20 -20 4 -11 11 -18 16 -15 5 4 9 1 9 -6 0 -7 3 -10 6 -6 3 3 17 -6 30 -20 13 -14 24 -23 24 -20 0 3 16 -9 34 -26 19 -18 51 -45 71 -62 21 -16 55 -47 77 -67 23 -21 44 -35 49 -33 4 3 10 -4 14 -15 3 -11 10 -20 15 -20 5 0 22 -14 39 -31 17 -17 31 -27 31 -24 0 4 17 -10 38 -31 22 -22 52 -48 67 -59 39 -28 75 -64 75 -76 0 -6 4 -8 9 -4 5 3 17 -3 27 -12 10 -10 20 -18 23 -18 9 1 37 -23 104 -87 l61 -57 -1 -73 c-1 -40 -2 -75 -3 -78 -4 -14 -10 -50 -14 -100 -10 -102 -18 -153 -27 -177 -5 -14 -7 -28 -5 -32 3 -4 1 -39 -5 -77 -14 -95 -19 -142 -23 -190 -2 -22 -6 -67 -10 -100 -5 -56 -15 -229 -21 -374 -1 -36 -6 -77 -10 -92 -4 -16 -3 -28 2 -28 9 0 9 -30 -1 -142 -2 -25 -1 -76 3 -112 4 -37 3 -66 -2 -66 -5 0 -6 -13 -2 -28 3 -16 6 -80 6 -143 1 -63 6 -120 11 -126 7 -9 7 -13 0 -13 -6 0 -9 -18 -7 -42 2 -24 4 -43 5 -43 1 0 3 -40 6 -90 4 -108 12 -219 18 -260 2 -16 7 -64 11 -105 8 -86 12 -113 15 -120 1 -3 2 -24 2 -48 0 -23 3 -42 6 -42 4 0 7 -17 8 -37 1 -35 9 -113 19 -173 2 -14 9 -61 15 -105 7 -44 14 -89 15 -100 9 -59 26 -128 37 -148 7 -12 11 -25 10 -29 -1 -4 3 -20 10 -35 6 -15 10 -34 9 -41 -1 -6 2 -12 7 -12 4 0 14 -16 22 -35 7 -19 17 -32 21 -29 4 2 11 -5 14 -16 4 -12 18 -25 31 -30 13 -5 24 -14 24 -20 0 -6 4 -8 10 -5 5 3 20 -1 33 -10 13 -8 27 -12 30 -8 4 3 7 2 7 -3 0 -11 16 -13 140 -17 47 -2 90 -1 95 2 11 6 10 6 75 16 52 8 75 13 75 15 0 1 13 4 30 6 16 3 32 9 35 14 5 8 37 18 74 24 10 1 21 7 24 12 4 5 16 10 27 12 19 3 34 8 100 37 17 8 47 19 68 26 20 7 37 17 37 22 0 4 5 5 10 2 6 -3 12 0 15 7 3 8 15 15 28 15 12 1 23 7 25 13 2 5 12 10 23 10 10 0 19 5 19 11 0 5 4 8 8 5 5 -3 19 4 30 15 12 11 22 17 22 13 0 -3 7 -1 15 6 8 7 15 9 15 4 0 -5 4 -4 8 2 4 7 50 37 102 69 52 32 98 62 102 69 4 6 8 7 8 1 0 -5 6 -3 13 6 7 9 32 28 57 44 25 15 54 37 66 49 11 12 27 22 35 24 20 5 179 170 179 187 0 7 7 21 16 29 8 9 12 20 9 26 -3 5 -2 10 4 10 5 0 12 19 16 43 4 23 9 56 12 72 13 66 6 299 -13 410 -2 17 -7 53 -9 80 -2 28 -7 66 -9 85 -3 19 -7 69 -10 110 -3 41 -8 118 -12 170 -3 52 -7 118 -8 145 -1 28 -5 56 -9 63 -5 7 -3 12 3 12 7 0 9 8 4 23 -9 27 -13 113 -18 432 -3 138 -5 250 -6 250 -7 0 -2 146 5 148 6 2 5 10 -2 19 -7 8 -10 17 -8 20 3 3 8 101 10 217 2 116 7 220 10 230 3 11 1 22 -5 26 -6 3 -7 11 -4 17 6 10 11 58 18 213 3 50 8 98 11 108 5 11 2 17 -6 17 -10 0 -10 3 -3 8 6 4 11 14 12 22 1 8 4 42 7 75 2 33 7 105 10 160 2 55 7 116 10 135 18 117 20 166 14 310 -2 51 -19 111 -29 105 -5 -3 -7 4 -5 17 3 12 -2 29 -9 37 -7 9 -28 41 -45 71 -17 30 -31 52 -31 47 0 -4 -23 15 -50 43 -27 28 -50 47 -50 43 0 -5 -4 -3 -8 3 -4 5 -24 20 -44 33 -21 12 -38 27 -38 32 0 6 -4 7 -10 4 -5 -3 -10 -1 -10 5 0 6 -4 8 -10 5 -5 -3 -10 -2 -10 4 0 5 -10 13 -22 17 -12 3 -28 13 -36 20 -7 8 -18 12 -23 9 -5 -4 -9 -1 -9 4 0 6 -7 11 -15 11 -8 0 -15 5 -15 11 0 5 -4 7 -10 4 -5 -3 -10 -1 -10 5 0 6 -4 8 -10 5 -5 -3 -10 -1 -10 4 0 6 -7 11 -15 11 -8 0 -15 5 -15 10 0 6 -3 9 -7 8 -7 -2 -75 29 -113 52 -8 5 -52 30 -97 55 -46 26 -83 51 -83 56 0 6 -4 8 -10 4 -5 -3 -39 12 -76 35 -36 22 -70 40 -75 40 -5 0 -12 7 -15 15 -4 8 -9 13 -14 10 -4 -2 -28 9 -54 25 -26 17 -51 30 -57 30 -5 0 -12 7 -15 15 -4 8 -10 13 -14 10 -4 -3 -13 2 -20 10 -7 8 -19 15 -27 15 -14 0 -75 39 -81 53 -2 4 -8 5 -13 1 -5 -3 -9 0 -9 6 0 6 -4 9 -9 6 -5 -4 -11 -1 -13 4 -2 6 -10 12 -18 13 -22 4 -80 40 -80 50 0 4 -4 5 -10 2 -5 -3 -10 -1 -10 5 0 6 -4 8 -10 5 -5 -3 -10 -2 -10 3 0 5 -27 22 -60 38 -33 15 -60 32 -60 37 0 4 -4 5 -10 2 -5 -3 -10 -1 -10 5 0 6 -4 8 -10 5 -5 -3 -10 -2 -10 3 0 4 -19 19 -42 32 -24 13 -45 27 -48 31 -3 4 -14 9 -25 11 -11 1 -22 6 -25 9 -3 3 -27 19 -55 35 -27 15 -56 34 -63 41 -7 7 -24 16 -38 19 -13 3 -24 9 -24 13 0 4 -16 13 -35 20 -19 7 -35 16 -35 20 0 5 -13 14 -30 21 -16 7 -30 17 -30 22 0 5 -4 6 -10 3 -5 -3 -10 -2 -10 4 0 5 -14 12 -30 16 -17 4 -36 12 -43 18 -28 27 -94 67 -110 67 -10 0 -20 7 -23 15 -4 8 -10 12 -15 9 -5 -3 -19 4 -31 15 -12 12 -28 21 -35 21 -7 0 -13 5 -13 10 0 6 -7 10 -15 10 -18 0 -56 20 -70 38 -5 7 -21 14 -34 17 -14 2 -27 8 -30 13 -5 8 -158 85 -171 87 -3 0 -15 6 -27 13 -13 7 -23 10 -23 7 0 -3 -9 -1 -21 5 -11 7 -33 14 -47 16 -15 3 -30 10 -33 16 -4 6 -14 8 -23 5 -9 -4 -16 -2 -16 3 0 5 -9 7 -20 5 -11 -2 -20 -1 -20 3 0 4 -10 8 -22 8 -146 10 -185 10 -196 1 -10 -8 -16 -7 -21 1 -4 7 -11 9 -14 5z"/>
 </g>
<g id="layer102" fill="#5b645f" stroke="none">
 <path d="M5026 9153 c-3 -4 -14 -8 -24 -10 -9 -1 -27 -4 -40 -6 -13 -2 -27 -8 -30 -13 -4 -5 -18 -11 -32 -12 -14 -2 -26 -8 -28 -13 -2 -5 -10 -9 -18 -9 -8 0 -14 -5 -14 -11 0 -5 -5 -7 -10 -4 -6 3 -13 0 -16 -8 -5 -15 -34 -19 -34 -5 0 5 -4 6 -10 3 -5 -3 -10 -1 -10 6 0 6 -8 9 -20 6 -11 -3 -20 -1 -20 4 0 9 -23 7 -50 -4 -8 -4 -24 -8 -35 -10 -11 -2 -30 -9 -42 -15 -13 -7 -23 -10 -23 -8 0 3 -24 -9 -52 -26 -29 -17 -59 -31 -65 -31 -7 0 -13 -4 -13 -9 0 -4 -3 -7 -7 -6 -13 3 -63 -24 -63 -34 0 -17 28 -6 155 57 137 69 191 80 231 50 27 -20 37 -19 91 13 55 33 136 62 170 62 16 0 23 6 23 20 0 21 -3 24 -14 13z"/>
 <path d="M5060 9145 c-8 -9 14 -13 97 -18 201 -11 336 -64 743 -295 168 -95 312 -177 320 -182 8 -5 60 -36 115 -68 55 -32 177 -104 270 -159 94 -55 278 -162 410 -237 132 -76 305 -176 385 -222 80 -47 164 -94 188 -104 23 -11 113 -60 200 -109 298 -171 392 -272 424 -458 13 -76 12 -84 -26 -553 -35 -417 -41 -588 -41 -1140 0 -651 22 -1115 71 -1470 20 -142 15 -379 -10 -456 -36 -115 -148 -223 -426 -413 -57 -39 -110 -71 -116 -71 -7 0 -14 -3 -16 -7 -1 -5 -16 -15 -33 -24 -16 -8 -57 -29 -90 -47 -119 -62 -285 -133 -435 -185 -78 -27 -240 -58 -314 -59 -184 -3 -289 65 -336 219 -6 21 -18 54 -25 73 -32 78 -111 707 -137 1080 -17 247 -17 955 0 1190 13 185 20 247 73 665 20 159 30 272 25 290 -8 34 -111 139 -201 205 -33 24 -107 85 -165 135 -353 305 -1127 926 -1450 1163 -25 18 -107 79 -182 135 -188 139 -218 161 -333 244 -256 184 -265 193 -265 275 0 76 19 90 315 238 146 73 265 137 265 142 0 6 -8 7 -17 3 -10 -4 -24 -8 -31 -9 -8 -1 -18 -9 -23 -17 -5 -8 -9 -10 -9 -5 0 4 -11 1 -25 -8 -14 -9 -25 -13 -25 -10 0 4 -9 -1 -20 -11 -11 -10 -20 -15 -20 -11 0 3 -19 -6 -42 -21 -24 -14 -45 -26 -48 -26 -16 0 -40 -11 -40 -18 0 -5 -7 -9 -15 -9 -8 0 -15 -5 -15 -12 0 -6 -3 -8 -7 -5 -3 4 -12 2 -19 -3 -6 -6 -21 -12 -32 -15 -11 -2 -38 -15 -61 -29 -22 -14 -46 -27 -53 -28 -7 -2 -15 -5 -18 -8 -3 -3 -14 -10 -25 -16 -11 -6 -25 -21 -31 -32 -6 -12 -14 -19 -17 -15 -15 14 -12 -95 4 -144 11 -34 73 -106 83 -96 3 4 6 1 6 -6 0 -7 5 -9 10 -6 6 3 10 1 10 -6 0 -7 3 -10 6 -7 3 4 19 -8 35 -24 16 -17 29 -27 29 -23 0 4 11 -4 24 -18 13 -14 27 -23 30 -20 3 4 6 1 6 -5 0 -6 9 -14 21 -17 12 -4 30 -14 41 -24 11 -9 29 -24 40 -33 12 -10 24 -18 29 -18 4 0 25 -17 46 -37 21 -21 39 -35 40 -33 3 6 49 -27 78 -55 12 -11 34 -27 51 -35 16 -8 39 -25 51 -38 12 -13 24 -23 27 -23 19 3 25 -1 31 -19 4 -11 10 -18 15 -15 5 3 13 -3 19 -12 6 -10 11 -14 11 -10 0 4 11 -3 23 -17 13 -14 27 -23 30 -19 4 3 7 1 7 -6 0 -7 4 -10 9 -6 5 3 16 -3 23 -13 7 -10 24 -25 37 -32 14 -7 35 -23 48 -36 14 -14 28 -22 33 -19 5 3 11 -4 15 -15 3 -11 10 -20 15 -20 5 0 25 -14 45 -31 19 -17 35 -28 35 -25 0 4 11 -5 25 -20 14 -15 25 -23 25 -19 0 4 9 -2 20 -15 11 -13 20 -19 20 -15 0 4 11 -4 25 -19 14 -15 25 -24 25 -21 0 3 14 -8 30 -25 17 -17 30 -28 30 -24 0 4 11 -5 25 -20 14 -15 25 -24 25 -20 0 4 10 -5 23 -19 12 -15 28 -27 34 -27 6 0 29 -17 52 -39 22 -21 41 -36 41 -33 0 3 11 -7 24 -21 13 -14 27 -23 30 -20 3 4 6 0 6 -7 0 -7 3 -11 6 -7 4 3 22 -9 40 -29 19 -19 34 -31 34 -27 0 3 14 -9 30 -27 17 -18 30 -30 30 -25 0 4 11 -4 24 -18 13 -14 27 -23 30 -20 3 3 8 -2 12 -11 3 -9 12 -16 19 -16 8 0 17 -9 20 -20 4 -11 11 -18 16 -15 5 4 9 1 9 -6 0 -7 3 -10 6 -6 3 3 17 -6 30 -20 13 -14 24 -23 24 -20 0 3 16 -9 34 -26 19 -18 51 -45 71 -62 21 -16 55 -47 77 -67 23 -21 44 -35 49 -33 4 3 10 -4 14 -15 3 -11 10 -20 15 -20 5 0 22 -14 39 -31 17 -17 31 -27 31 -24 0 4 17 -10 38 -31 22 -22 52 -48 67 -59 39 -28 75 -64 75 -76 0 -6 4 -8 9 -4 5 3 15 -1 23 -8 7 -7 15 -13 18 -13 8 0 47 -33 113 -96 l61 -57 -1 -73 c-1 -40 -2 -75 -3 -78 -4 -14 -10 -50 -14 -100 -10 -102 -18 -153 -27 -177 -5 -14 -7 -28 -5 -32 3 -4 1 -39 -5 -77 -14 -95 -19 -142 -23 -190 -2 -22 -6 -67 -10 -100 -5 -56 -15 -229 -21 -374 -1 -36 -6 -77 -10 -92 -4 -16 -3 -28 2 -28 9 0 9 -30 -1 -142 -2 -25 -1 -76 3 -112 4 -37 3 -66 -2 -66 -5 0 -6 -13 -2 -28 3 -16 6 -80 6 -143 1 -63 6 -120 11 -126 7 -9 7 -13 0 -13 -6 0 -9 -18 -7 -42 2 -24 4 -43 5 -43 1 0 3 -40 6 -90 4 -108 12 -219 18 -260 2 -16 7 -64 11 -105 8 -86 12 -113 15 -120 1 -3 2 -24 2 -47 0 -24 3 -43 6 -43 4 0 7 -17 8 -37 1 -35 9 -113 19 -173 2 -14 9 -61 15 -105 7 -44 14 -89 15 -100 9 -59 26 -128 37 -148 7 -12 11 -25 10 -29 -1 -4 3 -20 10 -35 6 -15 10 -34 9 -40 -1 -7 2 -13 7 -13 4 0 14 -16 22 -35 7 -19 17 -32 21 -29 4 2 11 -5 14 -16 4 -12 18 -25 31 -30 13 -5 24 -14 24 -20 0 -6 4 -8 10 -5 5 3 20 -1 33 -10 13 -8 27 -12 30 -8 4 3 7 2 7 -3 0 -11 16 -13 140 -17 47 -2 90 -1 95 2 11 6 10 6 75 16 52 8 75 13 75 15 0 1 13 4 30 6 16 3 32 9 35 14 5 8 37 18 74 24 10 1 21 7 24 12 4 5 16 10 27 12 19 3 34 8 100 37 17 8 47 19 68 26 20 7 37 17 37 22 0 4 5 5 10 2 6 -3 12 0 15 7 3 8 15 15 28 15 12 1 23 7 25 13 2 5 12 10 23 10 10 0 19 5 19 11 0 5 4 8 8 5 5 -3 19 4 30 15 12 11 22 17 22 13 0 -3 7 -1 15 6 8 7 15 9 15 4 0 -5 4 -4 8 2 4 7 50 37 102 69 52 32 98 62 102 69 4 6 8 7 8 1 0 -5 6 -3 13 6 7 9 32 28 57 44 25 15 54 37 66 49 11 12 27 22 35 24 20 5 179 170 179 187 0 7 7 21 16 29 8 9 12 20 9 26 -3 5 -2 10 4 10 5 0 12 19 16 43 4 23 9 56 12 72 13 66 6 299 -13 410 -2 17 -7 53 -9 80 -2 28 -7 66 -9 85 -3 19 -7 69 -10 110 -3 41 -8 118 -12 170 -3 52 -7 118 -8 145 -1 28 -5 56 -9 63 -5 7 -3 12 3 12 7 0 9 8 4 23 -9 27 -13 113 -18 432 -3 138 -5 250 -6 250 -7 0 -2 146 5 148 6 2 5 10 -2 19 -7 8 -10 17 -8 20 3 3 8 101 10 217 2 116 7 220 10 230 3 11 1 22 -5 26 -6 3 -7 11 -4 17 6 10 11 58 18 213 3 50 8 98 11 108 5 11 2 17 -6 17 -10 0 -10 3 -3 8 6 4 11 14 12 22 1 8 4 42 7 75 2 33 7 105 10 160 2 55 7 116 10 135 15 98 18 131 17 200 0 112 -8 185 -23 211 -7 13 -12 28 -11 33 2 5 -4 16 -11 25 -8 9 -29 41 -46 71 -17 30 -31 52 -31 47 0 -4 -22 15 -50 43 -27 28 -50 47 -50 43 0 -5 -4 -3 -8 3 -4 5 -24 20 -44 33 -21 12 -38 27 -38 32 0 6 -4 7 -10 4 -5 -3 -10 -1 -10 5 0 6 -4 8 -10 5 -5 -3 -10 -2 -10 4 0 5 -10 13 -22 17 -12 3 -28 13 -36 20 -7 8 -18 12 -23 9 -5 -4 -9 -1 -9 4 0 6 -7 11 -15 11 -8 0 -15 5 -15 11 0 5 -4 7 -10 4 -5 -3 -10 -1 -10 5 0 6 -4 8 -10 5 -5 -3 -10 -1 -10 4 0 6 -7 11 -15 11 -8 0 -15 5 -15 10 0 6 -3 9 -7 8 -7 -2 -75 29 -113 52 -8 5 -52 30 -97 55 -46 26 -83 51 -83 56 0 6 -4 8 -10 4 -5 -3 -39 12 -76 35 -36 22 -70 40 -75 40 -5 0 -12 7 -15 15 -4 8 -9 13 -14 10 -4 -2 -28 9 -54 25 -26 17 -51 30 -57 30 -5 0 -12 7 -15 15 -4 8 -10 13 -14 10 -4 -3 -13 2 -20 10 -7 8 -19 15 -27 15 -14 0 -75 39 -81 53 -2 4 -8 5 -13 1 -5 -3 -9 0 -9 6 0 6 -4 9 -9 6 -5 -4 -11 -1 -13 4 -2 6 -10 12 -18 13 -22 4 -80 40 -80 50 0 4 -4 5 -10 2 -5 -3 -10 -1 -10 5 0 6 -4 8 -10 5 -5 -3 -10 -2 -10 3 0 5 -27 22 -60 38 -33 15 -60 32 -60 37 0 4 -4 5 -10 2 -5 -3 -10 -1 -10 5 0 6 -4 8 -10 5 -5 -3 -10 -2 -10 3 0 4 -19 19 -42 32 -24 13 -45 27 -48 31 -3 4 -14 9 -25 11 -11 1 -22 6 -25 9 -3 3 -27 19 -55 35 -27 15 -56 34 -63 41 -7 7 -24 16 -38 19 -13 3 -24 9 -24 13 0 4 -16 13 -35 20 -19 7 -35 16 -35 20 0 5 -13 14 -30 21 -16 7 -30 17 -30 22 0 5 -4 6 -10 3 -5 -3 -10 -2 -10 4 0 5 -14 12 -30 16 -17 4 -36 12 -43 18 -28 27 -94 67 -110 67 -10 0 -20 7 -23 15 -4 8 -10 12 -15 9 -5 -3 -19 4 -31 15 -12 12 -28 21 -35 21 -7 0 -13 5 -13 10 0 6 -7 10 -15 10 -18 0 -56 20 -70 38 -5 7 -21 14 -34 17 -14 2 -27 8 -30 13 -5 8 -158 85 -171 87 -3 0 -15 6 -27 13 -13 7 -23 10 -23 7 0 -3 -9 -1 -21 5 -11 7 -33 14 -47 16 -15 3 -30 10 -33 16 -4 6 -14 8 -23 5 -9 -4 -16 -2 -16 3 0 5 -9 7 -20 5 -11 -2 -20 -1 -20 3 0 4 -10 8 -22 8 -167 11 -188 10 -198 -1z"/>
 <path d="M5073 8854 c-34 -8 -28 -19 23 -51 25 -15 59 -39 76 -53 17 -14 46 -34 63 -45 18 -11 72 -47 120 -80 201 -138 240 -165 384 -262 83 -57 155 -103 159 -103 4 -1 23 -14 42 -30 19 -17 40 -30 46 -30 7 0 14 -4 16 -9 3 -9 50 -40 218 -142 47 -28 94 -59 105 -68 11 -10 37 -26 58 -37 21 -10 45 -27 54 -36 9 -10 20 -18 26 -18 5 0 32 -16 58 -35 27 -19 54 -35 59 -35 6 0 10 -4 10 -8 0 -4 19 -18 43 -30 46 -24 79 -44 87 -53 3 -3 32 -20 65 -38 33 -19 62 -37 65 -40 3 -4 34 -24 70 -45 36 -20 85 -50 110 -66 25 -16 54 -34 65 -40 11 -6 35 -19 53 -30 65 -40 98 -60 132 -80 19 -11 49 -29 65 -40 17 -11 48 -29 70 -40 83 -41 199 -144 231 -206 46 -88 55 -235 30 -469 -8 -77 -17 -176 -20 -220 -3 -44 -10 -145 -16 -225 -5 -80 -12 -183 -15 -230 -3 -47 -8 -114 -10 -150 -4 -65 -11 -217 -21 -450 -3 -69 -7 -370 -10 -670 -6 -780 -10 -888 -33 -1000 -21 -104 -43 -175 -72 -232 -32 -62 -26 -62 73 -7 203 115 352 240 390 328 18 41 20 60 14 176 -3 72 -12 157 -20 190 -17 69 -51 494 -66 825 -29 616 -5 1505 56 2037 33 289 5 337 -311 520 -152 88 -294 168 -382 215 -51 27 -118 64 -150 83 -32 19 -77 43 -99 54 -23 11 -61 32 -85 48 -24 15 -56 33 -70 39 -14 6 -45 24 -70 40 -45 29 -70 44 -124 73 -16 10 -49 29 -73 44 -24 16 -55 33 -70 39 -15 7 -34 17 -42 24 -8 6 -37 24 -65 38 -27 15 -57 31 -65 36 -8 5 -96 55 -195 111 -99 55 -187 106 -195 113 -8 7 -26 17 -40 24 -14 6 -42 22 -62 34 -21 13 -81 50 -135 82 -54 33 -100 63 -103 67 -8 12 -191 101 -272 133 -67 26 -192 41 -245 30z"/>
 <path d="M4428 8640 c-166 -84 -236 -124 -232 -133 3 -8 48 -45 100 -83 52 -38 125 -92 162 -119 37 -28 77 -57 88 -65 23 -16 222 -164 239 -177 6 -5 48 -38 95 -73 47 -36 87 -67 90 -70 3 -3 41 -32 85 -65 44 -33 89 -67 100 -77 11 -9 92 -73 180 -143 248 -197 209 -165 411 -332 72 -59 147 -121 168 -138 21 -16 43 -34 50 -40 6 -5 54 -46 106 -90 52 -44 97 -82 100 -85 17 -18 160 -138 240 -202 131 -105 177 -157 213 -241 27 -64 30 -84 31 -177 1 -95 -8 -212 -19 -250 -30 -105 -66 -424 -80 -715 -4 -71 -8 -152 -11 -180 -4 -57 -4 -674 1 -720 1 -16 6 -93 10 -169 4 -77 8 -147 10 -155 1 -9 6 -56 10 -106 3 -49 8 -106 10 -125 16 -152 26 -234 30 -262 3 -18 14 -93 25 -167 11 -74 20 -135 20 -137 0 -2 21 -12 46 -24 44 -19 49 -19 78 -4 18 9 65 17 112 20 104 4 172 33 237 100 80 83 138 229 163 414 4 30 8 348 9 705 1 358 5 686 8 730 4 44 9 150 12 235 8 206 14 344 20 405 3 28 7 97 10 155 6 114 11 177 19 255 3 28 8 100 12 160 3 61 11 156 19 212 14 116 10 215 -12 258 -21 39 -74 89 -124 117 -23 13 -49 28 -58 33 -9 6 -55 32 -101 59 -102 59 -341 204 -425 258 -33 21 -73 45 -90 54 -55 30 -290 177 -317 198 -15 12 -48 34 -75 50 -46 29 -150 94 -223 141 -19 12 -115 76 -213 141 -98 66 -188 125 -200 133 -12 8 -53 35 -90 60 -38 25 -93 62 -123 81 -59 39 -256 176 -454 316 -168 119 -219 154 -228 153 -4 0 -114 -54 -244 -119z"/>
 </g>
<g id="layer103" fill="#9f6c37" stroke="none">
 <path d="M5026 9153 c-3 -4 -14 -8 -24 -10 -9 -1 -28 -4 -42 -6 -14 -2 -27 -12 -28 -22 -3 -11 1 -15 10 -12 7 3 32 11 56 18 23 6 42 17 42 25 0 16 -3 17 -14 7z"/>
 <path d="M5058 9143 c-8 -10 -3 -13 21 -13 20 0 31 5 31 14 0 18 -37 17 -52 -1z"/>
 <path d="M5125 9152 c-14 -14 1 -20 68 -25 39 -4 86 -9 102 -12 74 -14 220 -71 330 -129 157 -82 721 -402 762 -432 17 -13 34 -24 37 -24 2 0 123 -69 268 -153 145 -84 355 -206 468 -271 113 -64 212 -121 220 -127 29 -17 309 -172 426 -234 175 -93 320 -218 364 -312 14 -29 28 -53 33 -53 4 0 6 -4 3 -8 -3 -4 0 -28 5 -53 10 -43 13 -225 4 -284 -10 -68 -45 -520 -51 -650 -3 -77 -7 -146 -10 -152 -2 -7 1 -13 6 -13 6 0 11 6 11 13 3 28 7 98 12 192 3 55 9 108 12 118 5 11 2 17 -6 17 -10 0 -10 3 -3 8 6 4 11 14 12 22 1 8 4 42 7 75 2 33 7 105 10 160 2 55 7 116 10 135 15 98 18 131 17 200 0 112 -8 185 -23 211 -7 13 -12 28 -11 33 2 5 -4 16 -11 25 -8 9 -29 41 -46 71 -17 30 -31 52 -31 47 0 -4 -22 15 -50 43 -27 28 -50 47 -50 43 0 -5 -4 -3 -8 3 -4 5 -24 20 -44 33 -21 12 -38 27 -38 32 0 6 -4 7 -10 4 -5 -3 -10 -1 -10 5 0 6 -4 8 -10 5 -5 -3 -10 -2 -10 4 0 5 -10 13 -22 17 -12 3 -28 13 -36 20 -7 8 -18 12 -23 9 -5 -4 -9 -1 -9 4 0 6 -7 11 -15 11 -8 0 -15 5 -15 11 0 5 -4 7 -10 4 -5 -3 -10 -1 -10 5 0 6 -4 8 -10 5 -5 -3 -10 -1 -10 4 0 6 -7 11 -15 11 -8 0 -15 5 -15 10 0 6 -3 9 -7 8 -7 -2 -75 29 -113 52 -8 5 -52 30 -97 55 -46 26 -83 51 -83 56 0 6 -4 8 -10 4 -5 -3 -39 12 -76 35 -36 22 -70 40 -75 40 -5 0 -12 7 -15 15 -4 8 -9 13 -14 10 -4 -2 -28 9 -54 25 -26 17 -51 30 -57 30 -5 0 -12 7 -15 15 -4 8 -10 13 -14 10 -4 -3 -13 2 -20 10 -7 8 -19 15 -27 15 -14 0 -75 39 -81 53 -2 4 -8 5 -13 1 -5 -3 -9 0 -9 6 0 6 -4 9 -9 6 -5 -4 -11 -1 -13 4 -2 6 -10 12 -18 13 -22 4 -80 40 -80 50 0 4 -4 5 -10 2 -5 -3 -10 -1 -10 5 0 6 -4 8 -10 5 -5 -3 -10 -2 -10 3 0 5 -27 22 -60 38 -33 15 -60 32 -60 37 0 4 -4 5 -10 2 -5 -3 -10 -1 -10 5 0 6 -4 8 -10 5 -5 -3 -10 -2 -10 3 0 4 -19 19 -42 32 -24 13 -45 27 -48 31 -3 4 -14 9 -25 11 -11 1 -22 6 -25 9 -3 3 -27 19 -55 35 -27 15 -56 34 -63 41 -7 7 -24 16 -38 19 -13 3 -24 9 -24 13 0 4 -16 13 -35 20 -19 7 -35 16 -35 20 0 5 -13 14 -30 21 -16 7 -30 17 -30 22 0 5 -4 6 -10 3 -5 -3 -10 -2 -10 4 0 5 -14 12 -30 16 -17 4 -36 12 -43 18 -28 27 -94 67 -110 67 -10 0 -20 7 -23 15 -4 8 -10 12 -15 9 -5 -3 -19 4 -31 15 -12 12 -28 21 -35 21 -7 0 -13 5 -13 10 0 6 -7 10 -15 10 -18 0 -56 20 -70 38 -5 7 -21 14 -34 17 -14 2 -27 8 -30 13 -5 8 -158 85 -171 87 -3 0 -15 6 -27 13 -13 7 -23 10 -23 7 0 -3 -9 -1 -21 5 -11 7 -33 14 -47 16 -15 3 -30 10 -33 16 -4 6 -14 8 -23 5 -9 -4 -16 -2 -16 3 0 5 -9 7 -20 5 -11 -2 -20 -1 -20 3 0 4 -10 7 -22 8 -13 0 -46 3 -75 6 -29 3 -55 3 -58 0z"/>
 <path d="M4893 9113 c-13 -2 -23 -9 -23 -14 0 -5 -7 -9 -15 -9 -8 0 -15 -6 -15 -14 0 -11 8 -10 40 5 22 11 40 24 40 29 0 6 -1 9 -2 9 -2 -1 -13 -4 -25 -6z"/>
 <path d="M4675 9081 c-11 -11 -3 -17 27 -19 18 -2 45 -9 61 -17 23 -11 32 -12 48 -2 10 6 19 19 19 27 -1 13 -2 13 -13 0 -15 -18 -37 -24 -37 -9 0 5 -4 7 -10 4 -5 -3 -10 -1 -10 6 0 6 -8 9 -20 6 -11 -3 -20 -1 -20 3 0 9 -37 10 -45 1z"/>
 <path d="M4601 9057 c-5 -5 -15 -9 -22 -11 -8 -1 -38 -15 -68 -31 -30 -17 -58 -29 -63 -27 -4 1 -8 -2 -8 -8 0 -5 -3 -9 -7 -8 -13 3 -63 -24 -63 -34 0 -4 4 -8 10 -8 12 0 201 97 214 110 5 5 14 6 21 4 6 -3 17 2 24 10 10 12 9 15 -8 13 -12 -1 -25 -5 -30 -10z"/>
 <path d="M4338 8924 c-4 -3 -14 -7 -23 -8 -9 -1 -21 -9 -26 -17 -5 -8 -9 -10 -9 -5 0 4 -11 1 -25 -8 -14 -9 -25 -13 -25 -10 0 4 -9 -1 -20 -11 -11 -10 -20 -15 -20 -11 0 3 -19 -6 -42 -21 -24 -14 -43 -26 -43 -25 0 1 -10 -1 -22 -4 -13 -4 -23 -10 -23 -15 0 -5 -7 -9 -15 -9 -15 0 -22 -20 -7 -20 13 -1 321 155 322 163 0 8 -14 9 -22 1z"/>
 <path d="M5078 8853 c-36 -9 -29 -16 147 -135 55 -38 123 -84 150 -103 54 -38 150 -103 297 -203 51 -34 179 -118 283 -186 105 -69 201 -133 215 -143 14 -10 50 -34 80 -53 73 -44 152 -95 222 -142 31 -21 59 -38 62 -38 3 0 29 -16 57 -36 28 -19 58 -38 67 -42 9 -4 49 -28 87 -53 77 -50 112 -72 195 -120 30 -17 78 -46 105 -63 74 -46 84 -52 154 -92 35 -20 83 -49 106 -65 24 -16 46 -29 49 -29 4 0 34 -18 67 -40 33 -22 63 -40 66 -40 3 0 30 -21 60 -46 85 -73 112 -122 142 -254 11 -51 7 -167 -14 -380 -13 -135 -26 -301 -40 -515 -3 -49 -8 -119 -10 -155 -6 -90 -13 -238 -21 -420 -3 -85 -8 -180 -10 -210 -3 -30 -7 -368 -10 -750 -2 -409 -9 -726 -15 -770 -15 -107 -42 -205 -78 -285 -17 -37 -29 -70 -26 -73 6 -6 98 42 142 74 17 13 34 24 37 24 18 0 141 94 202 155 99 98 108 117 109 245 0 58 -5 139 -12 180 -24 149 -42 297 -48 405 -4 61 -8 128 -10 150 -5 56 -16 285 -25 520 -19 510 12 1470 61 1828 5 43 10 118 11 167 1 79 -2 94 -26 134 -29 49 -91 106 -159 146 -99 58 -192 115 -197 120 -7 8 -245 142 -435 245 -82 45 -197 109 -255 142 -58 33 -130 74 -160 90 -48 26 -264 150 -348 200 -16 10 -149 86 -295 170 -145 84 -291 170 -323 191 -80 53 -283 168 -339 193 -119 53 -253 79 -317 62z"/>
 <path d="M4004 8760 c-6 -6 -20 -12 -31 -14 -37 -8 -84 -46 -56 -46 20 0 103 47 103 58 0 15 -3 15 -16 2z"/>
 <path d="M4428 8640 c-166 -84 -236 -124 -232 -133 3 -8 48 -45 100 -83 52 -38 125 -92 162 -119 37 -28 77 -57 88 -65 23 -16 222 -164 239 -177 6 -5 48 -38 95 -73 47 -36 87 -67 90 -70 3 -3 41 -32 85 -65 44 -33 89 -67 100 -77 11 -9 92 -73 180 -143 248 -197 209 -165 411 -332 72 -59 147 -121 168 -138 21 -16 43 -34 50 -40 6 -5 54 -46 106 -90 52 -44 97 -82 100 -85 17 -18 160 -138 240 -202 131 -105 177 -157 213 -241 27 -64 30 -84 31 -177 1 -95 -8 -212 -19 -250 -30 -105 -66 -424 -80 -715 -4 -71 -8 -152 -11 -180 -4 -57 -4 -674 1 -720 1 -16 6 -93 10 -169 4 -77 8 -147 10 -155 1 -9 6 -56 10 -106 3 -49 8 -106 10 -125 16 -152 26 -234 30 -262 3 -18 14 -93 25 -167 11 -74 20 -135 20 -137 0 -2 21 -12 46 -24 44 -19 49 -19 78 -4 18 9 65 17 112 20 104 4 172 33 237 100 80 83 138 229 163 414 4 30 8 348 9 705 1 358 5 686 8 730 4 44 9 150 12 235 8 206 14 344 20 405 3 28 7 97 10 155 6 114 11 177 19 255 3 28 8 100 12 160 3 61 11 156 19 212 14 116 10 215 -12 258 -21 39 -74 89 -124 117 -23 13 -49 28 -58 33 -9 6 -55 32 -101 59 -102 59 -341 204 -425 258 -33 21 -73 45 -90 54 -55 30 -290 177 -317 198 -15 12 -48 34 -75 50 -46 29 -150 94 -223 141 -19 12 -115 76 -213 141 -98 66 -188 125 -200 133 -12 8 -53 35 -90 60 -38 25 -93 62 -123 81 -59 39 -256 176 -454 316 -168 119 -219 154 -228 153 -4 0 -114 -54 -244 -119z"/>
 <path d="M3876 8695 c-10 -8 -23 -12 -27 -9 -5 3 -9 1 -9 -3 0 -5 -10 -13 -22 -18 -13 -6 -28 -20 -34 -32 -6 -13 -14 -20 -17 -16 -15 14 -12 -95 4 -144 11 -34 73 -106 83 -96 3 4 6 1 6 -6 0 -7 5 -9 10 -6 6 3 10 1 10 -6 0 -7 3 -10 6 -7 3 4 19 -8 35 -24 16 -17 29 -27 29 -23 0 4 11 -4 24 -18 13 -14 27 -23 30 -20 3 4 6 1 6 -5 0 -6 9 -14 21 -17 12 -4 30 -14 41 -24 11 -9 29 -24 40 -33 12 -10 24 -18 29 -18 4 0 22 -15 41 -32 18 -18 38 -34 43 -35 13 -3 53 -32 80 -58 12 -11 34 -27 51 -35 16 -8 39 -25 51 -38 12 -13 24 -23 27 -23 19 3 25 -1 31 -19 4 -11 10 -18 15 -15 5 3 13 -3 19 -12 6 -10 11 -14 11 -10 0 4 11 -3 23 -17 13 -14 27 -23 30 -19 4 3 7 1 7 -6 0 -7 4 -10 9 -6 5 3 16 -3 23 -13 7 -10 24 -25 37 -32 14 -7 35 -23 48 -36 14 -14 28 -22 33 -19 5 3 11 -4 15 -15 3 -11 10 -20 15 -20 5 0 25 -14 45 -31 19 -17 35 -28 35 -25 0 4 11 -5 25 -20 14 -15 25 -23 25 -19 0 4 9 -2 20 -15 11 -13 20 -19 20 -15 0 4 11 -4 25 -19 14 -15 25 -24 25 -21 0 3 14 -8 30 -25 17 -17 30 -28 30 -24 0 4 11 -5 25 -20 14 -15 25 -24 25 -20 0 4 10 -5 23 -19 12 -15 28 -27 34 -27 6 0 29 -17 52 -39 22 -21 41 -36 41 -33 0 3 11 -7 24 -21 13 -14 27 -23 30 -20 3 4 6 0 6 -7 0 -7 3 -11 6 -7 4 3 22 -9 40 -29 19 -19 34 -31 34 -27 0 3 14 -9 30 -27 17 -18 30 -30 30 -25 0 4 11 -4 24 -18 13 -14 27 -23 30 -20 3 3 8 -2 12 -11 3 -9 12 -16 19 -16 8 0 17 -9 20 -20 4 -11 11 -18 16 -15 5 4 9 1 9 -6 0 -7 3 -10 6 -6 3 3 17 -6 30 -20 13 -14 24 -23 24 -20 0 3 16 -9 34 -26 19 -18 51 -45 71 -62 21 -16 55 -47 77 -67 23 -21 44 -35 49 -33 4 3 10 -4 14 -15 3 -11 10 -20 15 -20 5 0 22 -14 39 -31 17 -17 31 -27 31 -24 0 4 17 -10 38 -31 22 -22 52 -48 67 -59 39 -28 75 -64 75 -76 0 -6 4 -8 9 -4 5 3 16 -2 25 -10 8 -9 17 -15 18 -13 4 3 44 -30 111 -94 l61 -57 -1 -73 c-1 -40 -2 -75 -3 -78 -4 -14 -10 -50 -14 -100 -10 -102 -18 -153 -27 -177 -5 -14 -7 -28 -5 -32 3 -4 1 -39 -5 -77 -14 -95 -19 -142 -23 -190 -2 -22 -6 -67 -10 -100 -5 -56 -15 -229 -21 -374 -1 -36 -6 -77 -10 -92 -4 -16 -3 -28 2 -28 9 0 9 -30 -1 -142 -2 -25 -1 -76 3 -112 4 -36 4 -66 -1 -66 -4 0 -5 -19 -2 -42 3 -24 6 -89 7 -146 1 -56 5 -102 9 -102 4 0 9 201 11 448 5 423 20 706 46 874 11 71 35 258 57 451 14 121 13 129 -5 165 -22 42 -79 98 -166 162 -33 24 -123 98 -200 164 -77 67 -160 137 -185 157 -25 21 -140 115 -256 210 -293 241 -338 277 -514 414 -363 282 -490 376 -502 369 -7 -4 -8 -3 -4 4 4 7 -62 62 -171 143 -240 178 -238 176 -405 295 -130 92 -150 111 -169 152 -18 41 -20 52 -9 92 14 54 29 72 80 95 22 10 40 24 40 32 0 16 0 16 -24 -2z"/>
 <path d="M8153 6193 c-13 -31 -8 -1103 5 -1323 19 -300 40 -569 56 -705 48 -397 21 -532 -137 -681 -40 -38 -93 -82 -117 -99 -50 -33 -165 -118 -192 -140 -10 -8 -18 -13 -18 -10 0 2 -31 -16 -69 -40 -38 -25 -74 -45 -80 -45 -6 0 -11 -7 -11 -16 0 -14 3 -14 15 -4 8 7 15 9 15 4 0 -5 4 -4 8 2 4 7 50 37 102 69 52 32 98 62 102 69 4 6 8 7 8 1 0 -5 6 -3 13 6 7 9 32 28 57 44 25 15 54 37 66 49 11 12 26 22 34 24 20 5 180 170 180 187 0 7 7 21 16 29 8 9 12 20 9 26 -3 5 -2 10 4 10 5 0 12 19 16 43 4 23 9 56 12 72 13 66 6 299 -13 410 -2 17 -7 53 -9 80 -2 28 -7 66 -9 85 -3 19 -7 69 -10 110 -3 41 -8 118 -12 170 -3 52 -7 118 -8 145 -1 28 -5 56 -9 63 -5 7 -3 12 3 12 7 0 9 8 4 23 -9 27 -13 113 -18 432 -3 138 -5 250 -6 250 -7 0 -2 146 5 148 6 2 5 10 -2 19 -7 8 -10 17 -8 20 3 3 8 101 10 217 2 116 7 220 10 230 8 25 -13 38 -22 14z"/>
 <path d="M6245 4408 c2 -24 4 -43 5 -43 1 0 3 -40 6 -90 4 -108 12 -219 18 -260 2 -16 7 -64 11 -105 8 -86 12 -113 15 -120 1 -3 2 -24 2 -47 0 -27 4 -43 12 -43 9 0 9 22 0 103 -17 140 -44 499 -44 580 0 51 -3 67 -14 67 -10 0 -13 -11 -11 -42z"/>
 <path d="M6314 3648 c3 -24 9 -63 11 -88 3 -25 7 -56 10 -70 2 -14 9 -61 15 -105 7 -44 14 -89 15 -100 9 -59 26 -128 37 -148 7 -12 11 -25 10 -29 -1 -4 3 -20 10 -35 6 -15 10 -34 9 -40 -1 -7 2 -13 7 -13 4 0 14 -16 22 -35 7 -19 17 -32 21 -29 4 2 11 -5 14 -16 4 -12 18 -25 31 -30 13 -5 24 -14 24 -20 0 -6 4 -8 10 -5 5 3 20 -1 33 -10 13 -8 27 -12 30 -8 4 3 7 2 7 -3 0 -6 10 -11 23 -12 12 0 31 -2 42 -4 11 -2 20 1 20 7 0 5 -9 11 -20 12 -71 9 -132 39 -180 87 -75 75 -112 196 -156 504 -19 127 -38 232 -43 232 -5 0 -6 -19 -2 -42z"/>
 <path d="M7513 3103 c-62 -34 -82 -56 -43 -46 11 3 20 9 20 14 0 5 9 9 20 9 11 0 20 5 20 11 0 5 3 8 8 5 10 -6 45 21 41 32 -2 5 -32 -6 -66 -25z"/>
 <path d="M7390 3042 c-19 -10 -51 -24 -70 -31 -19 -8 -48 -20 -65 -26 -16 -7 -38 -15 -47 -19 -10 -3 -18 -10 -18 -15 0 -13 45 1 113 35 16 8 35 14 43 14 8 0 14 4 14 8 0 4 10 8 22 9 11 1 24 7 28 13 4 7 11 11 16 10 5 -1 10 3 12 9 5 15 -7 13 -48 -7z"/>
 <path d="M7123 2935 c-38 -16 -44 -28 -10 -20 13 4 32 7 42 9 22 3 34 26 13 26 -7 -1 -28 -7 -45 -15z"/>
 <path d="M6976 2894 c-83 -22 -134 -31 -178 -33 -10 -1 -18 -5 -18 -10 0 -5 19 -7 43 -5 23 1 42 3 42 4 0 2 24 7 75 15 52 8 74 13 78 15 4 4 21 7 42 9 11 0 20 8 20 16 0 8 -3 14 -7 14 -5 -1 -48 -12 -97 -25z"/>
 </g>
<g id="layer104" fill="#818085" stroke="none">
 <path d="M5026 9153 c-3 -4 -14 -8 -24 -10 -9 -1 -28 -4 -42 -6 -14 -2 -27 -12 -28 -22 -3 -11 1 -15 10 -12 7 3 32 11 56 18 23 6 42 17 42 25 0 16 -3 17 -14 7z"/>
 <path d="M5058 9143 c-8 -10 -3 -13 21 -13 20 0 31 5 31 14 0 18 -37 17 -52 -1z"/>
 <path d="M5125 9152 c-14 -14 1 -20 68 -25 39 -4 86 -9 102 -12 74 -14 220 -71 330 -129 157 -82 721 -402 762 -432 17 -13 34 -24 37 -24 2 0 123 -69 268 -153 145 -84 355 -206 468 -271 113 -64 212 -121 220 -127 29 -17 309 -172 426 -234 175 -93 320 -218 364 -312 14 -29 28 -53 33 -53 4 0 6 -4 3 -8 -3 -4 0 -28 5 -53 10 -43 13 -225 4 -284 -10 -68 -45 -520 -51 -650 -3 -77 -7 -146 -10 -152 -2 -7 1 -13 6 -13 6 0 11 6 11 13 3 28 7 98 12 192 3 55 9 108 12 118 5 11 2 17 -6 17 -10 0 -10 3 -3 8 6 4 11 14 12 22 1 8 4 42 7 75 2 33 7 105 10 160 2 55 7 116 10 135 15 98 18 131 17 200 0 112 -8 185 -23 211 -7 13 -12 28 -11 33 2 5 -4 16 -11 25 -8 9 -29 41 -46 71 -17 30 -31 52 -31 47 0 -4 -22 15 -50 43 -27 28 -50 47 -50 43 0 -5 -4 -3 -8 3 -4 5 -24 20 -44 33 -21 12 -38 27 -38 32 0 6 -4 7 -10 4 -5 -3 -10 -1 -10 5 0 6 -4 8 -10 5 -5 -3 -10 -2 -10 4 0 5 -10 13 -22 17 -12 3 -28 13 -36 20 -7 8 -18 12 -23 9 -5 -4 -9 -1 -9 4 0 6 -7 11 -15 11 -8 0 -15 5 -15 11 0 5 -4 7 -10 4 -5 -3 -10 -1 -10 5 0 6 -4 8 -10 5 -5 -3 -10 -1 -10 4 0 6 -7 11 -15 11 -8 0 -15 5 -15 10 0 6 -3 9 -7 8 -7 -2 -75 29 -113 52 -8 5 -52 30 -97 55 -46 26 -83 51 -83 56 0 6 -4 8 -10 4 -5 -3 -39 12 -76 35 -36 22 -70 40 -75 40 -5 0 -12 7 -15 15 -4 8 -9 13 -14 10 -4 -2 -28 9 -54 25 -26 17 -51 30 -57 30 -5 0 -12 7 -15 15 -4 8 -10 13 -14 10 -4 -3 -13 2 -20 10 -7 8 -19 15 -27 15 -14 0 -75 39 -81 53 -2 4 -8 5 -13 1 -5 -3 -9 0 -9 6 0 6 -4 9 -9 6 -5 -4 -11 -1 -13 4 -2 6 -10 12 -18 13 -22 4 -80 40 -80 50 0 4 -4 5 -10 2 -5 -3 -10 -1 -10 5 0 6 -4 8 -10 5 -5 -3 -10 -2 -10 3 0 5 -27 22 -60 38 -33 15 -60 32 -60 37 0 4 -4 5 -10 2 -5 -3 -10 -1 -10 5 0 6 -4 8 -10 5 -5 -3 -10 -2 -10 3 0 4 -19 19 -42 32 -24 13 -45 27 -48 31 -3 4 -14 9 -25 11 -11 1 -22 6 -25 9 -3 3 -27 19 -55 35 -27 15 -56 34 -63 41 -7 7 -24 16 -38 19 -13 3 -24 9 -24 13 0 4 -16 13 -35 20 -19 7 -35 16 -35 20 0 5 -13 14 -30 21 -16 7 -30 17 -30 22 0 5 -4 6 -10 3 -5 -3 -10 -2 -10 4 0 5 -14 12 -30 16 -17 4 -36 12 -43 18 -28 27 -94 67 -110 67 -10 0 -20 7 -23 15 -4 8 -10 12 -15 9 -5 -3 -19 4 -31 15 -12 12 -28 21 -35 21 -7 0 -13 5 -13 10 0 6 -7 10 -15 10 -18 0 -56 20 -70 38 -5 7 -21 14 -34 17 -14 2 -27 8 -30 13 -5 8 -158 85 -171 87 -3 0 -15 6 -27 13 -13 7 -23 10 -23 7 0 -3 -9 -1 -21 5 -11 7 -33 14 -47 16 -15 3 -30 10 -33 16 -4 6 -14 8 -23 5 -9 -4 -16 -2 -16 3 0 5 -9 7 -20 5 -11 -2 -20 -1 -20 3 0 4 -10 7 -22 8 -13 0 -46 3 -75 6 -29 3 -55 3 -58 0z"/>
 <path d="M4893 9113 c-13 -2 -23 -9 -23 -14 0 -5 -7 -9 -15 -9 -8 0 -15 -6 -15 -14 0 -11 8 -10 40 5 22 11 40 24 40 29 0 6 -1 9 -2 9 -2 -1 -13 -4 -25 -6z"/>
 <path d="M4675 9081 c-11 -11 -3 -17 27 -19 18 -2 45 -9 61 -17 23 -11 32 -12 48 -2 10 6 19 19 19 27 -1 13 -2 13 -13 0 -15 -18 -37 -24 -37 -9 0 5 -4 7 -10 4 -5 -3 -10 -1 -10 6 0 6 -8 9 -20 6 -11 -3 -20 -1 -20 3 0 9 -37 10 -45 1z"/>
 <path d="M4601 9057 c-5 -5 -15 -9 -22 -11 -8 -1 -38 -15 -68 -31 -30 -17 -58 -29 -63 -27 -4 1 -8 -2 -8 -8 0 -5 -3 -9 -7 -8 -13 3 -63 -24 -63 -34 0 -4 4 -8 10 -8 12 0 201 97 214 110 5 5 14 6 21 4 6 -3 17 2 24 10 10 12 9 15 -8 13 -12 -1 -25 -5 -30 -10z"/>
 <path d="M4338 8924 c-4 -3 -14 -7 -23 -8 -9 -1 -21 -9 -26 -17 -5 -8 -9 -10 -9 -5 0 4 -11 1 -25 -8 -14 -9 -25 -13 -25 -10 0 4 -9 -1 -20 -11 -11 -10 -20 -15 -20 -11 0 3 -19 -6 -42 -21 -24 -14 -43 -26 -43 -25 0 1 -10 -1 -22 -4 -13 -4 -23 -10 -23 -15 0 -5 -7 -9 -15 -9 -15 0 -22 -20 -7 -20 13 -1 321 155 322 163 0 8 -14 9 -22 1z"/>
 <path d="M5078 8853 c-36 -9 -29 -16 147 -135 55 -38 123 -84 150 -103 54 -38 150 -103 297 -203 51 -34 179 -118 283 -186 105 -69 201 -133 215 -143 14 -10 50 -34 80 -53 73 -44 152 -95 222 -142 31 -21 59 -38 62 -38 3 0 29 -16 57 -36 28 -19 58 -38 67 -42 9 -4 49 -28 87 -53 77 -50 112 -72 195 -120 30 -17 78 -46 105 -63 74 -46 84 -52 154 -92 35 -20 83 -49 106 -65 24 -16 46 -29 49 -29 4 0 34 -18 67 -40 33 -22 63 -40 66 -40 3 0 30 -21 60 -46 85 -73 112 -122 142 -254 11 -51 7 -167 -14 -380 -13 -135 -26 -301 -40 -515 -3 -49 -8 -119 -10 -155 -6 -90 -13 -238 -21 -420 -3 -85 -8 -180 -10 -210 -3 -30 -7 -368 -10 -750 -2 -409 -9 -726 -15 -770 -15 -107 -42 -205 -78 -285 -17 -37 -29 -70 -26 -73 6 -6 98 42 142 74 17 13 34 24 37 24 18 0 141 94 202 155 99 98 108 117 109 245 0 58 -5 139 -12 180 -24 149 -42 297 -48 405 -4 61 -8 128 -10 150 -5 56 -16 285 -25 520 -19 510 12 1470 61 1828 5 43 10 118 11 167 1 79 -2 94 -26 134 -29 49 -91 106 -159 146 -99 58 -192 115 -197 120 -7 8 -245 142 -435 245 -82 45 -197 109 -255 142 -58 33 -130 74 -160 90 -48 26 -264 150 -348 200 -16 10 -149 86 -295 170 -145 84 -291 170 -323 191 -80 53 -283 168 -339 193 -119 53 -253 79 -317 62z"/>
 <path d="M4004 8760 c-6 -6 -20 -12 -31 -14 -37 -8 -84 -46 -56 -46 20 0 103 47 103 58 0 15 -3 15 -16 2z"/>
 <path d="M4585 8710 c-49 -25 -93 -49 -96 -53 -3 -5 -10 -8 -15 -8 -12 1 -118 -52 -122 -61 -2 -5 -8 -8 -13 -8 -4 0 -32 -11 -61 -24 -29 -13 -61 -27 -71 -30 -24 -8 -9 -36 29 -56 15 -8 38 -25 50 -37 13 -13 30 -23 38 -23 8 0 21 -9 29 -20 16 -23 70 -64 109 -83 15 -7 37 -23 50 -35 46 -45 96 -82 111 -82 9 0 24 -11 35 -25 11 -14 25 -25 31 -25 6 0 21 -11 33 -25 12 -14 26 -25 32 -25 6 0 24 -13 39 -30 16 -16 35 -30 42 -30 8 0 19 -9 25 -20 6 -11 16 -20 22 -20 6 0 21 -10 32 -22 36 -37 90 -78 104 -78 6 0 12 -5 12 -10 0 -6 8 -13 18 -17 9 -3 28 -17 42 -30 48 -44 85 -73 95 -73 6 0 16 -9 23 -20 7 -11 18 -20 25 -20 7 0 18 -9 25 -20 7 -11 19 -20 27 -20 8 0 20 -9 27 -20 7 -11 18 -20 25 -20 7 0 17 -9 23 -20 6 -11 17 -20 25 -20 8 0 19 -9 25 -20 6 -11 17 -20 25 -20 8 0 19 -9 25 -20 6 -11 17 -20 24 -20 7 0 27 -15 44 -34 17 -19 40 -37 51 -41 12 -3 21 -10 21 -16 0 -5 19 -21 42 -36 24 -16 55 -40 70 -55 15 -16 31 -28 35 -28 12 -1 63 -48 63 -59 0 -5 10 -13 23 -17 12 -3 34 -20 48 -35 14 -16 29 -29 34 -29 4 0 26 -18 48 -41 22 -22 52 -48 66 -57 14 -9 30 -22 34 -29 4 -7 13 -13 18 -13 6 0 25 -16 43 -35 19 -19 37 -35 42 -35 5 0 20 -13 34 -30 14 -16 30 -30 36 -30 5 0 20 -13 32 -30 13 -16 28 -30 35 -30 7 0 23 -13 37 -30 14 -16 30 -30 36 -30 6 0 23 -11 38 -25 15 -14 31 -25 37 -25 5 0 9 -7 9 -15 0 -8 4 -15 10 -15 23 0 150 -143 150 -169 0 -4 8 -23 17 -42 14 -27 17 -61 17 -174 -1 -144 -5 -187 -29 -290 -8 -33 -17 -89 -20 -125 -4 -35 -8 -67 -11 -71 -2 -4 -6 -40 -9 -80 -3 -41 -8 -96 -11 -124 -2 -27 -6 -84 -9 -125 -2 -41 -7 -124 -11 -185 -9 -131 -9 -842 0 -970 8 -120 14 -207 21 -280 3 -33 8 -85 10 -115 2 -30 9 -91 15 -135 6 -44 13 -102 16 -130 2 -27 7 -66 9 -85 3 -19 7 -48 9 -65 2 -16 7 -46 11 -65 4 -19 10 -57 14 -85 4 -35 11 -50 21 -51 8 0 28 -5 43 -12 38 -16 64 -15 70 2 4 11 20 14 61 11 30 -1 79 3 108 10 52 12 158 63 158 76 0 3 16 23 35 44 76 80 125 233 141 440 3 33 7 348 9 700 2 352 6 694 9 760 3 66 8 161 10 210 17 390 15 370 32 565 15 180 19 234 29 415 4 61 11 137 17 170 17 92 11 199 -13 243 -24 44 -70 87 -121 113 -20 10 -39 23 -42 28 -4 5 -20 12 -37 16 -16 4 -50 22 -75 41 -24 19 -73 48 -108 64 -35 17 -83 45 -107 62 -64 47 -210 138 -221 138 -5 0 -21 11 -36 25 -15 14 -38 28 -51 32 -28 7 -226 126 -257 154 -11 10 -23 19 -27 19 -3 0 -17 10 -30 23 -14 12 -46 35 -73 51 -27 16 -78 49 -114 72 -36 23 -88 54 -117 70 -103 58 -163 96 -163 104 0 8 -97 71 -154 100 -16 8 -41 27 -55 41 -14 14 -53 40 -86 58 -33 18 -73 45 -90 61 -16 15 -60 45 -97 65 -36 19 -68 42 -71 49 -3 7 -26 23 -51 35 -24 12 -46 26 -48 30 -4 11 -103 81 -115 81 -5 0 -26 16 -47 35 -21 19 -44 35 -52 35 -7 0 -29 16 -49 35 -21 19 -46 37 -57 41 -12 3 -30 17 -42 30 -12 12 -43 36 -71 51 l-50 28 -90 -45z"/>
 <path d="M3876 8695 c-10 -8 -23 -12 -27 -9 -5 3 -9 1 -9 -3 0 -5 -10 -13 -22 -18 -13 -6 -28 -20 -34 -32 -6 -13 -14 -20 -17 -16 -15 14 -12 -95 4 -144 11 -34 73 -106 83 -96 3 4 6 1 6 -6 0 -7 5 -9 10 -6 6 3 10 1 10 -6 0 -7 3 -10 6 -7 3 4 19 -8 35 -24 16 -17 29 -27 29 -23 0 4 11 -4 24 -18 13 -14 27 -23 30 -20 3 4 6 1 6 -5 0 -6 9 -14 21 -17 12 -4 30 -14 41 -24 11 -9 29 -24 40 -33 12 -10 24 -18 29 -18 4 0 22 -15 41 -32 18 -18 38 -34 43 -35 13 -3 53 -32 80 -58 12 -11 34 -27 51 -35 16 -8 39 -25 51 -38 12 -13 24 -23 27 -23 19 3 25 -1 31 -19 4 -11 10 -18 15 -15 5 3 13 -3 19 -12 6 -10 11 -14 11 -10 0 4 11 -3 23 -17 13 -14 27 -23 30 -19 4 3 7 1 7 -6 0 -7 4 -10 9 -6 5 3 16 -3 23 -13 7 -10 24 -25 37 -32 14 -7 35 -23 48 -36 14 -14 28 -22 33 -19 5 3 11 -4 15 -15 3 -11 10 -20 15 -20 5 0 25 -14 45 -31 19 -17 35 -28 35 -25 0 4 11 -5 25 -20 14 -15 25 -23 25 -19 0 4 9 -2 20 -15 11 -13 20 -19 20 -15 0 4 11 -4 25 -19 14 -15 25 -24 25 -21 0 3 14 -8 30 -25 17 -17 30 -28 30 -24 0 4 11 -5 25 -20 14 -15 25 -24 25 -20 0 4 10 -5 23 -19 12 -15 28 -27 34 -27 6 0 29 -17 52 -39 22 -21 41 -36 41 -33 0 3 11 -7 24 -21 13 -14 27 -23 30 -20 3 4 6 0 6 -7 0 -7 3 -11 6 -7 4 3 22 -9 40 -29 19 -19 34 -31 34 -27 0 3 14 -9 30 -27 17 -18 30 -30 30 -25 0 4 11 -4 24 -18 13 -14 27 -23 30 -20 3 3 8 -2 12 -11 3 -9 12 -16 19 -16 8 0 17 -9 20 -20 4 -11 11 -18 16 -15 5 4 9 1 9 -6 0 -7 3 -10 6 -6 3 3 17 -6 30 -20 13 -14 24 -23 24 -20 0 3 16 -9 34 -26 19 -18 51 -45 71 -62 21 -16 55 -47 77 -67 23 -21 44 -35 49 -33 4 3 10 -4 14 -15 3 -11 10 -20 15 -20 5 0 22 -14 39 -31 17 -17 31 -27 31 -24 0 4 17 -10 38 -31 22 -22 52 -48 67 -59 39 -28 75 -64 75 -76 0 -6 4 -8 9 -4 5 3 16 -2 25 -10 8 -9 17 -15 18 -13 4 3 44 -30 111 -94 l61 -57 -1 -73 c-1 -40 -2 -75 -3 -78 -4 -14 -10 -50 -14 -100 -10 -102 -18 -153 -27 -177 -5 -14 -7 -28 -5 -32 3 -4 1 -39 -5 -77 -14 -95 -19 -142 -23 -190 -2 -22 -6 -67 -10 -100 -5 -56 -15 -229 -21 -374 -1 -36 -6 -77 -10 -92 -4 -16 -3 -28 2 -28 9 0 9 -30 -1 -142 -2 -25 -1 -76 3 -112 4 -36 4 -66 -1 -66 -4 0 -5 -19 -2 -42 3 -24 6 -89 7 -146 1 -56 5 -102 9 -102 4 0 9 201 11 448 5 423 20 706 46 874 11 71 35 258 57 451 14 121 13 129 -5 165 -22 42 -79 98 -166 162 -33 24 -123 98 -200 164 -77 67 -160 137 -185 157 -25 21 -140 115 -256 210 -293 241 -338 277 -514 414 -363 282 -490 376 -502 369 -7 -4 -8 -3 -4 4 4 7 -62 62 -171 143 -240 178 -238 176 -405 295 -130 92 -150 111 -169 152 -18 41 -20 52 -9 92 14 54 29 72 80 95 22 10 40 24 40 32 0 16 0 16 -24 -2z"/>
 <path d="M8153 6193 c-13 -31 -8 -1103 5 -1323 19 -300 40 -569 56 -705 48 -397 21 -532 -137 -681 -40 -38 -93 -82 -117 -99 -50 -33 -165 -118 -192 -140 -10 -8 -18 -13 -18 -10 0 2 -31 -16 -69 -40 -38 -25 -74 -45 -80 -45 -6 0 -11 -7 -11 -16 0 -14 3 -14 15 -4 8 7 15 9 15 4 0 -5 4 -4 8 2 4 7 50 37 102 69 52 32 98 62 102 69 4 6 8 7 8 1 0 -5 6 -3 13 6 7 9 32 28 57 44 25 15 54 37 66 49 11 12 26 22 34 24 20 5 180 170 180 187 0 7 7 21 16 29 8 9 12 20 9 26 -3 5 -2 10 4 10 5 0 12 19 16 43 4 23 9 56 12 72 13 66 6 299 -13 410 -2 17 -7 53 -9 80 -2 28 -7 66 -9 85 -3 19 -7 69 -10 110 -3 41 -8 118 -12 170 -3 52 -7 118 -8 145 -1 28 -5 56 -9 63 -5 7 -3 12 3 12 7 0 9 8 4 23 -9 27 -13 113 -18 432 -3 138 -5 250 -6 250 -7 0 -2 146 5 148 6 2 5 10 -2 19 -7 8 -10 17 -8 20 3 3 8 101 10 217 2 116 7 220 10 230 8 25 -13 38 -22 14z"/>
 <path d="M6245 4408 c2 -24 4 -43 5 -43 1 0 3 -40 6 -90 4 -108 12 -219 18 -260 2 -16 7 -64 11 -105 8 -86 12 -113 15 -120 1 -3 2 -24 2 -47 0 -27 4 -43 12 -43 9 0 9 22 0 103 -17 140 -44 499 -44 580 0 51 -3 67 -14 67 -10 0 -13 -11 -11 -42z"/>
 <path d="M6314 3648 c3 -24 9 -63 11 -88 3 -25 7 -56 10 -70 2 -14 9 -61 15 -105 7 -44 14 -89 15 -100 9 -59 26 -128 37 -148 7 -12 11 -25 10 -29 -1 -4 3 -20 10 -35 6 -15 10 -34 9 -40 -1 -7 2 -13 7 -13 4 0 14 -16 22 -35 7 -19 17 -32 21 -29 4 2 11 -5 14 -16 4 -12 18 -25 31 -30 13 -5 24 -14 24 -20 0 -6 4 -8 10 -5 5 3 20 -1 33 -10 13 -8 27 -12 30 -8 4 3 7 2 7 -3 0 -6 10 -11 23 -12 12 0 31 -2 42 -4 11 -2 20 1 20 7 0 5 -9 11 -20 12 -71 9 -132 39 -180 87 -75 75 -112 196 -156 504 -19 127 -38 232 -43 232 -5 0 -6 -19 -2 -42z"/>
 <path d="M7513 3103 c-62 -34 -82 -56 -43 -46 11 3 20 9 20 14 0 5 9 9 20 9 11 0 20 5 20 11 0 5 3 8 8 5 10 -6 45 21 41 32 -2 5 -32 -6 -66 -25z"/>
 <path d="M7390 3042 c-19 -10 -51 -24 -70 -31 -19 -8 -48 -20 -65 -26 -16 -7 -38 -15 -47 -19 -10 -3 -18 -10 -18 -15 0 -13 45 1 113 35 16 8 35 14 43 14 8 0 14 4 14 8 0 4 10 8 22 9 11 1 24 7 28 13 4 7 11 11 16 10 5 -1 10 3 12 9 5 15 -7 13 -48 -7z"/>
 <path d="M7123 2935 c-38 -16 -44 -28 -10 -20 13 4 32 7 42 9 22 3 34 26 13 26 -7 -1 -28 -7 -45 -15z"/>
 <path d="M6976 2894 c-83 -22 -134 -31 -178 -33 -10 -1 -18 -5 -18 -10 0 -5 19 -7 43 -5 23 1 42 3 42 4 0 2 24 7 75 15 52 8 74 13 78 15 4 4 21 7 42 9 11 0 20 8 20 16 0 8 -3 14 -7 14 -5 -1 -48 -12 -97 -25z"/>
 </g>
<g id="layer105" fill="#c19b40" stroke="none">
 <path d="M5026 9153 c-3 -4 -14 -8 -24 -10 -9 -1 -28 -4 -41 -6 -21 -3 -44 -27 -27 -27 33 0 106 24 106 36 0 16 -3 17 -14 7z"/>
 <path d="M5058 9143 c-8 -10 -6 -13 5 -13 22 0 47 11 47 20 0 13 -40 7 -52 -7z"/>
 <path d="M5124 9149 c-6 -11 -11 -10 61 -16 89 -7 234 -47 327 -89 68 -31 252 -128 398 -211 137 -78 567 -327 597 -346 114 -71 1016 -587 1188 -679 197 -105 305 -177 386 -258 59 -58 119 -149 125 -190 1 -8 7 -48 13 -88 11 -72 8 -140 -19 -402 -18 -179 -22 -300 -12 -300 6 0 11 8 11 18 0 9 2 44 5 77 3 33 8 105 11 160 2 55 7 116 10 135 15 98 18 131 17 200 0 112 -8 185 -23 211 -7 13 -12 28 -11 33 2 5 -4 16 -11 25 -8 9 -29 41 -46 71 -17 30 -31 52 -31 47 0 -4 -22 15 -50 43 -27 28 -50 47 -50 43 0 -5 -4 -3 -8 3 -4 5 -24 20 -44 33 -21 12 -38 27 -38 32 0 6 -4 7 -10 4 -5 -3 -10 -1 -10 5 0 6 -4 8 -10 5 -5 -3 -10 -2 -10 4 0 5 -10 13 -22 17 -12 3 -28 13 -36 20 -7 8 -18 12 -23 9 -5 -4 -9 -1 -9 4 0 6 -7 11 -15 11 -8 0 -15 5 -15 11 0 5 -4 7 -10 4 -5 -3 -10 -1 -10 5 0 6 -4 8 -10 5 -5 -3 -10 -1 -10 4 0 6 -7 11 -15 11 -8 0 -15 5 -15 10 0 6 -3 9 -7 8 -7 -2 -75 29 -113 52 -8 5 -52 30 -97 55 -46 26 -83 51 -83 56 0 6 -4 8 -10 4 -5 -3 -39 12 -76 35 -36 22 -70 40 -75 40 -5 0 -12 7 -15 15 -4 8 -9 13 -14 10 -4 -2 -28 9 -54 25 -26 17 -51 30 -57 30 -5 0 -12 7 -15 15 -4 8 -10 13 -14 10 -4 -3 -13 2 -20 10 -7 8 -19 15 -27 15 -14 0 -75 39 -81 53 -2 4 -8 5 -13 1 -5 -3 -9 0 -9 6 0 6 -4 9 -9 6 -5 -4 -11 -1 -13 4 -2 6 -10 12 -18 13 -22 4 -80 40 -80 50 0 4 -4 5 -10 2 -5 -3 -10 -1 -10 5 0 6 -4 8 -10 5 -5 -3 -10 -2 -10 3 0 5 -27 22 -60 38 -33 15 -60 32 -60 37 0 4 -4 5 -10 2 -5 -3 -10 -1 -10 5 0 6 -4 8 -10 5 -5 -3 -10 -2 -10 3 0 4 -19 19 -42 32 -24 13 -45 27 -48 31 -3 4 -14 9 -25 11 -11 1 -22 6 -25 9 -3 3 -27 19 -55 35 -27 15 -56 34 -63 41 -7 7 -24 16 -38 19 -13 3 -24 9 -24 13 0 4 -16 13 -35 20 -19 7 -35 16 -35 20 0 5 -13 14 -30 21 -16 7 -30 17 -30 22 0 5 -4 6 -10 3 -5 -3 -10 -2 -10 4 0 5 -14 12 -30 16 -17 4 -36 12 -43 18 -28 27 -94 67 -110 67 -10 0 -20 7 -23 15 -4 8 -10 12 -15 9 -5 -3 -19 4 -31 15 -12 12 -28 21 -35 21 -7 0 -13 5 -13 10 0 6 -7 10 -15 10 -18 0 -56 20 -70 38 -5 7 -21 14 -34 17 -14 2 -27 8 -30 13 -5 8 -158 85 -171 87 -3 0 -15 6 -27 13 -13 7 -23 10 -23 7 0 -3 -9 -1 -21 5 -11 7 -33 14 -47 16 -15 3 -30 10 -33 16 -4 6 -14 8 -23 5 -9 -4 -16 -2 -16 3 0 5 -9 7 -20 5 -11 -2 -20 -1 -20 3 0 4 -10 7 -22 8 -13 0 -47 3 -76 6 -29 3 -55 2 -58 -3z"/>
 <path d="M4893 9113 c-13 -2 -23 -11 -23 -18 0 -12 5 -12 25 -3 14 6 25 15 25 20 0 4 -1 7 -2 7 -2 -1 -13 -4 -25 -6z"/>
 <path d="M4675 9081 c-12 -11 -3 -18 18 -14 12 2 39 -5 61 -16 31 -16 42 -18 57 -8 20 13 25 27 9 27 -5 0 -10 -4 -10 -8 0 -5 -7 -9 -15 -9 -8 0 -15 4 -15 9 0 5 -4 6 -10 3 -5 -3 -10 -1 -10 6 0 6 -8 9 -20 6 -11 -3 -20 -1 -20 3 0 9 -37 10 -45 1z"/>
 <path d="M4553 9033 c-3 -7 -8 -11 -12 -9 -10 6 -37 -12 -29 -19 6 -7 78 25 78 35 0 12 -32 7 -37 -7z"/>
 <path d="M4476 8995 c-10 -8 -23 -12 -27 -9 -5 3 -9 1 -9 -4 0 -4 -16 -14 -35 -22 -19 -8 -35 -17 -35 -22 0 -11 -1 -11 68 22 34 16 62 34 62 40 0 13 -1 12 -24 -5z"/>
 <path d="M4330 8921 c-8 -6 -17 -8 -21 -5 -9 5 -23 -15 -16 -22 5 -6 67 23 67 31 0 8 -14 6 -30 -4z"/>
 <path d="M4252 8884 c-12 -8 -22 -12 -22 -8 0 4 -9 -1 -21 -12 -12 -10 -24 -18 -27 -16 -4 2 -8 -1 -10 -7 -2 -6 -1 -11 2 -11 16 0 106 51 106 60 0 13 -2 13 -28 -6z"/>
 <path d="M5078 8853 c-36 -9 -29 -16 147 -135 55 -38 123 -84 150 -103 54 -38 150 -103 297 -203 51 -34 179 -118 283 -186 105 -69 201 -133 215 -143 14 -10 50 -34 80 -53 73 -44 152 -95 222 -142 31 -21 59 -38 62 -38 3 0 29 -16 57 -36 28 -19 58 -38 67 -42 9 -4 49 -28 87 -53 77 -50 112 -72 195 -120 30 -17 78 -46 105 -63 74 -46 84 -52 154 -92 35 -20 83 -49 106 -65 24 -16 46 -29 49 -29 4 0 34 -18 67 -40 33 -22 63 -40 66 -40 3 0 30 -21 60 -46 85 -73 112 -122 142 -254 11 -51 7 -167 -14 -380 -13 -135 -26 -301 -40 -515 -3 -49 -8 -119 -10 -155 -6 -90 -13 -238 -21 -420 -3 -85 -8 -180 -10 -210 -2 -30 -7 -368 -9 -750 -3 -406 -10 -726 -16 -770 -15 -107 -42 -205 -78 -285 -17 -37 -29 -70 -26 -73 6 -6 98 42 142 74 17 13 34 24 37 24 18 0 141 94 202 155 99 98 108 117 109 245 0 58 -5 139 -12 180 -24 149 -42 297 -48 405 -4 61 -8 128 -10 150 -5 56 -16 284 -25 520 -19 510 12 1469 61 1828 5 43 10 118 11 167 1 79 -2 94 -26 134 -29 49 -91 106 -159 146 -99 58 -192 115 -197 120 -7 8 -245 142 -435 245 -82 45 -197 109 -255 142 -58 33 -130 74 -160 90 -48 26 -264 150 -348 200 -16 10 -149 86 -295 170 -145 84 -291 170 -323 191 -80 53 -283 168 -339 193 -119 53 -253 79 -317 62z"/>
 <path d="M4135 8826 c-11 -7 -24 -15 -30 -16 -5 -2 -18 -5 -27 -8 -10 -2 -18 -11 -18 -18 0 -11 13 -8 50 11 28 14 50 30 50 35 0 13 -2 13 -25 -4z"/>
 <path d="M4004 8760 c-6 -6 -20 -12 -31 -14 -25 -5 -63 -28 -63 -38 0 -14 20 -8 26 7 4 8 10 12 15 10 11 -7 69 23 69 35 0 13 -3 13 -16 0z"/>
 <path d="M4585 8710 c-49 -25 -93 -49 -96 -53 -3 -5 -10 -8 -15 -8 -12 1 -118 -52 -122 -61 -2 -5 -8 -8 -13 -8 -4 0 -32 -11 -61 -24 -29 -13 -61 -27 -71 -30 -24 -8 -9 -36 29 -56 15 -8 38 -25 50 -37 13 -13 30 -23 38 -23 8 0 21 -9 29 -20 16 -23 70 -64 109 -83 15 -7 37 -23 50 -35 46 -45 96 -82 111 -82 9 0 24 -11 35 -25 11 -14 25 -25 31 -25 6 0 21 -11 33 -25 12 -14 26 -25 32 -25 6 0 24 -13 39 -30 16 -16 35 -30 42 -30 8 0 19 -9 25 -20 6 -11 16 -20 22 -20 6 0 21 -10 32 -22 36 -37 90 -78 104 -78 6 0 12 -5 12 -10 0 -6 8 -13 18 -17 9 -3 28 -17 42 -30 48 -44 85 -73 95 -73 6 0 16 -9 23 -20 7 -11 18 -20 25 -20 7 0 18 -9 25 -20 7 -11 19 -20 27 -20 8 0 20 -9 27 -20 7 -11 18 -20 25 -20 7 0 17 -9 23 -20 6 -11 17 -20 25 -20 8 0 19 -9 25 -20 6 -11 17 -20 25 -20 8 0 19 -9 25 -20 6 -11 17 -20 24 -20 7 0 27 -15 44 -34 17 -19 40 -37 51 -41 12 -3 21 -10 21 -16 0 -5 19 -21 42 -36 24 -16 55 -40 70 -55 15 -16 31 -28 35 -28 12 -1 63 -48 63 -59 0 -5 10 -13 23 -17 12 -3 34 -20 48 -35 14 -16 29 -29 34 -29 4 0 26 -18 48 -41 22 -22 52 -48 66 -57 14 -9 30 -22 34 -29 4 -7 13 -13 18 -13 6 0 25 -16 43 -35 19 -19 37 -35 42 -35 5 0 20 -13 34 -30 14 -16 30 -30 36 -30 5 0 20 -13 32 -30 13 -16 28 -30 35 -30 7 0 23 -13 37 -30 14 -16 30 -30 36 -30 6 0 23 -11 38 -25 15 -14 31 -25 37 -25 5 0 9 -7 9 -15 0 -8 4 -15 10 -15 23 0 150 -143 150 -169 0 -4 8 -23 17 -42 14 -27 17 -61 17 -174 -1 -144 -5 -187 -29 -290 -8 -33 -17 -89 -20 -125 -4 -35 -8 -67 -11 -71 -2 -4 -6 -40 -9 -80 -3 -41 -8 -96 -11 -124 -2 -27 -6 -84 -9 -125 -2 -41 -7 -124 -11 -185 -9 -131 -9 -842 0 -970 8 -120 14 -207 21 -280 3 -33 8 -85 10 -115 2 -30 9 -91 15 -135 6 -44 13 -102 16 -130 2 -27 7 -66 9 -85 3 -19 7 -48 9 -65 2 -16 7 -46 11 -65 4 -19 10 -57 14 -85 4 -35 11 -50 21 -51 8 0 28 -5 43 -12 38 -16 64 -15 70 2 4 11 20 14 61 11 30 -1 79 3 108 10 52 12 158 63 158 76 0 3 16 23 35 44 76 80 125 233 141 440 3 33 7 348 9 700 2 352 6 694 9 760 3 66 8 161 10 210 17 390 15 370 32 565 15 180 19 234 29 415 4 61 11 137 17 170 17 92 11 199 -13 243 -24 44 -70 87 -121 113 -20 10 -39 23 -42 28 -4 5 -20 12 -37 16 -16 4 -50 22 -75 41 -24 19 -73 48 -108 64 -35 17 -83 45 -107 62 -64 47 -210 138 -221 138 -5 0 -21 11 -36 25 -15 14 -38 28 -51 32 -28 7 -226 126 -257 154 -11 10 -23 19 -27 19 -3 0 -17 10 -30 23 -14 12 -46 35 -73 51 -27 16 -78 49 -114 72 -36 23 -88 54 -117 70 -103 58 -163 96 -163 104 0 8 -97 71 -154 100 -16 8 -41 27 -55 41 -14 14 -53 40 -86 58 -33 18 -73 45 -90 61 -16 15 -60 45 -97 65 -36 19 -68 42 -71 49 -3 7 -26 23 -51 35 -24 12 -46 26 -48 30 -4 11 -103 81 -115 81 -5 0 -26 16 -47 35 -21 19 -44 35 -52 35 -7 0 -29 16 -49 35 -21 19 -46 37 -57 41 -12 3 -30 17 -42 30 -12 12 -43 36 -71 51 l-50 28 -90 -45z"/>
 <path d="M3876 8695 c-10 -8 -23 -12 -27 -9 -5 3 -9 1 -9 -3 0 -5 -10 -13 -22 -18 -13 -6 -28 -20 -34 -32 -6 -13 -14 -20 -17 -16 -15 14 -12 -95 4 -144 11 -34 73 -106 83 -96 3 4 6 1 6 -6 0 -7 5 -9 10 -6 6 3 10 1 10 -6 0 -7 3 -10 6 -7 3 4 19 -8 35 -24 16 -17 29 -27 29 -23 0 4 11 -4 24 -18 13 -14 27 -23 30 -20 3 4 6 1 6 -5 0 -6 9 -14 21 -17 12 -4 30 -14 41 -24 11 -9 29 -24 40 -33 12 -10 24 -18 29 -18 4 0 22 -15 41 -32 18 -18 38 -34 43 -35 13 -3 53 -32 80 -58 12 -11 34 -27 51 -35 16 -8 39 -25 51 -38 12 -13 24 -23 27 -23 19 3 25 -1 31 -19 4 -11 10 -18 15 -15 5 3 13 -3 19 -12 6 -10 11 -14 11 -10 0 4 11 -3 23 -17 13 -14 27 -23 30 -19 4 3 7 1 7 -6 0 -7 4 -10 9 -6 5 3 16 -3 23 -13 7 -10 24 -25 37 -32 14 -7 35 -23 48 -36 14 -14 28 -22 33 -19 5 3 11 -4 15 -15 3 -11 10 -20 15 -20 5 0 25 -14 45 -31 19 -17 35 -28 35 -25 0 4 11 -5 25 -20 14 -15 25 -23 25 -19 0 4 9 -2 20 -15 11 -13 20 -19 20 -15 0 4 11 -4 25 -19 14 -15 25 -24 25 -21 0 3 14 -8 30 -25 17 -17 30 -28 30 -24 0 4 11 -5 25 -20 14 -15 25 -24 25 -20 0 4 10 -5 23 -19 12 -15 28 -27 34 -27 6 0 29 -17 52 -39 22 -21 41 -36 41 -33 0 3 11 -7 24 -21 13 -14 27 -23 30 -20 3 4 6 0 6 -7 0 -7 3 -11 6 -7 4 3 22 -9 40 -29 19 -19 34 -31 34 -27 0 3 14 -9 30 -27 17 -18 30 -30 30 -25 0 4 11 -4 24 -18 13 -14 27 -23 30 -20 3 3 8 -2 12 -11 3 -9 12 -16 19 -16 8 0 17 -9 20 -20 4 -11 11 -18 16 -15 5 4 9 1 9 -6 0 -7 3 -10 6 -6 3 3 17 -6 30 -20 13 -14 24 -23 24 -20 0 3 16 -9 34 -26 19 -18 51 -45 71 -62 21 -16 55 -47 77 -67 23 -21 44 -35 49 -33 4 3 10 -4 14 -15 3 -11 10 -20 15 -20 5 0 22 -14 39 -31 17 -17 31 -27 31 -24 0 4 17 -10 38 -31 22 -22 52 -48 67 -59 39 -28 75 -64 75 -76 0 -6 4 -8 9 -4 5 3 16 -2 25 -10 8 -9 17 -15 18 -13 4 3 44 -30 111 -94 l61 -57 -1 -73 c-1 -40 -2 -75 -3 -78 -4 -14 -10 -50 -14 -100 -10 -102 -18 -153 -27 -177 -5 -14 -7 -28 -5 -32 3 -4 1 -39 -5 -77 -14 -95 -19 -142 -23 -190 -2 -22 -6 -67 -10 -100 -5 -56 -15 -229 -21 -374 -1 -36 -6 -77 -10 -92 -4 -16 -3 -28 2 -28 5 0 8 -15 7 -32 -10 -133 -8 -282 4 -275 4 3 8 94 10 204 5 372 26 653 82 1066 39 285 40 333 10 382 -13 20 -77 80 -144 133 -67 53 -182 148 -256 212 -380 325 -964 793 -1355 1085 -161 121 -606 447 -700 514 -88 63 -113 94 -121 153 -8 70 16 106 112 164 11 7 17 14 14 17 -3 3 -14 -1 -24 -8z"/>
 <path d="M8177 6553 c-8 -13 -20 -338 -12 -331 7 7 11 52 19 213 3 50 8 98 11 108 7 16 -9 25 -18 10z"/>
 <path d="M8157 6203 c-3 -5 -5 -69 -6 -143 -1 -74 -4 -179 -8 -232 -4 -70 -3 -98 6 -98 11 0 12 16 16 275 1 78 5 153 8 167 7 25 -6 48 -16 31z"/>
 <path d="M8144 5408 c6 -297 8 -358 21 -608 10 -177 35 -489 50 -615 35 -287 27 -451 -26 -563 -13 -26 -59 -84 -106 -131 -46 -46 -82 -89 -80 -95 5 -14 187 170 187 188 0 8 7 22 16 30 8 9 12 20 9 26 -3 5 -2 10 4 10 5 0 12 19 16 43 4 23 9 56 12 72 13 66 6 299 -13 410 -2 17 -7 53 -9 80 -2 28 -7 66 -9 85 -3 19 -7 69 -10 110 -3 41 -8 118 -12 170 -3 52 -7 118 -8 145 -1 28 -5 56 -9 63 -5 7 -3 12 3 12 7 0 9 8 4 23 -9 27 -13 113 -18 432 -3 138 -5 250 -6 250 -7 0 -3 146 4 148 12 4 -2 27 -16 27 -7 0 -9 -93 -4 -312z"/>
 <path d="M6234 4734 c4 -14 7 -79 7 -145 1 -65 5 -122 10 -125 5 -3 9 58 9 145 0 132 -2 151 -16 151 -12 0 -15 -6 -10 -26z"/>
 <path d="M6245 4408 c2 -24 4 -43 5 -43 1 0 3 -40 6 -90 4 -108 12 -219 18 -260 7 -48 19 -179 18 -197 0 -10 4 -21 10 -24 8 -5 9 14 4 67 -24 260 -36 412 -36 465 0 70 -9 124 -20 124 -5 0 -7 -19 -5 -42z"/>
 <path d="M6302 3740 c1 -22 5 -40 10 -40 4 0 8 18 8 40 0 22 -4 40 -10 40 -5 0 -9 -18 -8 -40z"/>
 <path d="M6314 3648 c3 -24 9 -63 11 -88 3 -25 7 -56 10 -70 2 -14 9 -61 15 -105 7 -44 14 -89 15 -100 9 -59 26 -128 37 -148 7 -12 11 -25 10 -29 -1 -4 3 -20 10 -35 6 -15 10 -34 9 -40 -1 -7 2 -13 7 -13 4 0 14 -16 22 -35 7 -19 17 -32 21 -29 4 2 11 -5 14 -16 4 -12 18 -25 31 -30 13 -5 24 -14 24 -20 0 -6 4 -8 10 -5 5 3 20 -1 33 -10 13 -8 27 -12 30 -8 4 3 7 2 7 -3 0 -6 10 -10 23 -11 12 -1 32 -3 44 -6 13 -3 25 -2 28 3 3 4 -14 11 -37 15 -62 10 -138 47 -177 86 -36 37 -81 122 -81 154 0 11 -6 29 -14 40 -12 19 -46 196 -61 325 -4 30 -11 77 -16 104 -5 27 -9 64 -9 82 0 19 -5 34 -11 34 -8 0 -10 -14 -5 -42z"/>
 <path d="M7899 3338 c-46 -33 -86 -64 -89 -68 -3 -4 -15 -10 -27 -14 -13 -4 -23 -12 -23 -17 0 -5 -4 -9 -10 -9 -11 0 -160 -89 -160 -96 0 -7 34 0 40 7 3 4 48 32 100 64 52 32 98 62 102 69 4 6 8 7 8 1 0 -5 6 -3 13 6 7 9 32 28 56 44 52 32 87 63 79 70 -2 3 -42 -23 -89 -57z"/>
 <path d="M7498 3094 c-48 -24 -65 -47 -28 -37 11 3 20 9 20 14 0 5 9 9 20 9 11 0 20 5 20 10 0 6 5 9 11 8 6 -2 14 3 16 10 6 16 -4 14 -59 -14z"/>
 <path d="M7398 3044 c-32 -17 -37 -35 -8 -27 11 3 20 9 20 14 0 5 5 8 11 7 6 -2 14 3 16 10 6 16 -5 15 -39 -4z"/>
 <path d="M7263 2987 c-40 -17 -73 -34 -73 -39 0 -10 50 6 113 38 16 8 35 14 43 14 8 0 14 5 14 10 0 15 -19 11 -97 -23z"/>
 <path d="M7143 2943 c-7 -2 -13 -9 -13 -14 0 -13 43 -4 48 9 4 12 -13 15 -35 5z"/>
 <path d="M7027 2905 c-21 -8 -66 -19 -100 -25 -79 -14 -90 -18 -82 -30 4 -6 12 -7 18 -3 7 4 17 8 22 9 6 1 30 5 55 9 52 8 74 13 78 15 4 4 21 7 42 9 11 0 20 8 20 16 0 18 -4 18 -53 0z"/>
 <path d="M6780 2850 c0 -5 9 -9 20 -7 31 5 36 17 7 17 -15 0 -27 -4 -27 -10z"/>
 </g>
<g id="layer106" fill="#ff5964" stroke="none">
 <path d="M5026 9153 c-3 -4 -14 -8 -24 -10 -9 -1 -28 -4 -41 -6 -21 -3 -44 -27 -27 -27 33 0 106 24 106 36 0 16 -3 17 -14 7z"/>
 <path d="M5058 9143 c-8 -10 -6 -13 5 -13 22 0 47 11 47 20 0 13 -40 7 -52 -7z"/>
 <path d="M5124 9149 c-6 -11 -11 -10 61 -16 89 -7 234 -47 327 -89 68 -31 252 -128 398 -211 137 -78 567 -327 597 -346 114 -71 1016 -587 1188 -679 197 -105 305 -177 386 -258 59 -58 119 -149 125 -190 1 -8 7 -48 13 -88 11 -72 8 -140 -19 -402 -18 -179 -22 -300 -12 -300 6 0 11 8 11 18 0 9 2 44 5 77 3 33 8 105 11 160 2 55 7 116 10 135 15 98 18 131 17 200 0 112 -8 185 -23 211 -7 13 -12 28 -11 33 2 5 -4 16 -11 25 -8 9 -29 41 -46 71 -17 30 -31 52 -31 47 0 -4 -22 15 -50 43 -27 28 -50 47 -50 43 0 -5 -4 -3 -8 3 -4 5 -24 20 -44 33 -21 12 -38 27 -38 32 0 6 -4 7 -10 4 -5 -3 -10 -1 -10 5 0 6 -4 8 -10 5 -5 -3 -10 -2 -10 4 0 5 -10 13 -22 17 -12 3 -28 13 -36 20 -7 8 -18 12 -23 9 -5 -4 -9 -1 -9 4 0 6 -7 11 -15 11 -8 0 -15 5 -15 11 0 5 -4 7 -10 4 -5 -3 -10 -1 -10 5 0 6 -4 8 -10 5 -5 -3 -10 -1 -10 4 0 6 -7 11 -15 11 -8 0 -15 5 -15 10 0 6 -3 9 -7 8 -7 -2 -75 29 -113 52 -8 5 -52 30 -97 55 -46 26 -83 51 -83 56 0 6 -4 8 -10 4 -5 -3 -39 12 -76 35 -36 22 -70 40 -75 40 -5 0 -12 7 -15 15 -4 8 -9 13 -14 10 -4 -2 -28 9 -54 25 -26 17 -51 30 -57 30 -5 0 -12 7 -15 15 -4 8 -10 13 -14 10 -4 -3 -13 2 -20 10 -7 8 -19 15 -27 15 -14 0 -75 39 -81 53 -2 4 -8 5 -13 1 -5 -3 -9 0 -9 6 0 6 -4 9 -9 6 -5 -4 -11 -1 -13 4 -2 6 -10 12 -18 13 -22 4 -80 40 -80 50 0 4 -4 5 -10 2 -5 -3 -10 -1 -10 5 0 6 -4 8 -10 5 -5 -3 -10 -2 -10 3 0 5 -27 22 -60 38 -33 15 -60 32 -60 37 0 4 -4 5 -10 2 -5 -3 -10 -1 -10 5 0 6 -4 8 -10 5 -5 -3 -10 -2 -10 3 0 4 -19 19 -42 32 -24 13 -45 27 -48 31 -3 4 -14 9 -25 11 -11 1 -22 6 -25 9 -3 3 -27 19 -55 35 -27 15 -56 34 -63 41 -7 7 -24 16 -38 19 -13 3 -24 9 -24 13 0 4 -16 13 -35 20 -19 7 -35 16 -35 20 0 5 -13 14 -30 21 -16 7 -30 17 -30 22 0 5 -4 6 -10 3 -5 -3 -10 -2 -10 4 0 5 -14 12 -30 16 -17 4 -36 12 -43 18 -28 27 -94 67 -110 67 -10 0 -20 7 -23 15 -4 8 -10 12 -15 9 -5 -3 -19 4 -31 15 -12 12 -28 21 -35 21 -7 0 -13 5 -13 10 0 6 -7 10 -15 10 -18 0 -56 20 -70 38 -5 7 -21 14 -34 17 -14 2 -27 8 -30 13 -5 8 -158 85 -171 87 -3 0 -15 6 -27 13 -13 7 -23 10 -23 7 0 -3 -9 -1 -21 5 -11 7 -33 14 -47 16 -15 3 -30 10 -33 16 -4 6 -14 8 -23 5 -9 -4 -16 -2 -16 3 0 5 -9 7 -20 5 -11 -2 -20 -1 -20 3 0 4 -10 7 -22 8 -13 0 -47 3 -76 6 -29 3 -55 2 -58 -3z"/>
 <path d="M4893 9113 c-13 -2 -23 -11 -23 -18 0 -12 5 -12 25 -3 14 6 25 15 25 20 0 4 -1 7 -2 7 -2 -1 -13 -4 -25 -6z"/>
 <path d="M4675 9081 c-12 -11 -3 -18 18 -14 12 2 39 -5 61 -16 31 -16 42 -18 57 -8 20 13 25 27 9 27 -5 0 -10 -4 -10 -8 0 -5 -7 -9 -15 -9 -8 0 -15 4 -15 9 0 5 -4 6 -10 3 -5 -3 -10 -1 -10 6 0 6 -8 9 -20 6 -11 -3 -20 -1 -20 3 0 9 -37 10 -45 1z"/>
 <path d="M4553 9033 c-3 -7 -8 -11 -12 -9 -10 6 -37 -12 -29 -19 6 -7 78 25 78 35 0 12 -32 7 -37 -7z"/>
 <path d="M4476 8995 c-10 -8 -23 -12 -27 -9 -5 3 -9 1 -9 -4 0 -4 -16 -14 -35 -22 -19 -8 -35 -17 -35 -22 0 -11 -1 -11 68 22 34 16 62 34 62 40 0 13 -1 12 -24 -5z"/>
 <path d="M4330 8921 c-8 -6 -17 -8 -21 -5 -9 5 -23 -15 -16 -22 5 -6 67 23 67 31 0 8 -14 6 -30 -4z"/>
 <path d="M4252 8884 c-12 -8 -22 -12 -22 -8 0 4 -9 -1 -21 -12 -12 -10 -24 -18 -27 -16 -4 2 -8 -1 -10 -7 -2 -6 -1 -11 2 -11 16 0 106 51 106 60 0 13 -2 13 -28 -6z"/>
 <path d="M5078 8853 c-36 -9 -29 -16 147 -135 55 -38 123 -84 150 -103 54 -38 150 -103 297 -203 51 -34 179 -118 283 -186 105 -69 201 -133 215 -143 14 -10 50 -34 80 -53 73 -44 152 -95 222 -142 31 -21 59 -38 62 -38 3 0 29 -16 57 -36 28 -19 58 -38 67 -42 9 -4 49 -28 87 -53 77 -50 112 -72 195 -120 30 -17 78 -46 105 -63 74 -46 84 -52 154 -92 35 -20 83 -49 106 -65 24 -16 46 -29 49 -29 4 0 34 -18 67 -40 33 -22 63 -40 66 -40 3 0 30 -21 60 -46 85 -73 112 -122 142 -254 11 -51 7 -167 -14 -380 -13 -135 -26 -301 -40 -515 -3 -49 -8 -119 -10 -155 -6 -90 -13 -238 -21 -420 -3 -85 -8 -180 -10 -210 -2 -30 -7 -368 -9 -750 -3 -406 -10 -726 -16 -770 -15 -107 -42 -205 -78 -285 -17 -37 -29 -70 -26 -73 6 -6 98 42 142 74 17 13 34 24 37 24 18 0 141 94 202 155 99 98 108 117 109 245 0 58 -5 139 -12 180 -24 149 -42 297 -48 405 -4 61 -8 128 -10 150 -5 56 -16 284 -25 520 -19 510 12 1469 61 1828 5 43 10 118 11 167 1 79 -2 94 -26 134 -29 49 -91 106 -159 146 -99 58 -192 115 -197 120 -7 8 -245 142 -435 245 -82 45 -197 109 -255 142 -58 33 -130 74 -160 90 -48 26 -264 150 -348 200 -16 10 -149 86 -295 170 -145 84 -291 170 -323 191 -80 53 -283 168 -339 193 -119 53 -253 79 -317 62z"/>
 <path d="M4135 8826 c-11 -7 -24 -15 -30 -16 -5 -2 -18 -5 -27 -8 -10 -2 -18 -11 -18 -18 0 -11 13 -8 50 11 28 14 50 30 50 35 0 13 -2 13 -25 -4z"/>
 <path d="M4004 8760 c-6 -6 -20 -12 -31 -14 -25 -5 -63 -28 -63 -38 0 -14 20 -8 26 7 4 8 10 12 15 10 11 -7 69 23 69 35 0 13 -3 13 -16 0z"/>
 <path d="M4588 8706 c-45 -22 -84 -44 -86 -48 -2 -4 -9 -8 -16 -8 -11 0 -263 -124 -275 -135 -5 -6 58 -65 70 -65 4 0 54 -36 199 -145 19 -14 71 -53 115 -85 97 -72 187 -140 264 -200 31 -25 70 -54 85 -65 16 -11 57 -42 91 -70 35 -27 75 -59 91 -70 15 -11 32 -25 38 -30 6 -6 45 -36 86 -67 41 -32 81 -63 89 -69 7 -7 41 -33 75 -60 33 -27 68 -54 76 -62 8 -7 58 -46 110 -87 52 -41 113 -90 135 -110 23 -19 60 -51 83 -70 24 -19 60 -50 80 -67 20 -18 40 -33 45 -33 4 0 7 -7 7 -15 0 -8 6 -15 14 -15 7 0 24 -10 38 -22 14 -13 42 -36 62 -53 56 -45 102 -83 186 -155 42 -36 82 -71 90 -77 8 -7 27 -23 42 -35 14 -13 46 -39 70 -58 59 -48 126 -118 153 -160 64 -100 77 -339 31 -535 -8 -33 -13 -62 -11 -65 2 -3 -3 -32 -11 -65 -7 -33 -14 -78 -14 -101 0 -22 -3 -43 -6 -46 -3 -3 -7 -41 -10 -84 -2 -44 -6 -106 -8 -139 -22 -296 -27 -448 -27 -730 0 -276 6 -456 21 -615 5 -58 12 -136 15 -175 5 -67 11 -125 20 -210 2 -22 9 -76 15 -120 7 -44 13 -91 14 -105 2 -14 7 -45 11 -70 5 -25 8 -49 6 -54 -1 -5 3 -31 9 -58 11 -44 16 -50 58 -68 27 -12 48 -17 51 -11 16 25 99 36 130 17 5 -4 12 -2 16 4 3 5 17 9 30 8 13 -1 34 3 47 9 13 5 36 17 52 24 86 40 177 182 215 334 31 122 32 139 36 463 2 166 7 307 10 312 3 5 1 11 -3 14 -17 10 2 993 23 1226 3 30 7 104 10 163 7 175 17 320 25 347 1 3 1 32 2 65 0 33 2 64 5 68 3 4 6 51 9 105 2 53 6 108 8 122 3 14 8 61 12 105 10 113 9 109 17 121 3 6 4 14 0 17 -3 4 -7 25 -9 47 -7 74 -37 115 -128 170 -32 19 -84 52 -116 73 -33 20 -63 37 -68 37 -4 0 -50 27 -102 61 -51 33 -103 64 -116 69 -13 5 -47 25 -76 43 -29 19 -114 72 -188 118 -74 46 -156 98 -182 114 -26 17 -90 57 -143 90 -143 89 -284 180 -335 215 -25 17 -74 49 -110 72 -75 47 -137 88 -306 204 -67 45 -135 89 -150 97 -16 9 -38 24 -49 34 -18 16 -72 54 -205 143 -21 14 -48 33 -61 43 -34 26 -115 82 -177 123 -30 20 -61 42 -70 49 -10 8 -47 34 -84 58 l-66 44 -84 -41z"/>
 <path d="M3876 8695 c-10 -8 -23 -12 -27 -9 -5 3 -9 1 -9 -3 0 -5 -10 -13 -22 -18 -13 -6 -28 -20 -34 -32 -6 -13 -14 -20 -17 -16 -15 14 -12 -95 4 -144 11 -34 73 -106 83 -96 3 4 6 1 6 -6 0 -7 5 -9 10 -6 6 3 10 1 10 -6 0 -7 3 -10 6 -7 3 4 19 -8 35 -24 16 -17 29 -27 29 -23 0 4 11 -4 24 -18 13 -14 27 -23 30 -20 3 4 6 1 6 -5 0 -6 9 -14 21 -17 12 -4 30 -14 41 -24 11 -9 29 -24 40 -33 12 -10 24 -18 29 -18 4 0 22 -15 41 -32 18 -18 38 -34 43 -35 13 -3 53 -32 80 -58 12 -11 34 -27 51 -35 16 -8 39 -25 51 -38 12 -13 24 -23 27 -23 19 3 25 -1 31 -19 4 -11 10 -18 15 -15 5 3 13 -3 19 -12 6 -10 11 -14 11 -10 0 4 11 -3 23 -17 13 -14 27 -23 30 -19 4 3 7 1 7 -6 0 -7 4 -10 9 -6 5 3 16 -3 23 -13 7 -10 24 -25 37 -32 14 -7 35 -23 48 -36 14 -14 28 -22 33 -19 5 3 11 -4 15 -15 3 -11 10 -20 15 -20 5 0 25 -14 45 -31 19 -17 35 -28 35 -25 0 4 11 -5 25 -20 14 -15 25 -23 25 -19 0 4 9 -2 20 -15 11 -13 20 -19 20 -15 0 4 11 -4 25 -19 14 -15 25 -24 25 -21 0 3 14 -8 30 -25 17 -17 30 -28 30 -24 0 4 11 -5 25 -20 14 -15 25 -24 25 -20 0 4 10 -5 23 -19 12 -15 28 -27 34 -27 6 0 29 -17 52 -39 22 -21 41 -36 41 -33 0 3 11 -7 24 -21 13 -14 27 -23 30 -20 3 4 6 0 6 -7 0 -7 3 -11 6 -7 4 3 22 -9 40 -29 19 -19 34 -31 34 -27 0 3 14 -9 30 -27 17 -18 30 -30 30 -25 0 4 11 -4 24 -18 13 -14 27 -23 30 -20 3 3 8 -2 12 -11 3 -9 12 -16 19 -16 8 0 17 -9 20 -20 4 -11 11 -18 16 -15 5 4 9 1 9 -6 0 -7 3 -10 6 -6 3 3 17 -6 30 -20 13 -14 24 -23 24 -20 0 3 16 -9 34 -26 19 -18 51 -45 71 -62 21 -16 55 -47 77 -67 23 -21 44 -35 49 -33 4 3 10 -4 14 -15 3 -11 10 -20 15 -20 5 0 22 -14 39 -31 17 -17 31 -27 31 -24 0 4 17 -10 38 -31 22 -22 52 -48 67 -59 39 -28 75 -64 75 -76 0 -6 4 -8 9 -4 5 3 16 -2 25 -10 8 -9 17 -15 18 -13 4 3 44 -30 111 -94 l61 -57 -1 -73 c-1 -40 -2 -75 -3 -78 -4 -14 -10 -50 -14 -100 -10 -102 -18 -153 -27 -177 -5 -14 -7 -28 -5 -32 3 -4 1 -39 -5 -77 -14 -95 -19 -142 -23 -190 -2 -22 -6 -67 -10 -100 -5 -56 -15 -229 -21 -374 -1 -36 -6 -77 -10 -92 -4 -16 -3 -28 2 -28 5 0 8 -15 7 -32 -10 -133 -8 -282 4 -275 4 3 8 94 10 204 5 372 26 653 82 1066 39 285 40 333 10 382 -13 20 -77 80 -144 133 -67 53 -182 148 -256 212 -380 325 -964 793 -1355 1085 -161 121 -606 447 -700 514 -88 63 -113 94 -121 153 -8 70 16 106 112 164 11 7 17 14 14 17 -3 3 -14 -1 -24 -8z"/>
 <path d="M8177 6553 c-8 -13 -20 -338 -12 -331 7 7 11 52 19 213 3 50 8 98 11 108 7 16 -9 25 -18 10z"/>
 <path d="M8157 6203 c-3 -5 -5 -69 -6 -143 -1 -74 -4 -179 -8 -232 -4 -70 -3 -98 6 -98 11 0 12 16 16 275 1 78 5 153 8 167 7 25 -6 48 -16 31z"/>
 <path d="M8144 5408 c6 -297 8 -358 21 -608 10 -177 35 -489 50 -615 35 -287 27 -451 -26 -563 -13 -26 -59 -84 -106 -131 -46 -46 -82 -89 -80 -95 5 -14 187 170 187 188 0 8 7 22 16 30 8 9 12 20 9 26 -3 5 -2 10 4 10 5 0 12 19 16 43 4 23 9 56 12 72 13 66 6 299 -13 410 -2 17 -7 53 -9 80 -2 28 -7 66 -9 85 -3 19 -7 69 -10 110 -3 41 -8 118 -12 170 -3 52 -7 118 -8 145 -1 28 -5 56 -9 63 -5 7 -3 12 3 12 7 0 9 8 4 23 -9 27 -13 113 -18 432 -3 138 -5 250 -6 250 -7 0 -3 146 4 148 12 4 -2 27 -16 27 -7 0 -9 -93 -4 -312z"/>
 <path d="M6234 4734 c4 -14 7 -79 7 -145 1 -65 5 -122 10 -125 5 -3 9 58 9 145 0 132 -2 151 -16 151 -12 0 -15 -6 -10 -26z"/>
 <path d="M6245 4408 c2 -24 4 -43 5 -43 1 0 3 -40 6 -90 4 -108 12 -219 18 -260 7 -48 19 -179 18 -197 0 -10 4 -21 10 -24 8 -5 9 14 4 67 -24 260 -36 412 -36 465 0 70 -9 124 -20 124 -5 0 -7 -19 -5 -42z"/>
 <path d="M6302 3740 c1 -22 5 -40 10 -40 4 0 8 18 8 40 0 22 -4 40 -10 40 -5 0 -9 -18 -8 -40z"/>
 <path d="M6314 3648 c3 -24 9 -63 11 -88 3 -25 7 -56 10 -70 2 -14 9 -61 15 -105 7 -44 14 -89 15 -100 9 -59 26 -128 37 -148 7 -12 11 -25 10 -29 -1 -4 3 -20 10 -35 6 -15 10 -34 9 -40 -1 -7 2 -13 7 -13 4 0 14 -16 22 -35 7 -19 17 -32 21 -29 4 2 11 -5 14 -16 4 -12 18 -25 31 -30 13 -5 24 -14 24 -20 0 -6 4 -8 10 -5 5 3 20 -1 33 -10 13 -8 27 -12 30 -8 4 3 7 2 7 -3 0 -6 10 -10 23 -11 12 -1 32 -3 44 -6 13 -3 25 -2 28 3 3 4 -14 11 -37 15 -62 10 -138 47 -177 86 -36 37 -81 122 -81 154 0 11 -6 29 -14 40 -12 19 -46 196 -61 325 -4 30 -11 77 -16 104 -5 27 -9 64 -9 82 0 19 -5 34 -11 34 -8 0 -10 -14 -5 -42z"/>
 <path d="M7899 3338 c-46 -33 -86 -64 -89 -68 -3 -4 -15 -10 -27 -14 -13 -4 -23 -12 -23 -17 0 -5 -4 -9 -10 -9 -11 0 -160 -89 -160 -96 0 -7 34 0 40 7 3 4 48 32 100 64 52 32 98 62 102 69 4 6 8 7 8 1 0 -5 6 -3 13 6 7 9 32 28 56 44 52 32 87 63 79 70 -2 3 -42 -23 -89 -57z"/>
 <path d="M7498 3094 c-48 -24 -65 -47 -28 -37 11 3 20 9 20 14 0 5 9 9 20 9 11 0 20 5 20 10 0 6 5 9 11 8 6 -2 14 3 16 10 6 16 -4 14 -59 -14z"/>
 <path d="M7398 3044 c-32 -17 -37 -35 -8 -27 11 3 20 9 20 14 0 5 5 8 11 7 6 -2 14 3 16 10 6 16 -5 15 -39 -4z"/>
 <path d="M7263 2987 c-40 -17 -73 -34 -73 -39 0 -10 50 6 113 38 16 8 35 14 43 14 8 0 14 5 14 10 0 15 -19 11 -97 -23z"/>
 <path d="M7143 2943 c-7 -2 -13 -9 -13 -14 0 -13 43 -4 48 9 4 12 -13 15 -35 5z"/>
 <path d="M7027 2905 c-21 -8 -66 -19 -100 -25 -79 -14 -90 -18 -82 -30 4 -6 12 -7 18 -3 7 4 17 8 22 9 6 1 30 5 55 9 52 8 74 13 78 15 4 4 21 7 42 9 11 0 20 8 20 16 0 18 -4 18 -53 0z"/>
 <path d="M6780 2850 c0 -5 9 -9 20 -7 31 5 36 17 7 17 -15 0 -27 -4 -27 -10z"/>
 </g>
<g id="layer107" fill="#6bf178" stroke="none">
 <path d="M5026 9153 c-3 -4 -14 -8 -24 -10 -9 -1 -28 -4 -41 -6 -21 -3 -44 -27 -27 -27 33 0 106 24 106 36 0 16 -3 17 -14 7z"/>
 <path d="M5058 9143 c-8 -10 -6 -13 5 -13 22 0 47 11 47 20 0 13 -40 7 -52 -7z"/>
 <path d="M5124 9149 c-6 -11 -11 -10 61 -16 89 -7 234 -47 327 -89 68 -31 252 -128 398 -211 137 -78 567 -327 597 -346 114 -71 1016 -587 1188 -679 197 -105 305 -177 386 -258 59 -58 119 -149 125 -190 1 -8 7 -48 13 -88 11 -72 8 -140 -19 -402 -18 -179 -22 -300 -12 -300 6 0 11 8 11 18 0 9 2 44 5 77 3 33 8 105 11 160 2 55 7 116 10 135 15 98 18 131 17 200 0 112 -8 185 -23 211 -7 13 -12 28 -11 33 2 5 -4 16 -11 25 -8 9 -29 41 -46 71 -17 30 -31 52 -31 47 0 -4 -22 15 -50 43 -27 28 -50 47 -50 43 0 -5 -4 -3 -8 3 -4 5 -24 20 -44 33 -21 12 -38 27 -38 32 0 6 -4 7 -10 4 -5 -3 -10 -1 -10 5 0 6 -4 8 -10 5 -5 -3 -10 -2 -10 4 0 5 -10 13 -22 17 -12 3 -28 13 -36 20 -7 8 -18 12 -23 9 -5 -4 -9 -1 -9 4 0 6 -7 11 -15 11 -8 0 -15 5 -15 11 0 5 -4 7 -10 4 -5 -3 -10 -1 -10 5 0 6 -4 8 -10 5 -5 -3 -10 -1 -10 4 0 6 -7 11 -15 11 -8 0 -15 5 -15 10 0 6 -3 9 -7 8 -7 -2 -75 29 -113 52 -8 5 -52 30 -97 55 -46 26 -83 51 -83 56 0 6 -4 8 -10 4 -5 -3 -39 12 -76 35 -36 22 -70 40 -75 40 -5 0 -12 7 -15 15 -4 8 -9 13 -14 10 -4 -2 -28 9 -54 25 -26 17 -51 30 -57 30 -5 0 -12 7 -15 15 -4 8 -10 13 -14 10 -4 -3 -13 2 -20 10 -7 8 -19 15 -27 15 -14 0 -75 39 -81 53 -2 4 -8 5 -13 1 -5 -3 -9 0 -9 6 0 6 -4 9 -9 6 -5 -4 -11 -1 -13 4 -2 6 -10 12 -18 13 -22 4 -80 40 -80 50 0 4 -4 5 -10 2 -5 -3 -10 -1 -10 5 0 6 -4 8 -10 5 -5 -3 -10 -2 -10 3 0 5 -27 22 -60 38 -33 15 -60 32 -60 37 0 4 -4 5 -10 2 -5 -3 -10 -1 -10 5 0 6 -4 8 -10 5 -5 -3 -10 -2 -10 3 0 4 -19 19 -42 32 -24 13 -45 27 -48 31 -3 4 -14 9 -25 11 -11 1 -22 6 -25 9 -3 3 -27 19 -55 35 -27 15 -56 34 -63 41 -7 7 -24 16 -38 19 -13 3 -24 9 -24 13 0 4 -16 13 -35 20 -19 7 -35 16 -35 20 0 5 -13 14 -30 21 -16 7 -30 17 -30 22 0 5 -4 6 -10 3 -5 -3 -10 -2 -10 4 0 5 -14 12 -30 16 -17 4 -36 12 -43 18 -28 27 -94 67 -110 67 -10 0 -20 7 -23 15 -4 8 -10 12 -15 9 -5 -3 -19 4 -31 15 -12 12 -28 21 -35 21 -7 0 -13 5 -13 10 0 6 -7 10 -15 10 -18 0 -56 20 -70 38 -5 7 -21 14 -34 17 -14 2 -27 8 -30 13 -5 8 -158 85 -171 87 -3 0 -15 6 -27 13 -13 7 -23 10 -23 7 0 -3 -9 -1 -21 5 -11 7 -33 14 -47 16 -15 3 -30 10 -33 16 -4 6 -14 8 -23 5 -9 -4 -16 -2 -16 3 0 5 -9 7 -20 5 -11 -2 -20 -1 -20 3 0 4 -10 7 -22 8 -13 0 -47 3 -76 6 -29 3 -55 2 -58 -3z"/>
 <path d="M4893 9113 c-13 -2 -23 -11 -23 -18 0 -12 5 -12 25 -3 14 6 25 15 25 20 0 4 -1 7 -2 7 -2 -1 -13 -4 -25 -6z"/>
 <path d="M4675 9081 c-12 -11 -3 -18 18 -14 12 2 39 -5 61 -16 31 -16 42 -18 57 -8 20 13 25 27 9 27 -5 0 -10 -4 -10 -8 0 -5 -7 -9 -15 -9 -8 0 -15 4 -15 9 0 5 -4 6 -10 3 -5 -3 -10 -1 -10 6 0 6 -8 9 -20 6 -11 -3 -20 -1 -20 3 0 9 -37 10 -45 1z"/>
 <path d="M4553 9033 c-3 -7 -8 -11 -12 -9 -10 6 -37 -12 -29 -19 6 -7 78 25 78 35 0 12 -32 7 -37 -7z"/>
 <path d="M4476 8995 c-10 -8 -23 -12 -27 -9 -5 3 -9 1 -9 -4 0 -4 -16 -14 -35 -22 -19 -8 -35 -17 -35 -22 0 -11 -1 -11 68 22 34 16 62 34 62 40 0 13 -1 12 -24 -5z"/>
 <path d="M4330 8921 c-8 -6 -17 -8 -21 -5 -9 5 -23 -15 -16 -22 5 -6 67 23 67 31 0 8 -14 6 -30 -4z"/>
 <path d="M4252 8884 c-12 -8 -22 -12 -22 -8 0 4 -9 -1 -21 -12 -12 -10 -24 -18 -27 -16 -4 2 -8 -1 -10 -7 -2 -6 -1 -11 2 -11 16 0 106 51 106 60 0 13 -2 13 -28 -6z"/>
 <path d="M5078 8853 c-36 -9 -29 -16 147 -135 55 -38 123 -84 150 -103 54 -38 150 -103 297 -203 51 -34 179 -118 283 -186 105 -69 201 -133 215 -143 14 -10 50 -34 80 -53 73 -44 152 -95 222 -142 31 -21 59 -38 62 -38 3 0 29 -16 57 -36 28 -19 58 -38 67 -42 9 -4 49 -28 87 -53 77 -50 112 -72 195 -120 30 -17 78 -46 105 -63 74 -46 84 -52 154 -92 35 -20 83 -49 106 -65 24 -16 46 -29 49 -29 4 0 34 -18 67 -40 33 -22 63 -40 66 -40 3 0 30 -21 60 -46 85 -73 112 -122 142 -254 11 -51 7 -167 -14 -380 -13 -135 -26 -301 -40 -515 -3 -49 -8 -119 -10 -155 -6 -90 -13 -238 -21 -420 -3 -85 -8 -180 -10 -210 -2 -30 -7 -368 -9 -750 -3 -406 -10 -726 -16 -770 -15 -107 -42 -205 -78 -285 -17 -37 -29 -70 -26 -73 6 -6 98 42 142 74 17 13 34 24 37 24 18 0 141 94 202 155 99 98 108 117 109 245 0 58 -5 139 -12 180 -24 149 -42 297 -48 405 -4 61 -8 128 -10 150 -5 56 -16 284 -25 520 -19 510 12 1469 61 1828 5 43 10 118 11 167 1 79 -2 94 -26 134 -29 49 -91 106 -159 146 -99 58 -192 115 -197 120 -7 8 -245 142 -435 245 -82 45 -197 109 -255 142 -58 33 -130 74 -160 90 -48 26 -264 150 -348 200 -16 10 -149 86 -295 170 -145 84 -291 170 -323 191 -80 53 -283 168 -339 193 -119 53 -253 79 -317 62z"/>
 <path d="M4135 8826 c-11 -7 -24 -15 -30 -16 -5 -2 -18 -5 -27 -8 -10 -2 -18 -11 -18 -18 0 -11 13 -8 50 11 28 14 50 30 50 35 0 13 -2 13 -25 -4z"/>
 <path d="M4004 8760 c-6 -6 -20 -12 -31 -14 -25 -5 -63 -28 -63 -38 0 -14 20 -8 26 7 4 8 10 12 15 10 11 -7 69 23 69 35 0 13 -3 13 -16 0z"/>
 <path d="M3876 8695 c-10 -8 -23 -12 -27 -9 -5 3 -9 1 -9 -3 0 -5 -10 -13 -22 -18 -13 -6 -28 -20 -34 -32 -6 -13 -14 -20 -17 -16 -15 14 -12 -95 4 -144 11 -34 73 -106 83 -96 3 4 6 1 6 -6 0 -7 5 -9 10 -6 6 3 10 1 10 -6 0 -7 3 -10 6 -7 3 4 19 -8 35 -24 16 -17 29 -27 29 -23 0 4 11 -4 24 -18 13 -14 27 -23 30 -20 3 4 6 1 6 -5 0 -6 9 -14 21 -17 12 -4 30 -14 41 -24 11 -9 29 -24 40 -33 12 -10 24 -18 29 -18 4 0 22 -15 41 -32 18 -18 38 -34 43 -35 13 -3 53 -32 80 -58 12 -11 34 -27 51 -35 16 -8 39 -25 51 -38 12 -13 24 -23 27 -23 19 3 25 -1 31 -19 4 -11 10 -18 15 -15 5 3 13 -3 19 -12 6 -10 11 -14 11 -10 0 4 11 -3 23 -17 13 -14 27 -23 30 -19 4 3 7 1 7 -6 0 -7 4 -10 9 -6 5 3 16 -3 23 -13 7 -10 24 -25 37 -32 14 -7 35 -23 48 -36 14 -14 28 -22 33 -19 5 3 11 -4 15 -15 3 -11 10 -20 15 -20 5 0 25 -14 45 -31 19 -17 35 -28 35 -25 0 4 11 -5 25 -20 14 -15 25 -23 25 -19 0 4 9 -2 20 -15 11 -13 20 -19 20 -15 0 4 11 -4 25 -19 14 -15 25 -24 25 -21 0 3 14 -8 30 -25 17 -17 30 -28 30 -24 0 4 11 -5 25 -20 14 -15 25 -24 25 -20 0 4 10 -5 23 -19 12 -15 28 -27 34 -27 6 0 29 -17 52 -39 22 -21 41 -36 41 -33 0 3 11 -7 24 -21 13 -14 27 -23 30 -20 3 4 6 0 6 -7 0 -7 3 -11 6 -7 4 3 22 -9 40 -29 19 -19 34 -31 34 -27 0 3 14 -9 30 -27 17 -18 30 -30 30 -25 0 4 11 -4 24 -18 13 -14 27 -23 30 -20 3 3 8 -2 12 -11 3 -9 12 -16 19 -16 8 0 17 -9 20 -20 4 -11 11 -18 16 -15 5 4 9 1 9 -6 0 -7 3 -10 6 -6 3 3 17 -6 30 -20 13 -14 24 -23 24 -20 0 3 16 -9 34 -26 19 -18 51 -45 71 -62 21 -16 55 -47 77 -67 23 -21 44 -35 49 -33 4 3 10 -4 14 -15 3 -11 10 -20 15 -20 5 0 22 -14 39 -31 17 -17 31 -27 31 -24 0 4 17 -10 38 -31 22 -22 52 -48 67 -59 39 -28 75 -64 75 -76 0 -6 4 -8 9 -4 5 3 16 -2 25 -10 8 -9 17 -15 18 -13 4 3 44 -30 111 -94 l61 -57 -1 -73 c-1 -40 -2 -75 -3 -78 -4 -14 -10 -50 -14 -100 -10 -102 -18 -153 -27 -177 -5 -14 -7 -28 -5 -32 3 -4 1 -39 -5 -77 -14 -95 -19 -142 -23 -190 -2 -22 -6 -67 -10 -100 -5 -56 -15 -229 -21 -374 -1 -36 -6 -77 -10 -92 -4 -16 -3 -28 2 -28 5 0 8 -15 7 -32 -10 -133 -8 -282 4 -275 4 3 8 94 10 204 5 372 26 653 82 1066 39 285 40 333 10 382 -13 20 -77 80 -144 133 -67 53 -182 148 -256 212 -380 325 -964 793 -1355 1085 -161 121 -606 447 -700 514 -88 63 -113 94 -121 153 -8 70 16 106 112 164 11 7 17 14 14 17 -3 3 -14 -1 -24 -8z"/>
 <path d="M8177 6553 c-8 -13 -20 -338 -12 -331 7 7 11 52 19 213 3 50 8 98 11 108 7 16 -9 25 -18 10z"/>
 <path d="M8157 6203 c-3 -5 -5 -69 -6 -143 -1 -74 -4 -179 -8 -232 -4 -70 -3 -98 6 -98 11 0 12 16 16 275 1 78 5 153 8 167 7 25 -6 48 -16 31z"/>
 <path d="M8144 5408 c6 -297 8 -358 21 -608 10 -177 35 -489 50 -615 35 -287 27 -451 -26 -563 -13 -26 -59 -84 -106 -131 -46 -46 -82 -89 -80 -95 5 -14 187 170 187 188 0 8 7 22 16 30 8 9 12 20 9 26 -3 5 -2 10 4 10 5 0 12 19 16 43 4 23 9 56 12 72 13 66 6 299 -13 410 -2 17 -7 53 -9 80 -2 28 -7 66 -9 85 -3 19 -7 69 -10 110 -3 41 -8 118 -12 170 -3 52 -7 118 -8 145 -1 28 -5 56 -9 63 -5 7 -3 12 3 12 7 0 9 8 4 23 -9 27 -13 113 -18 432 -3 138 -5 250 -6 250 -7 0 -3 146 4 148 12 4 -2 27 -16 27 -7 0 -9 -93 -4 -312z"/>
 <path d="M6234 4734 c4 -14 7 -79 7 -145 1 -65 5 -122 10 -125 5 -3 9 58 9 145 0 132 -2 151 -16 151 -12 0 -15 -6 -10 -26z"/>
 <path d="M6245 4408 c2 -24 4 -43 5 -43 1 0 3 -40 6 -90 4 -108 12 -219 18 -260 7 -48 19 -179 18 -197 0 -10 4 -21 10 -24 8 -5 9 14 4 67 -24 260 -36 412 -36 465 0 70 -9 124 -20 124 -5 0 -7 -19 -5 -42z"/>
 <path d="M6302 3740 c1 -22 5 -40 10 -40 4 0 8 18 8 40 0 22 -4 40 -10 40 -5 0 -9 -18 -8 -40z"/>
 <path d="M6314 3648 c3 -24 9 -63 11 -88 3 -25 7 -56 10 -70 2 -14 9 -61 15 -105 7 -44 14 -89 15 -100 9 -59 26 -128 37 -148 7 -12 11 -25 10 -29 -1 -4 3 -20 10 -35 6 -15 10 -34 9 -40 -1 -7 2 -13 7 -13 4 0 14 -16 22 -35 7 -19 17 -32 21 -29 4 2 11 -5 14 -16 4 -12 18 -25 31 -30 13 -5 24 -14 24 -20 0 -6 4 -8 10 -5 5 3 20 -1 33 -10 13 -8 27 -12 30 -8 4 3 7 2 7 -3 0 -6 10 -10 23 -11 12 -1 32 -3 44 -6 13 -3 25 -2 28 3 3 4 -14 11 -37 15 -62 10 -138 47 -177 86 -36 37 -81 122 -81 154 0 11 -6 29 -14 40 -12 19 -46 196 -61 325 -4 30 -11 77 -16 104 -5 27 -9 64 -9 82 0 19 -5 34 -11 34 -8 0 -10 -14 -5 -42z"/>
 <path d="M7899 3338 c-46 -33 -86 -64 -89 -68 -3 -4 -15 -10 -27 -14 -13 -4 -23 -12 -23 -17 0 -5 -4 -9 -10 -9 -11 0 -160 -89 -160 -96 0 -7 34 0 40 7 3 4 48 32 100 64 52 32 98 62 102 69 4 6 8 7 8 1 0 -5 6 -3 13 6 7 9 32 28 56 44 52 32 87 63 79 70 -2 3 -42 -23 -89 -57z"/>
 <path d="M7498 3094 c-48 -24 -65 -47 -28 -37 11 3 20 9 20 14 0 5 9 9 20 9 11 0 20 5 20 10 0 6 5 9 11 8 6 -2 14 3 16 10 6 16 -4 14 -59 -14z"/>
 <path d="M7398 3044 c-32 -17 -37 -35 -8 -27 11 3 20 9 20 14 0 5 5 8 11 7 6 -2 14 3 16 10 6 16 -5 15 -39 -4z"/>
 <path d="M7263 2987 c-40 -17 -73 -34 -73 -39 0 -10 50 6 113 38 16 8 35 14 43 14 8 0 14 5 14 10 0 15 -19 11 -97 -23z"/>
 <path d="M7143 2943 c-7 -2 -13 -9 -13 -14 0 -13 43 -4 48 9 4 12 -13 15 -35 5z"/>
 <path d="M7027 2905 c-21 -8 -66 -19 -100 -25 -79 -14 -90 -18 -82 -30 4 -6 12 -7 18 -3 7 4 17 8 22 9 6 1 30 5 55 9 52 8 74 13 78 15 4 4 21 7 42 9 11 0 20 8 20 16 0 18 -4 18 -53 0z"/>
 <path d="M6780 2850 c0 -5 9 -9 20 -7 31 5 36 17 7 17 -15 0 -27 -4 -27 -10z"/>
 </g>
<g id="layer108" fill="#a1a2a2" stroke="none">
 <path d="M5026 9153 c-3 -4 -14 -8 -24 -10 -9 -1 -28 -4 -41 -6 -21 -3 -44 -27 -27 -27 33 0 106 24 106 36 0 16 -3 17 -14 7z"/>
 <path d="M5058 9143 c-8 -10 -6 -13 5 -13 22 0 47 11 47 20 0 13 -40 7 -52 -7z"/>
 <path d="M5124 9149 c-6 -11 -11 -10 61 -16 89 -7 234 -47 327 -89 68 -31 252 -128 398 -211 137 -78 567 -327 597 -346 114 -71 1016 -587 1188 -679 197 -105 305 -177 386 -258 59 -58 119 -149 125 -190 1 -8 7 -48 13 -88 11 -72 8 -140 -19 -402 -18 -179 -22 -300 -12 -300 6 0 11 8 11 18 0 9 2 44 5 77 3 33 8 105 11 160 2 55 7 116 10 135 15 98 18 131 17 200 0 112 -8 185 -23 211 -7 13 -12 28 -11 33 2 5 -4 16 -11 25 -8 9 -29 41 -46 71 -17 30 -31 52 -31 47 0 -4 -22 15 -50 43 -27 28 -50 47 -50 43 0 -5 -4 -3 -8 3 -4 5 -24 20 -44 33 -21 12 -38 27 -38 32 0 6 -4 7 -10 4 -5 -3 -10 -1 -10 5 0 6 -4 8 -10 5 -5 -3 -10 -2 -10 4 0 5 -10 13 -22 17 -12 3 -28 13 -36 20 -7 8 -18 12 -23 9 -5 -4 -9 -1 -9 4 0 6 -7 11 -15 11 -8 0 -15 5 -15 11 0 5 -4 7 -10 4 -5 -3 -10 -1 -10 5 0 6 -4 8 -10 5 -5 -3 -10 -1 -10 4 0 6 -7 11 -15 11 -8 0 -15 5 -15 10 0 6 -3 9 -7 8 -7 -2 -75 29 -113 52 -8 5 -52 30 -97 55 -46 26 -83 51 -83 56 0 6 -4 8 -10 4 -5 -3 -39 12 -76 35 -36 22 -70 40 -75 40 -5 0 -12 7 -15 15 -4 8 -9 13 -14 10 -4 -2 -28 9 -54 25 -26 17 -51 30 -57 30 -5 0 -12 7 -15 15 -4 8 -10 13 -14 10 -4 -3 -13 2 -20 10 -7 8 -19 15 -27 15 -14 0 -75 39 -81 53 -2 4 -8 5 -13 1 -5 -3 -9 0 -9 6 0 6 -4 9 -9 6 -5 -4 -11 -1 -13 4 -2 6 -10 12 -18 13 -22 4 -80 40 -80 50 0 4 -4 5 -10 2 -5 -3 -10 -1 -10 5 0 6 -4 8 -10 5 -5 -3 -10 -2 -10 3 0 5 -27 22 -60 38 -33 15 -60 32 -60 37 0 4 -4 5 -10 2 -5 -3 -10 -1 -10 5 0 6 -4 8 -10 5 -5 -3 -10 -2 -10 3 0 4 -19 19 -42 32 -24 13 -45 27 -48 31 -3 4 -14 9 -25 11 -11 1 -22 6 -25 9 -3 3 -27 19 -55 35 -27 15 -56 34 -63 41 -7 7 -24 16 -38 19 -13 3 -24 9 -24 13 0 4 -16 13 -35 20 -19 7 -35 16 -35 20 0 5 -13 14 -30 21 -16 7 -30 17 -30 22 0 5 -4 6 -10 3 -5 -3 -10 -2 -10 4 0 5 -14 12 -30 16 -17 4 -36 12 -43 18 -28 27 -94 67 -110 67 -10 0 -20 7 -23 15 -4 8 -10 12 -15 9 -5 -3 -19 4 -31 15 -12 12 -28 21 -35 21 -7 0 -13 5 -13 10 0 6 -7 10 -15 10 -18 0 -56 20 -70 38 -5 7 -21 14 -34 17 -14 2 -27 8 -30 13 -5 8 -158 85 -171 87 -3 0 -15 6 -27 13 -13 7 -23 10 -23 7 0 -3 -9 -1 -21 5 -11 7 -33 14 -47 16 -15 3 -30 10 -33 16 -4 6 -14 8 -23 5 -9 -4 -16 -2 -16 3 0 5 -9 7 -20 5 -11 -2 -20 -1 -20 3 0 4 -10 7 -22 8 -13 0 -47 3 -76 6 -29 3 -55 2 -58 -3z"/>
 <path d="M4893 9113 c-13 -2 -23 -11 -23 -18 0 -12 5 -12 25 -3 14 6 25 15 25 20 0 4 -1 7 -2 7 -2 -1 -13 -4 -25 -6z"/>
 <path d="M4675 9081 c-12 -11 -3 -18 18 -14 12 2 39 -5 61 -16 31 -16 42 -18 57 -8 20 13 25 27 9 27 -5 0 -10 -4 -10 -8 0 -5 -7 -9 -15 -9 -8 0 -15 4 -15 9 0 5 -4 6 -10 3 -5 -3 -10 -1 -10 6 0 6 -8 9 -20 6 -11 -3 -20 -1 -20 3 0 9 -37 10 -45 1z"/>
 <path d="M4553 9033 c-3 -7 -8 -11 -12 -9 -10 6 -37 -12 -29 -19 6 -7 78 25 78 35 0 12 -32 7 -37 -7z"/>
 <path d="M4476 8995 c-10 -8 -23 -12 -27 -9 -5 3 -9 1 -9 -4 0 -4 -16 -14 -35 -22 -19 -8 -35 -17 -35 -22 0 -11 -1 -11 68 22 34 16 62 34 62 40 0 13 -1 12 -24 -5z"/>
 <path d="M4330 8921 c-8 -6 -17 -8 -21 -5 -9 5 -23 -15 -16 -22 5 -6 67 23 67 31 0 8 -14 6 -30 -4z"/>
 <path d="M4252 8884 c-12 -8 -22 -12 -22 -8 0 4 -9 -1 -21 -12 -12 -10 -24 -18 -27 -16 -4 2 -8 -1 -10 -7 -2 -6 -1 -11 2 -11 16 0 106 51 106 60 0 13 -2 13 -28 -6z"/>
 <path d="M4135 8826 c-11 -7 -24 -15 -30 -16 -5 -2 -18 -5 -27 -8 -10 -2 -18 -11 -18 -18 0 -11 13 -8 50 11 28 14 50 30 50 35 0 13 -2 13 -25 -4z"/>
 <path d="M4004 8760 c-6 -6 -20 -12 -31 -14 -25 -5 -63 -28 -63 -38 0 -14 20 -8 26 7 4 8 10 12 15 10 11 -7 69 23 69 35 0 13 -3 13 -16 0z"/>
 <path d="M3876 8695 c-10 -8 -23 -12 -27 -9 -5 3 -9 1 -9 -3 0 -5 -10 -13 -22 -18 -13 -6 -28 -20 -34 -32 -6 -13 -14 -20 -17 -16 -15 14 -12 -95 4 -144 11 -34 73 -106 83 -96 3 4 6 1 6 -6 0 -7 5 -9 10 -6 6 3 10 1 10 -6 0 -7 3 -10 6 -7 3 4 19 -8 35 -24 16 -17 29 -27 29 -23 0 4 11 -4 24 -18 13 -14 27 -23 30 -20 3 4 6 1 6 -5 0 -6 9 -14 21 -17 12 -4 30 -14 41 -24 11 -9 29 -24 40 -33 12 -10 24 -18 29 -18 4 0 22 -15 41 -32 18 -18 38 -34 43 -35 13 -3 53 -32 80 -58 12 -11 34 -27 51 -35 16 -8 39 -25 51 -38 12 -13 24 -23 27 -23 19 3 25 -1 31 -19 4 -11 10 -18 15 -15 5 3 13 -3 19 -12 6 -10 11 -14 11 -10 0 4 11 -3 23 -17 13 -14 27 -23 30 -19 4 3 7 1 7 -6 0 -7 4 -10 9 -6 5 3 16 -3 23 -13 7 -10 24 -25 37 -32 14 -7 35 -23 48 -36 14 -14 28 -22 33 -19 5 3 11 -4 15 -15 3 -11 10 -20 15 -20 5 0 25 -14 45 -31 19 -17 35 -28 35 -25 0 4 11 -5 25 -20 14 -15 25 -23 25 -19 0 4 9 -2 20 -15 11 -13 20 -19 20 -15 0 4 11 -4 25 -19 14 -15 25 -24 25 -21 0 3 14 -8 30 -25 17 -17 30 -28 30 -24 0 4 11 -5 25 -20 14 -15 25 -24 25 -20 0 4 10 -5 23 -19 12 -15 28 -27 34 -27 6 0 29 -17 52 -39 22 -21 41 -36 41 -33 0 3 11 -7 24 -21 13 -14 27 -23 30 -20 3 4 6 0 6 -7 0 -7 3 -11 6 -7 4 3 22 -9 40 -29 19 -19 34 -31 34 -27 0 3 14 -9 30 -27 17 -18 30 -30 30 -25 0 4 11 -4 24 -18 13 -14 27 -23 30 -20 3 3 8 -2 12 -11 3 -9 12 -16 19 -16 8 0 17 -9 20 -20 4 -11 11 -18 16 -15 5 4 9 1 9 -6 0 -7 3 -10 6 -6 3 3 17 -6 30 -20 13 -14 24 -23 24 -20 0 3 16 -9 34 -26 19 -18 51 -45 71 -62 21 -16 55 -47 77 -67 23 -21 44 -35 49 -33 4 3 10 -4 14 -15 3 -11 10 -20 15 -20 5 0 22 -14 39 -31 17 -17 31 -27 31 -24 0 4 17 -10 38 -31 22 -22 52 -48 67 -59 39 -28 75 -64 75 -76 0 -6 4 -8 9 -4 5 3 16 -2 25 -10 8 -9 17 -15 18 -13 4 3 44 -30 111 -94 l61 -57 -1 -73 c-1 -40 -2 -75 -3 -78 -4 -14 -10 -50 -14 -100 -10 -102 -18 -153 -27 -177 -5 -14 -7 -28 -5 -32 3 -4 1 -39 -5 -77 -14 -95 -19 -142 -23 -190 -2 -22 -6 -67 -10 -100 -5 -56 -15 -229 -21 -374 -1 -36 -6 -77 -10 -92 -4 -16 -3 -28 2 -28 5 0 8 -15 7 -32 -10 -133 -8 -282 4 -275 4 3 8 94 10 204 5 372 26 653 82 1066 39 285 40 333 10 382 -13 20 -77 80 -144 133 -67 53 -182 148 -256 212 -380 325 -964 793 -1355 1085 -161 121 -606 447 -700 514 -88 63 -113 94 -121 153 -8 70 16 106 112 164 11 7 17 14 14 17 -3 3 -14 -1 -24 -8z"/>
 <path d="M8177 6553 c-8 -13 -20 -338 -12 -331 7 7 11 52 19 213 3 50 8 98 11 108 7 16 -9 25 -18 10z"/>
 <path d="M8157 6203 c-3 -5 -5 -69 -6 -143 -1 -74 -4 -179 -8 -232 -4 -70 -3 -98 6 -98 11 0 12 16 16 275 1 78 5 153 8 167 7 25 -6 48 -16 31z"/>
 <path d="M8144 5408 c6 -297 8 -358 21 -608 10 -177 35 -489 50 -615 35 -287 27 -451 -26 -563 -13 -26 -59 -84 -106 -131 -46 -46 -82 -89 -80 -95 5 -14 187 170 187 188 0 8 7 22 16 30 8 9 12 20 9 26 -3 5 -2 10 4 10 5 0 12 19 16 43 4 23 9 56 12 72 13 66 6 299 -13 410 -2 17 -7 53 -9 80 -2 28 -7 66 -9 85 -3 19 -7 69 -10 110 -3 41 -8 118 -12 170 -3 52 -7 118 -8 145 -1 28 -5 56 -9 63 -5 7 -3 12 3 12 7 0 9 8 4 23 -9 27 -13 113 -18 432 -3 138 -5 250 -6 250 -7 0 -3 146 4 148 12 4 -2 27 -16 27 -7 0 -9 -93 -4 -312z"/>
 <path d="M6234 4734 c4 -14 7 -79 7 -145 1 -65 5 -122 10 -125 5 -3 9 58 9 145 0 132 -2 151 -16 151 -12 0 -15 -6 -10 -26z"/>
 <path d="M6245 4408 c2 -24 4 -43 5 -43 1 0 3 -40 6 -90 4 -108 12 -219 18 -260 7 -48 19 -179 18 -197 0 -10 4 -21 10 -24 8 -5 9 14 4 67 -24 260 -36 412 -36 465 0 70 -9 124 -20 124 -5 0 -7 -19 -5 -42z"/>
 <path d="M6302 3740 c1 -22 5 -40 10 -40 4 0 8 18 8 40 0 22 -4 40 -10 40 -5 0 -9 -18 -8 -40z"/>
 <path d="M6314 3648 c3 -24 9 -63 11 -88 3 -25 7 -56 10 -70 2 -14 9 -61 15 -105 7 -44 14 -89 15 -100 9 -59 26 -128 37 -148 7 -12 11 -25 10 -29 -1 -4 3 -20 10 -35 6 -15 10 -34 9 -40 -1 -7 2 -13 7 -13 4 0 14 -16 22 -35 7 -19 17 -32 21 -29 4 2 11 -5 14 -16 4 -12 18 -25 31 -30 13 -5 24 -14 24 -20 0 -6 4 -8 10 -5 5 3 20 -1 33 -10 13 -8 27 -12 30 -8 4 3 7 2 7 -3 0 -6 10 -10 23 -11 12 -1 32 -3 44 -6 13 -3 25 -2 28 3 3 4 -14 11 -37 15 -62 10 -138 47 -177 86 -36 37 -81 122 -81 154 0 11 -6 29 -14 40 -12 19 -46 196 -61 325 -4 30 -11 77 -16 104 -5 27 -9 64 -9 82 0 19 -5 34 -11 34 -8 0 -10 -14 -5 -42z"/>
 <path d="M7899 3338 c-46 -33 -86 -64 -89 -68 -3 -4 -15 -10 -27 -14 -13 -4 -23 -12 -23 -17 0 -5 -4 -9 -10 -9 -11 0 -160 -89 -160 -96 0 -7 34 0 40 7 3 4 48 32 100 64 52 32 98 62 102 69 4 6 8 7 8 1 0 -5 6 -3 13 6 7 9 32 28 56 44 52 32 87 63 79 70 -2 3 -42 -23 -89 -57z"/>
 <path d="M7498 3094 c-48 -24 -65 -47 -28 -37 11 3 20 9 20 14 0 5 9 9 20 9 11 0 20 5 20 10 0 6 5 9 11 8 6 -2 14 3 16 10 6 16 -4 14 -59 -14z"/>
 <path d="M7398 3044 c-32 -17 -37 -35 -8 -27 11 3 20 9 20 14 0 5 5 8 11 7 6 -2 14 3 16 10 6 16 -5 15 -39 -4z"/>
 <path d="M7263 2987 c-40 -17 -73 -34 -73 -39 0 -10 50 6 113 38 16 8 35 14 43 14 8 0 14 5 14 10 0 15 -19 11 -97 -23z"/>
 <path d="M7143 2943 c-7 -2 -13 -9 -13 -14 0 -13 43 -4 48 9 4 12 -13 15 -35 5z"/>
 <path d="M7027 2905 c-21 -8 -66 -19 -100 -25 -79 -14 -90 -18 -82 -30 4 -6 12 -7 18 -3 7 4 17 8 22 9 6 1 30 5 55 9 52 8 74 13 78 15 4 4 21 7 42 9 11 0 20 8 20 16 0 18 -4 18 -53 0z"/>
 <path d="M6780 2850 c0 -5 9 -9 20 -7 31 5 36 17 7 17 -15 0 -27 -4 -27 -10z"/>
 </g>
<g id="layer109" fill="#dde3de" stroke="none">
 <path d="M5026 9153 c-3 -4 -14 -8 -24 -10 -9 -1 -28 -4 -41 -6 -14 -2 -27 -10 -29 -17 -3 -9 1 -11 13 -7 9 4 34 10 56 13 23 4 39 12 39 20 0 16 -3 17 -14 7z"/>
 <path d="M5064 9148 c-3 -4 6 -8 20 -8 14 0 26 4 26 9 0 11 -39 10 -46 -1z"/>
 <path d="M5125 9150 c-2 -4 26 -10 63 -14 202 -21 347 -84 832 -364 129 -74 383 -220 433 -249 4 -2 7 0 7 4 0 5 -25 22 -55 38 -30 17 -55 33 -55 36 0 4 -15 12 -32 20 -18 7 -35 16 -38 19 -3 3 -20 12 -37 19 -18 8 -33 17 -33 21 0 4 -13 13 -30 20 -16 7 -30 17 -30 22 0 5 -4 6 -10 3 -5 -3 -10 -2 -10 4 0 5 -14 12 -30 16 -17 4 -36 12 -43 18 -28 27 -94 67 -110 67 -10 0 -20 7 -23 15 -4 8 -10 12 -15 9 -5 -3 -19 4 -31 15 -12 12 -28 21 -35 21 -7 0 -13 5 -13 10 0 6 -7 10 -15 10 -18 0 -56 20 -70 38 -5 7 -21 14 -34 17 -14 2 -27 8 -30 13 -5 8 -158 85 -171 87 -3 0 -15 6 -27 13 -13 7 -23 10 -23 7 0 -3 -9 -1 -21 5 -11 7 -33 14 -47 16 -15 3 -30 10 -33 16 -4 6 -14 8 -23 5 -9 -4 -16 -2 -16 3 0 5 -9 7 -20 5 -11 -2 -20 -1 -20 3 0 4 -10 7 -22 8 -13 0 -47 3 -76 6 -29 3 -54 2 -57 -2z"/>
 <path d="M4870 9095 c0 -13 4 -14 23 -4 33 17 33 19 4 19 -18 0 -27 -5 -27 -15z"/>
 <path d="M4695 9080 c-3 -5 1 -10 9 -10 25 0 30 -2 51 -16 23 -17 45 -18 45 -3 0 5 -4 7 -10 4 -5 -3 -10 -1 -10 5 0 6 -4 8 -10 5 -5 -3 -10 -1 -10 6 0 6 -8 9 -20 6 -11 -3 -20 -1 -20 4 0 12 -17 11 -25 -1z"/>
 <path d="M4554 9039 c-8 -14 14 -19 25 -6 8 10 7 14 -5 14 -8 0 -17 -4 -20 -8z"/>
 <path d="M4476 8995 c-10 -8 -23 -12 -27 -9 -5 3 -9 0 -9 -5 0 -14 3 -14 35 1 14 6 25 15 25 20 0 10 -1 10 -24 -7z"/>
 <path d="M4255 8886 c-11 -7 -24 -14 -30 -14 -5 0 -11 -6 -13 -12 -3 -7 -1 -11 4 -8 44 20 64 33 64 40 0 11 -2 10 -25 -6z"/>
 <path d="M4175 8849 c-10 -15 3 -25 16 -12 7 7 7 13 1 17 -6 3 -14 1 -17 -5z"/>
 <path d="M4133 8825 c-11 -8 -23 -12 -26 -8 -4 3 -9 -1 -13 -10 -3 -9 -12 -13 -20 -10 -8 3 -14 0 -14 -6 0 -16 14 -14 57 11 47 27 47 27 42 33 -3 2 -14 -2 -26 -10z"/>
 <path d="M3971 8745 c-19 -7 -29 -15 -23 -19 6 -3 26 3 44 14 37 22 30 24 -21 5z"/>
 <path d="M3796 8651 c-9 -9 -16 -23 -16 -30 0 -7 -4 -10 -9 -7 -11 7 -21 -66 -11 -77 4 -5 10 9 14 31 3 22 17 50 31 65 14 14 22 28 17 31 -5 3 -17 -3 -26 -13z"/>
 <path d="M6470 8520 c0 -8 213 -135 520 -310 80 -45 186 -106 235 -136 113 -66 370 -210 516 -289 236 -127 361 -225 421 -332 16 -29 34 -53 39 -53 12 0 12 17 -1 25 -5 3 -25 34 -44 68 -20 34 -36 59 -36 54 0 -4 -22 15 -50 43 -27 28 -50 47 -50 43 0 -5 -4 -3 -8 3 -4 5 -24 20 -44 33 -21 12 -38 27 -38 32 0 6 -4 7 -10 4 -5 -3 -10 -1 -10 5 0 6 -4 8 -10 5 -5 -3 -10 -2 -10 4 0 5 -10 13 -22 17 -12 3 -28 13 -36 20 -7 8 -18 12 -23 9 -5 -4 -9 -1 -9 4 0 6 -7 11 -15 11 -8 0 -15 5 -15 11 0 5 -4 7 -10 4 -5 -3 -10 -1 -10 5 0 6 -4 8 -10 5 -5 -3 -10 -1 -10 4 0 6 -7 11 -15 11 -8 0 -15 4 -15 10 0 5 -3 9 -7 8 -7 -2 -75 29 -113 52 -8 5 -52 30 -97 55 -46 26 -83 51 -83 56 0 6 -4 8 -10 4 -5 -3 -39 12 -76 35 -36 22 -70 40 -75 40 -5 0 -12 7 -15 15 -4 8 -9 13 -14 10 -4 -2 -28 9 -54 25 -26 17 -51 30 -57 30 -5 0 -12 7 -15 15 -4 8 -10 13 -14 10 -4 -3 -13 2 -20 10 -7 8 -19 15 -27 15 -14 0 -75 39 -81 53 -2 4 -8 5 -13 1 -5 -3 -9 0 -9 6 0 6 -4 9 -9 6 -5 -4 -11 -1 -13 4 -2 6 -10 12 -18 13 -22 4 -80 40 -80 50 0 4 -4 5 -10 2 -5 -3 -10 -1 -10 5 0 6 -4 8 -10 5 -5 -3 -10 -2 -10 3 0 5 -27 22 -60 38 -33 15 -60 32 -60 37 0 4 -4 5 -10 2 -5 -3 -10 -1 -10 5 0 6 -4 8 -10 5 -5 -3 -10 -2 -10 3 0 5 -20 20 -45 33 -25 13 -45 27 -45 30 0 4 -9 9 -20 12 -11 3 -20 1 -20 -3z"/>
 <path d="M3760 8512 c0 -39 78 -151 94 -135 3 4 6 1 6 -6 0 -7 5 -9 10 -6 6 3 10 1 10 -6 0 -7 3 -10 6 -7 3 4 19 -8 35 -24 16 -17 29 -27 29 -23 0 4 11 -4 24 -18 13 -14 27 -23 30 -20 3 4 6 1 6 -5 0 -6 9 -14 21 -17 12 -4 30 -14 41 -24 11 -9 29 -24 40 -33 12 -10 24 -18 29 -18 4 0 25 -17 46 -37 21 -21 40 -36 42 -34 4 5 47 -26 76 -54 12 -11 34 -27 51 -35 16 -8 39 -25 51 -38 12 -13 24 -23 27 -23 19 3 25 -1 31 -19 4 -11 10 -18 15 -15 5 3 13 -3 19 -12 6 -10 11 -14 11 -10 0 4 11 -3 23 -17 13 -14 27 -23 30 -19 4 3 7 1 7 -6 0 -7 4 -10 9 -6 5 3 16 -3 23 -13 7 -10 24 -25 37 -32 14 -7 35 -23 48 -36 26 -26 33 -29 33 -15 0 10 -332 261 -645 486 -257 185 -272 197 -296 250 -10 22 -19 34 -19 27z"/>
 <path d="M4736 7725 c4 -8 10 -15 15 -15 4 0 24 -14 44 -31 19 -17 35 -28 35 -25 0 4 11 -5 25 -20 14 -15 25 -23 25 -19 0 4 9 -2 20 -15 11 -13 20 -19 20 -15 0 4 11 -4 25 -19 14 -15 25 -24 25 -21 0 3 14 -8 30 -25 17 -17 30 -28 30 -24 0 4 11 -5 25 -20 14 -15 25 -24 25 -20 0 4 10 -5 23 -19 12 -15 28 -27 34 -27 6 0 29 -17 52 -39 22 -21 41 -36 41 -33 0 3 11 -7 24 -21 13 -14 27 -23 30 -20 3 4 6 0 6 -7 0 -7 3 -11 6 -7 4 3 22 -9 40 -29 19 -19 34 -31 34 -27 0 3 14 -9 30 -27 17 -18 30 -30 30 -25 0 4 11 -4 24 -18 13 -14 27 -23 30 -20 3 3 8 -2 12 -11 3 -9 12 -16 19 -16 8 0 17 -9 20 -20 4 -11 11 -18 16 -15 5 4 9 1 9 -6 0 -7 3 -10 6 -6 3 3 17 -6 30 -20 13 -14 24 -23 24 -20 0 3 16 -9 34 -26 19 -18 51 -45 71 -62 21 -16 55 -47 77 -67 23 -21 44 -35 49 -33 4 3 10 -4 14 -15 3 -11 10 -20 15 -20 5 0 22 -14 39 -31 17 -17 31 -27 31 -24 0 4 17 -10 38 -31 22 -22 52 -48 67 -59 39 -28 75 -64 75 -76 0 -6 4 -8 9 -4 5 3 16 -2 25 -10 8 -9 19 -17 23 -18 12 -2 40 -26 107 -90 l61 -57 -2 -70 c-1 -41 3 -68 8 -64 14 8 10 112 -6 143 -16 32 -104 115 -183 173 -30 22 -131 106 -225 187 -95 81 -221 187 -282 236 -60 49 -112 92 -115 96 -22 26 -802 639 -814 639 -3 0 -3 -7 0 -15z"/>
 <path d="M8211 7348 c1 -13 4 -36 8 -53 9 -43 24 -15 15 30 -7 40 -25 58 -23 23z"/>
 <path d="M8229 7185 c-1 -44 -2 -84 -3 -90 -1 -5 -5 -46 -10 -90 -4 -44 -9 -90 -11 -102 -12 -80 -17 -233 -6 -233 6 0 10 10 10 23 -1 39 10 231 16 267 20 135 26 253 14 285 -5 12 -8 -10 -10 -60z"/>
 <path d="M8180 6615 c0 -25 4 -45 9 -45 6 0 9 8 9 18 -1 9 2 29 5 45 6 21 4 27 -8 27 -11 0 -15 -11 -15 -45z"/>
 <path d="M8177 6518 c-11 -75 -20 -303 -12 -296 7 7 11 52 19 213 3 50 8 98 11 108 4 9 3 17 -3 17 -5 0 -12 -19 -15 -42z"/>
 <path d="M6349 6249 c0 -2 -2 -11 -3 -19 -12 -61 -15 -120 -8 -120 11 0 27 128 18 137 -3 4 -6 4 -7 2z"/>
 <path d="M8158 6170 c-3 -16 -1 -30 4 -30 4 0 8 6 8 14 0 8 3 21 6 30 3 9 2 16 -4 16 -5 0 -12 -13 -14 -30z"/>
 <path d="M8155 6118 c-8 -23 -10 -388 -2 -388 4 0 8 30 8 68 7 327 7 355 -6 320z"/>
 <path d="M6329 6088 c-5 -55 -10 -87 -19 -112 -5 -15 -8 -31 -5 -35 2 -4 0 -39 -6 -77 -14 -95 -19 -142 -23 -190 -2 -22 -6 -67 -10 -100 -5 -56 -15 -229 -21 -374 -1 -36 -6 -77 -10 -92 -5 -21 -4 -28 7 -28 11 0 15 18 16 78 8 286 29 521 81 885 4 31 4 57 -1 57 -4 0 -9 -6 -9 -12z"/>
 <path d="M8149 5668 c-4 -73 -3 -108 3 -108 5 0 8 27 8 60 0 33 -2 60 -5 60 -3 0 -5 -6 -6 -12z"/>
 <path d="M8149 5508 c-5 -43 0 -98 9 -98 4 0 7 29 7 65 0 68 -10 88 -16 33z"/>
 <path d="M8154 5131 c4 -151 9 -278 12 -283 10 -16 26 -8 19 10 -8 20 -15 155 -19 374 -1 87 -6 161 -11 165 -4 5 -4 -115 -1 -266z"/>
 <path d="M6239 4983 c-1 -27 -3 -58 -4 -69 -1 -12 1 -50 5 -85 6 -56 7 -48 11 69 2 72 1 132 -3 132 -5 0 -9 -21 -9 -47z"/>
 <path d="M8170 4778 c0 -99 13 -238 22 -238 5 0 6 38 2 88 -4 48 -7 110 -8 139 -2 70 -16 80 -16 11z"/>
 <path d="M6234 4734 c4 -14 7 -79 7 -145 1 -75 5 -119 11 -119 7 0 9 39 5 118 -4 64 -7 129 -7 145 0 15 -5 27 -11 27 -7 0 -9 -10 -5 -26z"/>
 <path d="M8190 4467 c0 -37 4 -67 9 -67 9 0 6 119 -4 128 -3 3 -5 -25 -5 -61z"/>
 <path d="M6244 4410 c3 -57 16 -62 16 -7 0 26 -4 47 -9 47 -5 0 -8 -18 -7 -40z"/>
 <path d="M8204 4325 c3 -38 8 -88 11 -110 30 -237 33 -381 10 -488 -18 -85 -53 -151 -120 -222 -28 -30 -49 -58 -46 -61 7 -7 131 126 131 142 0 7 7 20 16 28 8 9 12 20 9 26 -3 5 -2 10 4 10 5 0 12 19 16 43 4 23 9 56 12 72 13 66 6 299 -13 410 -2 17 -7 53 -9 80 -7 90 -13 126 -20 133 -4 4 -5 -24 -1 -63z"/>
 <path d="M6254 4336 c-6 -15 2 -96 11 -104 3 -3 5 22 5 56 0 60 -5 76 -16 48z"/>
 <path d="M6256 4199 c4 -13 8 -51 9 -84 3 -83 4 -89 12 -81 4 4 6 39 4 77 -4 93 -6 102 -20 107 -10 3 -11 -2 -5 -19z"/>
 <path d="M6276 4011 c-4 -5 -2 -20 3 -33 9 -21 10 -21 10 10 1 32 -3 39 -13 23z"/>
 <path d="M6284 3913 c4 -21 7 -55 8 -75 1 -21 6 -38 11 -38 6 0 7 16 3 38 -3 20 -6 54 -6 75 0 20 -5 37 -11 37 -7 0 -9 -13 -5 -37z"/>
 <path d="M6302 3741 c1 -23 5 -41 10 -41 11 0 10 68 -2 75 -6 4 -9 -10 -8 -34z"/>
 <path d="M6311 3663 c0 -15 4 -37 9 -48 7 -16 9 -11 9 22 1 23 -3 45 -9 48 -6 4 -10 -6 -9 -22z"/>
 <path d="M6324 3563 c3 -16 8 -48 11 -73 3 -25 10 -72 15 -105 5 -33 12 -77 14 -98 3 -20 10 -45 16 -55 10 -14 11 -13 6 8 -3 13 -16 98 -28 187 -13 90 -27 163 -31 163 -5 0 -6 -12 -3 -27z"/>
 <path d="M8015 3420 c-16 -18 -16 -20 -2 -20 9 0 21 9 27 20 6 11 7 20 2 20 -5 0 -17 -9 -27 -20z"/>
 <path d="M7913 3347 c-40 -29 -72 -58 -72 -66 -1 -10 5 -8 19 7 11 12 34 29 50 37 17 9 30 21 30 27 0 6 3 9 6 5 3 -3 15 3 27 13 41 39 10 27 -60 -23z"/>
 <path d="M7780 3250 c-8 -5 -12 -11 -9 -14 3 -3 14 1 25 9 21 16 8 20 -16 5z"/>
 <path d="M7700 3201 c-25 -15 -61 -37 -80 -49 -29 -17 -31 -21 -12 -19 12 0 22 4 22 7 0 3 27 22 60 41 33 18 60 37 60 42 0 10 0 10 -50 -22z"/>
 <path d="M6390 3169 c0 -8 7 -24 15 -35 18 -24 19 -7 0 26 -9 16 -14 19 -15 9z"/>
 <path d="M6418 3085 c2 -14 8 -28 13 -30 4 -3 6 -12 2 -20 -3 -8 -1 -15 4 -15 5 0 15 -16 23 -35 7 -19 17 -32 21 -29 4 2 11 -5 14 -16 4 -12 18 -25 31 -30 13 -5 24 -14 24 -20 0 -6 4 -8 10 -5 5 3 20 -1 33 -10 13 -8 27 -12 30 -8 4 3 7 2 7 -3 0 -6 10 -10 23 -11 12 -1 32 -3 44 -6 13 -3 25 -2 28 4 4 5 -4 10 -17 10 -54 3 -70 8 -123 35 -31 15 -70 44 -87 62 -30 35 -68 111 -68 138 0 8 -4 14 -9 14 -4 0 -6 -11 -3 -25z"/>
 <path d="M7483 3083 c-36 -18 -44 -34 -13 -26 11 3 20 9 20 14 0 5 7 9 15 9 8 0 15 5 15 10 0 12 3 12 -37 -7z"/>
 <path d="M7377 3033 c-13 -13 -7 -21 13 -16 11 3 20 9 20 14 0 10 -24 12 -33 2z"/>
 <path d="M7305 3002 c-16 -10 -32 -18 -34 -19 -2 -2 -1 -6 2 -9 4 -4 18 1 31 10 14 9 32 16 41 16 8 0 15 5 15 10 0 14 -20 11 -55 -8z"/>
 <path d="M7238 2973 c-10 -2 -18 -9 -18 -14 0 -14 16 -11 30 6 7 8 11 14 9 14 -2 -1 -12 -3 -21 -6z"/>
 <path d="M7144 2935 c-18 -14 -18 -15 3 -12 27 4 38 13 25 21 -5 3 -18 -1 -28 -9z"/>
 <path d="M7020 2898 c-19 -5 -39 -14 -45 -20 -7 -7 -3 -8 14 -3 30 9 51 13 74 14 9 1 17 6 17 11 0 12 -13 12 -60 -2z"/>
 <path d="M6856 2861 c-13 -5 -16 -10 -9 -14 7 -4 14 -3 18 3 4 6 10 8 15 5 5 -3 11 -1 15 5 7 12 -11 12 -39 1z"/>
 <path d="M6780 2850 c0 -5 9 -9 20 -7 31 5 36 17 7 17 -15 0 -27 -4 -27 -10z"/>
 </g>

</svg>