<!DOCTYPE svg PUBLIC "-//W3C//DTD SVG 20010904//EN" "http://www.w3.org/TR/2001/REC-SVG-20010904/DTD/svg10.dtd">
<svg version="1.0" xmlns="http://www.w3.org/2000/svg" width="1200px" height="1200px" viewBox="0 0 12000 12000" preserveAspectRatio="xMidYMid meet">
<g id="layer101" fill="#010101" stroke="none">
 <path d="M6210 9318 c0 -4 -3 -7 -7 -6 -13 4 -53 -26 -53 -39 0 -7 -4 -13 -10 -13 -5 0 -10 -7 -10 -16 0 -8 -4 -13 -9 -9 -15 9 -23 -72 -16 -165 4 -47 8 -98 9 -115 1 -16 6 -50 10 -75 4 -25 9 -79 11 -120 1 -41 4 -75 5 -75 1 0 3 -20 5 -45 2 -42 14 -198 20 -280 1 -19 6 -75 9 -125 4 -49 9 -101 11 -115 2 -14 7 -86 10 -160 4 -74 8 -164 11 -200 2 -36 6 -121 8 -190 3 -69 8 -165 10 -215 10 -172 21 -633 27 -1085 1 -63 4 -119 7 -125 6 -9 4 -135 -3 -185 -2 -14 -4 -31 -4 -38 -1 -7 -5 -10 -11 -7 -5 3 -10 -1 -10 -9 0 -8 -13 -23 -30 -33 -16 -9 -30 -21 -30 -26 0 -4 -4 -6 -9 -3 -5 3 -12 -1 -15 -10 -3 -8 -10 -12 -16 -9 -5 3 -10 -1 -10 -9 0 -10 -6 -13 -15 -10 -8 4 -17 -1 -21 -10 -3 -9 -11 -16 -18 -16 -6 -1 -26 -14 -45 -30 -19 -16 -38 -27 -42 -25 -4 3 -10 -2 -13 -11 -3 -8 -10 -12 -16 -9 -6 3 -13 -1 -16 -9 -3 -9 -12 -16 -19 -16 -6 0 -25 -11 -41 -25 -16 -14 -37 -28 -46 -31 -10 -3 -18 -11 -18 -18 0 -6 -9 -12 -20 -13 -11 -1 -25 -7 -32 -13 -51 -43 -74 -60 -81 -60 -4 0 -17 -9 -29 -20 -12 -10 -25 -17 -30 -14 -4 3 -8 -1 -8 -9 0 -8 -15 -22 -32 -31 -18 -8 -51 -31 -73 -51 -22 -19 -43 -35 -46 -35 -4 0 -21 -12 -37 -27 -47 -43 -75 -64 -99 -76 -13 -5 -23 -17 -23 -24 0 -8 -5 -11 -10 -8 -6 3 -13 -1 -16 -9 -3 -9 -12 -16 -19 -16 -7 0 -16 -7 -19 -16 -4 -9 -9 -14 -12 -11 -4 3 -24 -13 -45 -36 -22 -22 -39 -38 -39 -34 0 4 -12 -4 -27 -18 -16 -13 -40 -34 -54 -47 -75 -66 -157 -139 -212 -190 -34 -32 -65 -58 -69 -58 -5 0 -8 -7 -8 -15 0 -8 -4 -14 -9 -12 -4 1 -48 -37 -96 -85 -49 -49 -92 -88 -97 -88 -4 0 -8 -7 -8 -16 0 -10 -6 -14 -15 -10 -9 3 -15 0 -15 -9 0 -8 -4 -15 -10 -15 -5 0 -10 -7 -10 -16 0 -8 -5 -12 -11 -9 -6 4 -13 -2 -16 -14 -3 -11 -14 -23 -24 -26 -10 -4 -19 -9 -19 -13 0 -13 -57 -71 -64 -65 -3 3 -6 -1 -6 -9 0 -9 -11 -23 -25 -32 -14 -9 -25 -23 -25 -31 0 -8 -5 -15 -12 -15 -13 0 -58 -47 -58 -61 0 -4 -9 -11 -20 -14 -11 -3 -20 -13 -20 -21 0 -8 -4 -14 -10 -14 -5 0 -10 -7 -10 -15 0 -8 -7 -15 -15 -15 -8 0 -15 -7 -15 -16 0 -8 -4 -13 -9 -10 -5 3 -14 -8 -21 -24 -7 -16 -16 -28 -20 -25 -4 3 -15 -7 -24 -20 -9 -14 -30 -38 -46 -54 -17 -15 -30 -31 -30 -35 0 -4 -11 -18 -25 -32 -14 -14 -25 -30 -25 -36 0 -6 -3 -8 -6 -5 -4 3 -20 -13 -37 -36 -17 -23 -34 -43 -39 -45 -4 -2 -8 -10 -8 -18 0 -8 -4 -14 -10 -14 -5 0 -10 -7 -10 -15 0 -8 -4 -15 -10 -15 -5 0 -10 -6 -10 -13 0 -8 -14 -33 -31 -57 -17 -23 -37 -61 -46 -84 -18 -51 -20 -165 -2 -197 7 -13 13 -27 14 -31 0 -4 6 -13 13 -19 6 -7 12 -18 12 -24 0 -5 14 -24 30 -42 17 -18 30 -37 30 -42 0 -6 5 -11 11 -11 12 0 39 -25 39 -37 1 -4 34 -30 75 -58 41 -27 75 -53 75 -57 0 -5 7 -8 15 -8 8 0 15 -5 15 -11 0 -6 6 -9 12 -7 7 3 18 0 24 -6 32 -30 53 -44 77 -50 15 -3 27 -11 27 -16 0 -6 8 -10 19 -10 10 0 24 -7 31 -15 7 -8 20 -15 30 -15 10 0 23 -7 30 -15 7 -9 19 -14 26 -11 7 2 20 -4 29 -14 10 -11 20 -19 24 -18 21 2 42 -4 55 -18 9 -8 20 -13 25 -10 5 4 11 3 13 -2 1 -4 29 -15 61 -25 31 -10 57 -23 57 -29 0 -5 7 -8 15 -4 8 3 15 1 15 -5 0 -6 6 -9 13 -6 6 2 49 -9 95 -24 45 -15 82 -25 82 -22 0 3 6 1 13 -5 7 -6 31 -14 54 -16 22 -3 51 -10 65 -15 14 -5 40 -12 59 -15 19 -3 45 -8 59 -10 84 -16 191 -25 204 -18 5 3 27 7 48 8 21 2 44 7 51 11 6 4 14 8 17 9 36 11 50 18 50 23 0 4 16 13 35 21 19 8 35 20 35 27 0 8 4 12 9 8 5 -3 24 8 42 25 19 16 37 30 41 30 5 0 8 7 8 15 0 8 5 15 12 15 13 0 88 79 88 92 0 5 5 6 10 3 6 -3 10 -2 10 3 0 5 20 31 45 58 25 27 45 52 45 56 0 5 7 8 15 8 8 0 15 4 15 9 0 5 18 27 40 50 22 22 40 46 40 52 0 6 6 9 13 6 8 -3 18 7 26 24 7 16 16 27 21 24 4 -3 17 10 29 28 11 17 21 29 21 25 0 -10 60 52 60 63 0 6 4 8 9 5 5 -3 12 1 15 10 3 8 10 12 16 9 5 -3 10 -1 10 6 0 14 101 115 113 111 4 -1 7 5 7 13 0 8 5 15 10 15 6 0 10 7 10 15 0 8 6 12 14 9 8 -3 16 3 19 16 3 12 10 19 16 15 6 -3 11 -2 11 2 0 13 68 83 80 83 5 0 10 7 10 15 0 8 4 14 9 12 5 -1 25 15 45 35 20 20 36 34 36 30 0 -4 8 5 18 21 10 15 22 24 26 20 4 -4 9 3 13 15 3 12 9 19 14 16 5 -3 24 10 41 30 17 19 35 33 40 30 4 -3 8 0 8 6 0 14 16 31 53 54 15 10 27 25 27 33 0 8 5 13 12 11 6 -2 30 15 53 39 24 24 48 43 54 43 6 0 11 7 11 15 0 8 7 15 15 15 8 0 15 5 15 10 0 6 6 10 14 10 8 0 17 9 21 19 4 12 12 18 21 14 8 -3 14 1 14 11 0 9 7 16 15 16 8 0 15 7 15 16 0 10 6 14 15 10 9 -3 15 0 15 9 0 8 5 15 10 15 6 0 31 20 55 44 25 24 47 41 50 38 2 -3 16 7 29 21 14 15 28 27 31 27 4 0 21 15 38 33 18 19 38 32 45 30 6 -3 12 2 12 11 0 9 7 16 15 16 8 0 15 3 15 8 0 4 17 18 37 32 21 14 47 35 59 48 12 12 26 22 33 22 6 0 11 5 11 10 0 6 7 10 15 10 8 0 15 7 15 16 0 8 5 12 10 9 6 -3 13 1 16 9 3 9 10 13 15 10 5 -3 9 0 9 5 0 6 7 11 15 11 8 0 15 5 15 10 0 6 7 10 15 10 9 0 15 9 15 23 0 17 2 19 10 7 8 -12 10 -12 16 3 3 9 10 14 15 11 5 -3 9 0 9 5 0 6 5 11 10 11 6 0 22 12 35 26 14 15 25 24 25 20 0 -6 85 57 100 75 3 3 20 14 38 24 17 11 32 23 32 28 0 4 5 5 10 2 6 -3 13 1 16 9 3 9 10 13 15 10 5 -3 9 0 9 5 0 6 5 11 10 11 14 0 50 38 50 53 0 8 4 7 10 -3 8 -13 11 -11 16 7 4 13 10 20 14 18 5 -3 17 8 26 25 10 16 25 32 34 35 18 6 50 56 50 79 0 9 4 16 10 16 18 0 52 143 55 235 2 50 0 94 -3 100 -3 5 -7 28 -9 50 -3 36 -6 55 -20 130 -2 11 -4 28 -4 38 0 9 -4 17 -7 17 -4 0 -8 10 -9 23 -1 12 -6 40 -12 62 -5 22 -17 74 -26 115 -9 41 -20 91 -25 111 -5 19 -12 51 -14 70 -3 18 -12 64 -21 101 -8 37 -18 89 -21 115 -3 26 -8 51 -10 55 -7 10 -16 54 -19 88 -1 14 -4 27 -5 30 -1 3 -2 8 -2 11 0 3 -4 23 -9 45 -17 69 -34 173 -30 188 1 5 -2 12 -7 15 -11 6 -16 36 -28 139 -3 34 -10 62 -14 62 -4 0 -10 21 -14 48 -3 26 -8 65 -11 87 -4 22 -13 69 -22 105 -8 36 -17 83 -20 105 -2 22 -10 67 -18 100 -24 103 -55 273 -60 327 -3 28 -9 56 -14 62 -6 6 -13 36 -17 66 -4 30 -11 66 -16 80 -6 14 -12 48 -15 75 -3 28 -8 52 -12 55 -4 3 -8 23 -10 45 -2 22 -6 44 -9 50 -3 5 -7 20 -8 34 -2 13 -8 29 -13 34 -6 6 -11 19 -11 28 0 20 -55 164 -76 199 -8 14 -18 33 -21 43 -3 9 -9 17 -14 17 -5 0 -9 6 -9 13 0 19 -81 123 -107 138 -13 7 -23 18 -23 26 0 7 -7 13 -15 13 -8 0 -15 4 -15 8 0 5 -17 17 -37 28 -21 10 -45 25 -54 32 -9 7 -29 15 -45 18 -16 3 -33 9 -39 14 -5 4 -14 9 -20 9 -5 0 -11 12 -13 26 -2 14 -8 25 -13 25 -5 0 -9 9 -9 20 0 11 -7 20 -15 20 -8 0 -15 4 -15 8 0 9 -64 49 -66 42 -1 -3 -10 2 -20 11 -16 14 -50 29 -74 34 -3 1 -31 13 -63 28 -32 15 -66 29 -75 30 -9 2 -43 15 -75 30 -32 15 -62 27 -67 27 -6 0 -10 5 -10 10 0 6 -6 10 -12 9 -7 -1 -30 5 -50 14 -21 10 -42 17 -48 17 -5 0 -10 5 -10 11 0 6 -7 9 -15 5 -8 -3 -15 -2 -15 2 0 4 -27 16 -60 26 -33 11 -60 23 -60 26 0 4 -27 15 -60 24 -33 9 -60 22 -60 28 0 5 -6 8 -14 5 -8 -3 -17 -3 -21 1 -9 10 -85 9 -85 0z"/>
 </g>
<g id="layer102" fill="#5b635f" stroke="none">
 <path d="M6210 9318 c0 -4 -3 -7 -7 -6 -13 4 -53 -26 -53 -39 0 -7 -4 -13 -10 -13 -5 0 -10 -7 -10 -16 0 -8 -4 -13 -9 -9 -15 9 -23 -72 -16 -165 4 -47 8 -98 9 -115 1 -16 6 -50 10 -75 4 -25 9 -79 11 -120 1 -41 4 -75 5 -75 1 0 3 -20 5 -45 2 -42 14 -198 20 -280 1 -19 6 -75 9 -125 4 -49 9 -101 11 -115 2 -14 7 -86 10 -160 4 -74 8 -164 11 -200 2 -36 6 -121 8 -190 3 -69 8 -165 10 -215 10 -172 21 -633 27 -1085 1 -63 4 -119 7 -125 6 -9 4 -135 -3 -185 -2 -14 -4 -31 -4 -38 -1 -7 -5 -10 -11 -7 -5 3 -10 -1 -10 -9 0 -8 -13 -23 -30 -33 -16 -9 -30 -21 -30 -26 0 -4 -4 -6 -9 -3 -5 3 -12 -1 -15 -10 -3 -8 -10 -12 -16 -9 -5 3 -10 -1 -10 -9 0 -10 -6 -13 -15 -10 -8 4 -17 -1 -21 -10 -3 -9 -11 -16 -18 -16 -6 -1 -26 -14 -45 -30 -19 -16 -38 -27 -42 -25 -4 3 -10 -2 -13 -11 -3 -8 -10 -12 -16 -9 -6 3 -13 -1 -16 -9 -3 -9 -12 -16 -19 -16 -6 0 -25 -11 -41 -25 -16 -14 -37 -28 -46 -31 -10 -3 -18 -11 -18 -18 0 -6 -9 -12 -20 -13 -11 -1 -25 -7 -32 -13 -51 -43 -74 -60 -81 -60 -4 0 -17 -9 -29 -20 -12 -10 -25 -17 -30 -14 -4 3 -8 -1 -8 -9 0 -8 -15 -22 -32 -31 -18 -8 -51 -31 -73 -51 -22 -19 -43 -35 -46 -35 -4 0 -21 -12 -37 -27 -47 -43 -75 -64 -99 -76 -13 -5 -23 -17 -23 -24 0 -8 -5 -11 -10 -8 -6 3 -13 -1 -16 -9 -3 -9 -12 -16 -19 -16 -7 0 -16 -7 -19 -16 -4 -9 -9 -14 -12 -11 -4 3 -24 -13 -45 -36 -22 -22 -39 -38 -39 -34 0 4 -12 -4 -27 -18 -16 -13 -40 -34 -54 -47 -75 -66 -157 -139 -212 -190 -34 -32 -65 -58 -69 -58 -5 0 -8 -7 -8 -15 0 -8 -4 -14 -9 -12 -4 1 -48 -37 -96 -85 -49 -49 -92 -88 -97 -88 -4 0 -8 -7 -8 -16 0 -10 -6 -14 -15 -10 -9 3 -15 0 -15 -9 0 -8 -4 -15 -10 -15 -5 0 -10 -7 -10 -16 0 -8 -5 -12 -11 -9 -6 4 -13 -2 -16 -14 -3 -11 -14 -23 -24 -26 -10 -4 -19 -9 -19 -13 0 -13 -57 -71 -64 -65 -3 3 -6 -1 -6 -9 0 -9 -11 -23 -25 -32 -14 -9 -25 -23 -25 -31 0 -8 -5 -15 -12 -15 -13 0 -58 -47 -58 -61 0 -4 -9 -11 -20 -14 -11 -3 -20 -13 -20 -21 0 -8 -4 -14 -10 -14 -5 0 -10 -7 -10 -15 0 -8 -7 -15 -15 -15 -8 0 -15 -7 -15 -16 0 -8 -4 -13 -9 -10 -5 3 -14 -8 -21 -24 -7 -16 -16 -28 -20 -25 -4 3 -15 -7 -24 -20 -9 -14 -30 -38 -46 -54 -17 -15 -30 -31 -30 -35 0 -4 -11 -18 -25 -32 -14 -14 -25 -30 -25 -36 0 -6 -3 -8 -6 -5 -4 3 -20 -13 -37 -36 -17 -23 -34 -43 -39 -45 -4 -2 -8 -10 -8 -17 0 -7 -6 -15 -12 -18 -7 -2 -9 -8 -5 -13 9 -9 32 14 136 140 36 43 69 83 75 90 6 6 28 31 50 56 384 444 916 938 1411 1309 61 46 117 88 125 95 8 6 123 83 255 170 313 208 344 231 361 272 13 30 13 108 4 547 -20 1015 -57 1688 -141 2585 -11 119 -11 134 5 169 9 21 29 46 43 57 35 26 105 32 145 13 109 -52 178 -74 178 -57 0 5 -11 12 -25 16 -14 3 -25 9 -25 13 0 4 -27 15 -60 24 -33 10 -60 22 -60 28 0 6 -6 9 -14 6 -8 -3 -17 -3 -21 1 -9 10 -85 9 -85 0z"/>
 <path d="M6512 9219 c4 -12 122 -64 273 -121 17 -6 34 -15 40 -20 12 -11 25 -10 25 1 0 13 -60 42 -71 35 -5 -3 -9 -1 -9 5 0 6 -11 13 -25 17 -14 3 -25 10 -25 16 0 5 -6 8 -12 7 -7 -1 -30 5 -50 14 -21 10 -42 17 -48 17 -5 0 -10 5 -10 11 0 6 -6 9 -14 6 -8 -3 -16 -2 -18 2 -5 14 -60 23 -56 10z"/>
 <path d="M6860 9074 c0 -7 5 -14 10 -14 6 0 29 -9 53 -20 59 -27 146 -60 158 -60 28 0 -25 36 -66 44 -5 1 -26 9 -45 18 -87 41 -110 48 -110 32z"/>
 <path d="M7100 8976 c0 -8 10 -18 21 -21 31 -10 67 -55 75 -93 7 -34 17 -45 46 -49 31 -5 111 -46 163 -83 127 -90 233 -261 296 -480 28 -95 93 -406 189 -910 142 -744 258 -1330 295 -1485 82 -350 86 -535 14 -677 -11 -21 -46 -66 -78 -101 -44 -47 -57 -67 -50 -78 7 -11 10 -10 15 8 4 13 10 20 14 18 5 -3 17 8 26 25 10 16 25 32 34 35 18 6 50 56 50 79 0 9 4 16 10 16 18 0 52 143 55 235 2 50 0 94 -3 100 -3 5 -7 28 -9 50 -3 36 -6 55 -20 130 -2 11 -4 28 -4 38 0 9 -4 17 -7 17 -4 0 -8 10 -9 23 -1 12 -6 40 -12 62 -5 22 -17 74 -26 115 -9 41 -20 91 -25 111 -5 19 -12 51 -14 70 -3 18 -12 64 -21 101 -8 37 -18 89 -21 115 -3 26 -8 51 -10 55 -7 10 -16 54 -19 88 -1 14 -4 27 -5 30 -1 3 -2 8 -2 11 0 3 -4 23 -9 45 -17 69 -34 173 -30 188 1 5 -2 12 -7 15 -11 6 -16 36 -28 139 -3 34 -10 62 -14 62 -4 0 -10 21 -14 48 -3 26 -8 65 -11 87 -4 22 -13 69 -22 105 -8 36 -17 83 -20 105 -2 22 -10 67 -18 100 -24 103 -55 273 -60 327 -3 28 -9 56 -14 62 -6 6 -13 36 -17 66 -4 30 -11 66 -16 80 -6 14 -12 48 -15 75 -3 28 -8 52 -12 55 -4 3 -8 23 -10 45 -2 22 -6 44 -9 50 -3 5 -7 20 -8 34 -2 13 -8 29 -13 34 -6 6 -11 19 -11 28 0 20 -55 164 -76 199 -8 14 -18 33 -21 43 -3 9 -9 17 -14 17 -5 0 -9 6 -9 13 0 19 -81 123 -107 138 -13 7 -23 18 -23 26 0 7 -7 13 -15 13 -8 0 -15 4 -15 8 0 5 -17 17 -37 28 -21 10 -45 25 -54 32 -9 7 -29 15 -45 18 -16 3 -35 11 -43 17 -8 7 -17 11 -20 9 -3 -1 -7 9 -9 23 -2 14 -8 25 -13 25 -5 0 -9 9 -9 20 0 11 -6 20 -14 20 -8 0 -16 4 -18 8 -1 4 -18 18 -35 31 -26 17 -33 19 -33 7z"/>
 <path d="M6430 8895 c0 -20 4 -77 10 -128 58 -547 116 -1848 121 -2720 0 -177 -11 -221 -82 -318 -73 -99 -223 -217 -374 -294 -16 -9 -55 -32 -86 -53 -31 -20 -82 -55 -115 -76 -32 -22 -97 -69 -144 -105 -47 -36 -98 -75 -112 -86 -333 -253 -614 -499 -908 -794 -224 -225 -316 -323 -436 -466 -18 -22 -59 -69 -90 -105 -46 -53 -54 -69 -49 -90 3 -14 9 -37 12 -52 4 -20 13 -29 35 -33 19 -5 53 -31 91 -72 81 -85 128 -107 232 -106 44 0 109 8 144 17 98 26 239 102 327 175 17 14 48 40 69 56 95 73 255 211 390 337 46 42 196 174 256 223 120 100 154 129 165 138 6 7 29 26 49 42 21 17 68 55 106 85 37 30 104 84 149 120 45 36 99 79 119 95 21 17 73 57 116 90 43 33 92 72 109 86 17 14 105 82 196 150 213 160 216 162 275 204 28 20 75 54 105 76 30 22 73 52 95 66 71 47 140 124 154 173 13 48 8 87 -63 475 -14 72 -34 182 -45 245 -22 125 -90 560 -122 785 -11 77 -27 185 -35 240 -39 267 -113 889 -158 1334 -11 112 -12 115 -42 131 -16 10 -41 21 -55 25 -13 4 -49 19 -79 32 -59 26 -74 32 -135 57 -22 10 -48 21 -57 26 -10 6 -23 10 -30 10 -7 1 -31 9 -53 20 -53 26 -55 25 -55 -15z"/>
 <path d="M7240 8483 c0 -23 13 -143 45 -423 23 -202 63 -514 95 -750 11 -80 23 -163 26 -185 32 -246 133 -860 199 -1219 25 -136 48 -275 51 -310 7 -76 -8 -163 -38 -224 -31 -61 -145 -175 -248 -247 -73 -51 -135 -96 -274 -198 -17 -12 -57 -43 -90 -68 -34 -25 -83 -62 -111 -83 -27 -20 -57 -43 -65 -49 -9 -7 -45 -34 -80 -62 -36 -27 -67 -52 -70 -55 -3 -3 -23 -18 -45 -35 -22 -16 -42 -32 -45 -35 -3 -3 -21 -17 -40 -30 -19 -13 -37 -27 -40 -30 -3 -3 -50 -41 -105 -85 -55 -44 -102 -82 -105 -85 -3 -3 -50 -41 -105 -85 -55 -44 -105 -84 -111 -90 -6 -5 -30 -26 -54 -45 -24 -19 -48 -39 -54 -45 -11 -9 -103 -87 -155 -130 -28 -23 -170 -144 -187 -160 -6 -5 -40 -35 -75 -65 -34 -30 -73 -64 -85 -75 -12 -11 -52 -47 -90 -80 -37 -33 -75 -67 -84 -75 -25 -24 -161 -133 -216 -172 -67 -49 -246 -135 -311 -150 -52 -12 -71 -28 -35 -28 10 0 22 -4 28 -9 12 -11 144 -54 254 -82 60 -16 117 -22 191 -23 l106 -1 64 44 c38 26 98 84 149 144 116 135 180 204 351 376 223 222 446 434 574 546 44 39 84 75 90 81 5 6 60 53 120 105 61 51 115 98 121 104 6 5 30 26 54 45 24 19 87 71 140 115 53 44 113 94 135 110 21 17 56 45 79 63 54 44 65 52 111 86 22 17 42 33 45 36 3 3 21 17 40 30 19 13 37 27 40 30 3 3 21 17 40 30 19 14 42 30 50 37 27 21 133 98 237 172 118 83 157 120 184 176 40 86 18 254 -117 880 -36 165 -88 415 -115 555 -28 140 -81 413 -119 605 -38 193 -79 409 -90 480 -60 378 -126 561 -233 646 l-27 20 0 -28z"/>
 <path d="M8030 4995 c-7 -8 -44 -36 -82 -61 -75 -50 -458 -336 -602 -449 -153 -121 -519 -426 -551 -459 -6 -6 -46 -42 -90 -81 -44 -38 -136 -122 -205 -186 -69 -64 -140 -130 -159 -147 -18 -16 -30 -35 -27 -41 11 -17 23 -13 29 10 3 12 10 18 16 14 6 -3 11 -2 11 2 0 13 68 83 80 83 5 0 10 7 10 15 0 8 4 14 9 13 5 -2 25 14 45 34 20 20 36 34 36 30 0 -4 8 5 18 21 10 15 22 24 26 20 4 -4 9 3 13 15 3 12 9 19 14 16 5 -3 24 10 41 30 17 19 35 33 40 30 4 -3 8 0 8 6 0 14 16 31 53 54 15 10 27 25 27 33 0 8 5 13 12 11 6 -2 30 15 53 39 24 24 48 43 54 43 6 0 11 7 11 15 0 8 7 15 15 15 8 0 15 5 15 10 0 6 6 10 14 10 8 0 17 9 21 19 4 12 12 18 21 14 8 -3 14 1 14 11 0 9 7 16 15 16 8 0 15 7 15 16 0 10 6 14 15 10 9 -3 15 0 15 9 0 8 5 15 10 15 6 0 31 20 55 44 25 24 47 41 50 38 2 -3 16 7 29 21 14 15 28 27 31 27 4 0 21 15 38 33 18 19 38 32 45 30 6 -3 12 2 12 11 0 9 7 16 15 16 8 0 15 3 15 8 0 4 17 18 37 32 21 14 47 35 59 48 12 12 26 22 33 22 6 0 11 5 11 10 0 6 7 10 15 10 8 0 15 7 15 16 0 8 5 12 10 9 6 -3 13 1 16 9 3 9 10 13 15 10 5 -3 9 0 9 5 0 6 7 11 15 11 8 0 15 5 15 10 0 6 7 10 15 10 9 0 15 9 15 23 0 17 2 19 10 7 8 -12 10 -12 16 3 3 9 10 14 15 11 5 -3 9 0 9 5 0 6 5 11 10 11 6 0 22 12 35 26 14 15 25 24 25 20 0 -6 85 57 100 75 3 3 20 14 38 24 17 11 32 23 32 28 0 4 5 5 10 2 6 -3 13 1 16 9 3 9 10 13 15 10 5 -3 9 0 9 5 0 6 5 11 10 11 6 0 19 9 30 20 21 21 26 40 11 40 -5 0 -14 -7 -21 -15z"/>
 <path d="M3830 3757 c0 -8 -14 -33 -31 -57 -17 -23 -37 -61 -46 -84 -18 -51 -20 -165 -2 -197 7 -13 13 -27 14 -31 0 -4 6 -13 13 -19 6 -7 12 -18 12 -24 0 -5 14 -24 30 -42 17 -18 30 -37 30 -42 0 -6 5 -11 11 -11 12 0 39 -25 39 -37 1 -4 34 -30 75 -58 41 -27 75 -53 75 -57 0 -5 7 -8 15 -8 8 0 15 -4 15 -10 0 -5 5 -10 10 -10 26 0 3 25 -79 85 -106 78 -189 164 -221 231 -45 94 -37 214 21 294 32 44 47 90 30 90 -6 0 -11 -6 -11 -13z"/>
 <path d="M6075 3348 c-121 -123 -276 -282 -343 -354 -130 -139 -246 -232 -334 -267 -121 -48 -338 -19 -682 90 -60 18 -111 32 -113 29 -9 -9 26 -38 37 -31 5 3 10 1 10 -5 0 -7 6 -10 13 -7 6 2 49 -9 95 -24 45 -15 82 -25 82 -22 0 3 6 1 13 -5 7 -6 31 -14 54 -16 22 -3 51 -10 65 -15 14 -5 40 -12 59 -15 19 -3 45 -8 59 -10 84 -16 191 -25 204 -18 5 3 27 7 49 8 21 2 44 8 51 13 6 5 14 10 18 11 36 9 48 13 48 19 0 4 16 13 35 21 19 8 35 20 35 27 0 8 4 12 9 8 5 -3 24 8 42 25 19 16 37 30 41 30 5 0 8 7 8 15 0 8 5 15 12 15 13 0 88 79 88 92 0 5 5 6 10 3 6 -3 10 -2 10 3 0 5 20 31 45 58 25 27 45 52 45 56 0 5 7 8 15 8 8 0 15 4 15 9 0 5 18 27 40 50 22 22 40 46 40 52 0 6 6 9 13 6 8 -3 18 7 26 24 7 16 16 27 21 24 4 -3 17 10 29 28 11 17 21 29 21 25 0 -10 60 52 60 63 0 6 4 8 9 5 5 -3 12 1 15 10 3 8 10 12 16 9 5 -3 10 -1 10 6 0 14 101 115 113 111 4 -1 7 5 7 13 0 8 5 15 10 15 6 0 10 7 10 15 0 8 -4 15 -8 15 -4 0 -107 -100 -227 -222z"/>
 <path d="M4110 3072 c0 -5 11 -15 25 -22 14 -7 25 -17 25 -22 0 -4 9 -8 19 -8 11 0 26 -7 35 -15 8 -8 21 -15 29 -15 8 0 20 -7 27 -15 7 -8 20 -15 30 -15 10 0 23 -7 30 -15 7 -9 18 -14 24 -12 6 3 19 -3 29 -11 21 -19 57 -26 57 -12 0 5 -28 22 -62 38 -136 63 -194 93 -223 112 -32 21 -45 25 -45 12z"/>
 <path d="M4450 2904 c0 -12 31 -35 40 -29 5 3 10 2 10 -3 0 -5 12 -12 28 -15 15 -3 35 -9 45 -12 9 -4 17 -3 17 3 0 6 -21 18 -47 28 -27 9 -52 21 -57 26 -11 9 -36 11 -36 2z"/>
 </g>
<g id="layer103" fill="#7e7e81" stroke="none">
 <path d="M6210 9318 c0 -4 -3 -7 -7 -6 -13 4 -53 -26 -53 -39 0 -6 -6 -13 -12 -16 -7 -2 -10 -7 -7 -11 4 -4 19 4 34 18 45 42 88 49 159 25 34 -12 85 -32 114 -45 60 -27 62 -28 62 -14 0 5 -11 12 -25 16 -14 3 -25 9 -25 13 0 4 -27 15 -60 24 -33 10 -60 22 -60 28 0 6 -6 9 -14 6 -8 -3 -17 -3 -21 1 -9 10 -85 9 -85 0z"/>
 <path d="M6105 9198 c-3 -24 -3 -81 0 -128 4 -47 8 -98 9 -115 1 -16 6 -50 10 -75 4 -25 9 -79 11 -120 1 -41 4 -75 5 -75 1 0 3 -20 5 -45 2 -42 14 -198 20 -280 1 -19 6 -75 9 -125 4 -49 9 -101 11 -115 2 -14 7 -86 10 -160 4 -74 8 -164 11 -200 2 -36 6 -121 8 -190 3 -69 8 -165 10 -215 10 -172 21 -633 27 -1085 1 -63 4 -119 7 -125 6 -9 4 -135 -3 -185 -2 -14 -4 -31 -4 -38 -1 -7 -5 -10 -11 -7 -5 3 -10 -1 -10 -9 0 -8 -13 -23 -30 -33 -16 -9 -30 -21 -30 -26 0 -4 -4 -6 -9 -3 -5 3 -12 -1 -15 -10 -3 -8 -10 -12 -16 -9 -5 3 -10 -1 -10 -9 0 -10 -6 -13 -15 -10 -8 4 -17 -1 -21 -10 -3 -9 -11 -16 -18 -16 -6 -1 -26 -14 -45 -30 -19 -16 -38 -27 -42 -25 -4 3 -10 -2 -13 -11 -3 -8 -10 -12 -16 -9 -6 3 -13 -1 -16 -9 -3 -9 -12 -16 -19 -16 -6 0 -25 -11 -41 -25 -16 -14 -37 -28 -46 -31 -10 -3 -18 -11 -18 -18 0 -6 -9 -12 -20 -13 -11 -1 -25 -7 -32 -13 -51 -43 -74 -60 -81 -60 -4 0 -17 -9 -29 -20 -12 -10 -25 -17 -30 -14 -4 3 -8 -1 -8 -9 0 -8 -15 -22 -32 -31 -18 -8 -51 -31 -73 -51 -22 -19 -43 -35 -46 -35 -4 0 -21 -12 -37 -27 -47 -43 -75 -64 -99 -76 -21 -9 -33 -37 -17 -37 4 0 40 26 82 58 205 155 254 192 259 192 2 0 11 6 19 14 8 8 94 67 192 132 202 133 182 119 300 202 85 59 95 72 116 135 8 24 -16 1143 -29 1362 -3 44 -7 139 -10 210 -3 72 -8 166 -10 210 -27 456 -55 835 -86 1160 -12 121 -19 246 -16 277 6 68 -9 88 -18 26z"/>
 <path d="M6540 9210 c0 -6 8 -13 18 -16 20 -7 36 -13 200 -84 74 -32 124 -37 63 -7 -18 9 -37 14 -42 11 -5 -3 -9 -1 -9 5 0 6 -11 13 -25 17 -14 3 -25 10 -25 16 0 5 -6 8 -12 7 -7 -2 -30 5 -52 14 -21 9 -42 17 -47 17 -5 0 -9 5 -9 11 0 6 -7 9 -15 5 -8 -3 -15 -1 -15 4 0 6 -7 10 -15 10 -8 0 -15 -5 -15 -10z"/>
 <path d="M6862 9078 c5 -15 28 -23 28 -10 0 5 -7 13 -16 16 -10 4 -14 1 -12 -6z"/>
 <path d="M6902 9059 c5 -14 98 -50 98 -38 0 8 -80 49 -95 49 -4 0 -5 -5 -3 -11z"/>
 <path d="M7010 9021 c0 -10 56 -41 74 -41 6 0 4 6 -4 13 -21 19 -70 38 -70 28z"/>
 <path d="M7161 8945 c-1 -6 5 -17 12 -23 6 -7 17 -31 22 -54 13 -52 38 -66 28 -16 -3 18 -10 35 -15 36 -4 2 -8 12 -8 23 0 10 -6 19 -14 19 -8 0 -17 6 -19 13 -3 6 -6 7 -6 2z"/>
 <path d="M6434 8858 c3 -40 13 -152 21 -248 29 -354 60 -848 75 -1210 5 -135 12 -299 15 -365 2 -66 7 -289 10 -495 3 -206 8 -409 10 -451 2 -42 0 -116 -6 -164 -17 -153 -96 -261 -280 -382 -52 -34 -98 -66 -104 -70 -5 -5 -41 -27 -79 -48 -72 -42 -80 -47 -167 -107 -251 -174 -663 -503 -884 -707 -241 -223 -527 -516 -733 -751 -125 -142 -152 -178 -147 -197 13 -52 26 -74 50 -83 15 -6 45 -31 68 -56 83 -92 155 -124 273 -124 71 0 126 11 181 36 17 8 35 14 40 14 23 0 222 131 312 205 49 40 218 189 301 265 122 111 321 284 420 365 47 38 94 77 105 87 11 10 72 59 135 110 63 50 129 103 146 117 17 14 47 38 65 53 19 14 81 64 139 110 58 46 124 97 146 113 45 33 484 362 576 432 31 23 59 43 63 43 3 0 11 5 18 10 7 6 35 28 63 50 120 93 121 120 31 575 -28 141 -111 646 -152 920 -14 94 -27 186 -30 205 -10 70 -56 407 -65 480 -5 41 -13 109 -19 150 -5 41 -15 120 -21 175 -6 55 -15 132 -21 170 -5 39 -18 162 -29 275 -29 300 -41 371 -59 377 -9 3 -40 17 -69 29 -29 13 -55 24 -59 24 -3 0 -29 11 -57 23 -28 13 -78 34 -111 47 -77 29 -126 49 -147 60 -29 16 -30 13 -24 -62z"/>
 <path d="M7300 8801 c0 -9 24 -21 42 -21 6 0 6 6 -2 15 -14 16 -40 20 -40 6z"/>
 <path d="M7360 8773 c1 -10 77 -63 90 -63 6 0 10 5 10 10 0 6 -7 10 -15 10 -8 0 -15 4 -15 8 0 8 -52 42 -64 42 -3 0 -6 -3 -6 -7z"/>
 <path d="M7472 8680 c7 -11 18 -20 25 -20 7 0 13 -5 13 -12 0 -6 12 -27 28 -47 88 -115 157 -285 203 -501 58 -277 123 -602 174 -875 58 -313 87 -464 105 -550 20 -93 86 -432 115 -590 10 -49 26 -124 36 -165 38 -146 59 -256 75 -380 17 -138 13 -212 -17 -299 -22 -63 -22 -61 -9 -61 18 0 52 143 55 235 2 50 0 94 -3 100 -3 5 -7 28 -9 50 -3 36 -6 55 -20 130 -2 11 -4 28 -4 38 0 9 -4 17 -7 17 -4 0 -8 10 -9 23 -1 12 -6 40 -12 62 -5 22 -17 74 -26 115 -9 41 -20 91 -25 111 -5 19 -12 51 -14 70 -3 18 -12 64 -21 101 -8 37 -18 89 -21 115 -3 26 -8 51 -10 55 -7 10 -16 54 -19 88 -1 14 -4 27 -5 30 -1 3 -2 8 -2 11 0 3 -4 23 -9 45 -17 69 -34 173 -30 188 1 5 -2 12 -7 15 -11 6 -16 36 -28 139 -3 34 -10 62 -14 62 -4 0 -10 21 -14 48 -3 26 -8 65 -11 87 -4 22 -13 69 -22 105 -8 36 -17 83 -20 105 -2 22 -10 67 -18 100 -24 103 -55 273 -60 327 -3 28 -9 56 -14 62 -6 6 -13 36 -17 66 -4 30 -11 66 -16 80 -6 14 -12 48 -15 75 -3 28 -8 52 -12 55 -4 3 -8 23 -10 45 -2 22 -6 44 -9 50 -3 5 -7 20 -8 34 -2 13 -8 29 -13 34 -6 6 -11 19 -11 28 0 20 -55 164 -76 199 -8 14 -18 33 -21 43 -3 9 -9 17 -14 17 -5 0 -9 6 -9 14 0 14 -73 112 -100 133 -23 19 -32 15 -18 -7z"/>
 <path d="M7240 8483 c0 -23 13 -143 45 -423 23 -202 63 -514 95 -750 11 -80 23 -163 26 -185 36 -263 124 -810 190 -1168 30 -164 57 -326 60 -361 7 -76 -8 -163 -38 -224 -31 -61 -145 -175 -248 -247 -73 -51 -135 -96 -274 -198 -17 -12 -57 -43 -90 -68 -34 -25 -83 -62 -111 -83 -27 -20 -57 -43 -65 -49 -9 -7 -45 -34 -80 -62 -36 -27 -67 -52 -70 -55 -3 -3 -23 -18 -45 -35 -22 -16 -42 -32 -45 -35 -3 -3 -21 -17 -40 -30 -19 -13 -37 -27 -40 -30 -3 -3 -50 -41 -105 -85 -55 -44 -102 -82 -105 -85 -3 -3 -50 -41 -105 -85 -55 -44 -105 -84 -111 -90 -6 -5 -30 -26 -54 -45 -24 -19 -48 -39 -54 -45 -11 -9 -103 -87 -155 -130 -13 -11 -56 -47 -95 -81 -39 -33 -84 -71 -100 -85 -15 -13 -38 -33 -50 -44 -12 -11 -53 -47 -90 -80 -38 -33 -78 -69 -90 -80 -137 -123 -187 -165 -263 -222 -96 -71 -272 -163 -352 -184 -28 -7 -51 -15 -51 -18 0 -14 131 -60 275 -98 76 -20 126 -26 206 -27 l106 -1 64 44 c38 26 98 84 149 144 116 135 180 204 351 376 223 222 446 434 574 546 44 39 84 75 90 81 5 6 60 53 120 105 61 51 115 98 121 104 6 5 30 26 54 45 24 19 87 71 140 115 53 44 113 94 135 110 21 17 56 45 79 63 54 44 65 52 111 86 22 17 42 33 45 36 3 3 21 17 40 30 19 13 37 27 40 30 3 3 21 17 40 30 19 14 42 30 50 37 27 21 133 98 237 172 118 83 157 120 184 176 40 86 18 254 -117 880 -36 165 -88 415 -115 555 -27 140 -56 287 -65 325 -36 170 -125 641 -144 760 -60 378 -126 561 -233 646 l-27 20 0 -28z"/>
 <path d="M5274 5217 c-3 -9 -12 -17 -19 -17 -7 0 -16 -7 -19 -16 -4 -9 -9 -14 -12 -11 -4 3 -24 -13 -45 -36 -22 -22 -39 -38 -39 -34 0 4 -12 -4 -27 -18 -16 -13 -40 -34 -54 -47 -75 -66 -157 -139 -212 -190 -34 -32 -65 -58 -69 -58 -9 0 -11 -30 -2 -30 3 0 58 48 122 107 113 103 340 296 385 328 16 11 18 18 9 27 -9 9 -13 7 -18 -5z"/>
 <path d="M8170 5132 c-13 -20 -43 -55 -67 -77 -32 -30 -40 -44 -33 -55 8 -12 11 -11 16 7 4 13 10 20 14 18 5 -3 17 8 26 25 10 16 25 32 34 35 16 5 50 55 50 74 0 21 -15 11 -40 -27z"/>
 <path d="M7998 4967 c-155 -106 -328 -240 -328 -255 1 -16 2 -16 14 0 7 10 16 15 19 11 4 -3 7 -1 7 5 0 7 5 12 10 12 6 0 22 12 35 26 14 15 25 24 25 20 0 -6 85 57 100 75 3 3 20 14 38 24 17 11 32 23 32 28 0 4 5 5 10 2 6 -3 13 1 16 9 3 9 10 13 15 10 5 -3 9 0 9 5 0 6 5 11 10 11 10 0 50 36 50 45 0 10 -16 3 -62 -28z"/>
 <path d="M4666 4679 c-49 -49 -93 -89 -98 -89 -4 0 -8 -7 -8 -16 0 -10 -6 -14 -15 -10 -9 3 -15 0 -15 -9 0 -8 -4 -15 -10 -15 -5 0 -10 -7 -10 -15 0 -22 14 -18 42 13 14 15 69 69 122 121 53 52 93 98 89 102 -4 4 -48 -33 -97 -82z"/>
 <path d="M7560 4645 c-47 -36 -101 -76 -120 -89 -19 -13 -60 -45 -90 -71 -83 -70 -89 -75 -99 -75 -5 0 -11 -4 -13 -9 -1 -4 -37 -36 -78 -70 -149 -124 -463 -391 -470 -400 -5 -7 -225 -209 -284 -261 -56 -50 -494 -486 -556 -555 -162 -178 -313 -325 -333 -325 -3 0 -26 -13 -50 -30 -69 -46 -153 -64 -269 -56 -53 3 -104 9 -114 13 -11 4 -15 2 -12 -7 2 -7 13 -15 24 -16 109 -17 186 -23 198 -16 5 3 27 7 49 8 21 2 46 9 55 16 8 7 17 12 18 11 8 -3 44 10 44 16 0 4 16 13 35 21 19 8 35 20 35 27 0 8 4 12 9 8 5 -3 24 8 42 25 19 16 37 30 41 30 5 0 8 7 8 15 0 8 5 15 12 15 13 0 88 79 88 92 0 5 5 6 10 3 6 -3 10 -2 10 3 0 5 20 31 45 58 25 27 45 52 45 56 0 5 7 8 15 8 8 0 15 4 15 9 0 5 18 27 40 50 22 22 40 46 40 52 0 6 6 9 13 6 8 -3 18 7 26 24 7 16 16 27 21 24 4 -3 17 10 29 28 11 17 21 29 21 25 0 -10 60 52 60 63 0 6 4 8 9 5 5 -3 12 1 15 10 3 8 10 12 16 9 5 -3 10 -1 10 6 0 14 101 115 113 111 4 -1 7 5 7 13 0 8 5 15 10 15 6 0 10 7 10 15 0 8 6 12 14 9 8 -3 16 3 19 16 3 12 10 19 16 15 6 -3 11 -2 11 2 0 13 68 83 80 83 5 0 10 7 10 15 0 8 4 14 9 12 5 -1 25 15 45 35 20 20 36 34 36 30 0 -4 8 5 18 21 10 15 22 24 26 20 4 -4 9 3 13 15 3 12 9 19 14 16 5 -3 24 10 41 30 17 19 35 33 40 30 4 -3 8 0 8 6 0 14 16 31 53 54 15 10 27 25 27 33 0 8 5 13 12 11 6 -2 30 15 53 39 24 24 48 43 54 43 6 0 11 7 11 15 0 8 7 15 15 15 8 0 15 5 15 10 0 6 6 10 14 10 8 0 17 9 21 19 4 12 12 18 21 14 8 -3 14 1 14 11 0 9 7 16 15 16 8 0 15 7 15 16 0 10 6 14 15 10 9 -3 15 0 15 9 0 8 5 15 10 15 6 0 31 20 55 44 25 24 47 41 50 38 2 -3 16 7 29 21 14 15 28 27 31 27 4 0 21 15 38 33 18 19 38 32 45 30 6 -3 12 2 12 11 0 9 7 16 15 16 8 0 15 3 15 8 0 4 17 18 37 32 21 14 47 35 59 48 12 12 26 22 33 22 6 0 11 5 11 10 0 6 7 10 15 10 8 0 15 7 15 16 0 8 5 12 10 9 6 -3 13 1 16 9 3 9 10 13 15 10 5 -3 9 0 9 5 0 6 7 11 15 11 8 0 15 5 15 10 0 6 7 10 15 10 8 0 15 7 15 15 0 8 -3 15 -7 15 -5 0 -46 -30 -93 -65z"/>
 <path d="M4484 4502 c-4 -12 -10 -22 -15 -22 -13 0 -58 -53 -53 -62 3 -4 -2 -8 -10 -8 -9 0 -16 -5 -16 -11 0 -5 -4 -7 -10 -4 -5 3 -10 0 -10 -8 0 -8 -11 -22 -25 -31 -14 -9 -25 -23 -25 -31 0 -8 -5 -15 -12 -15 -16 0 -59 -50 -53 -60 3 -4 -6 -11 -20 -14 -14 -4 -25 -13 -25 -21 0 -8 -4 -15 -10 -15 -5 0 -10 -7 -10 -15 0 -8 -7 -15 -15 -15 -8 0 -15 -7 -15 -16 0 -8 -4 -13 -9 -10 -4 3 -13 -6 -19 -19 -21 -45 2 -27 92 73 49 53 134 143 189 200 79 80 98 105 89 114 -10 10 -14 8 -18 -10z"/>
 <path d="M4086 4075 c-9 -14 -30 -38 -46 -54 -17 -15 -30 -31 -30 -35 0 -4 -11 -18 -25 -32 -14 -14 -25 -30 -25 -36 0 -6 -3 -8 -6 -5 -4 3 -20 -13 -37 -36 -17 -23 -34 -43 -39 -45 -4 -2 -8 -10 -8 -18 0 -8 -4 -14 -10 -14 -5 0 -10 -4 -10 -10 0 -21 16 -7 65 53 28 33 85 101 129 150 51 58 75 92 69 98 -7 7 -16 1 -27 -16z"/>
 <path d="M3830 3757 c0 -8 -14 -33 -31 -57 -17 -23 -37 -61 -46 -84 -20 -56 -20 -169 1 -201 9 -14 14 -25 10 -25 -4 0 0 -7 7 -16 7 -9 18 -25 24 -37 5 -11 15 -22 21 -24 7 -2 -4 27 -23 64 -30 58 -35 78 -36 139 0 59 4 79 29 125 15 30 36 65 46 78 20 26 24 51 8 51 -5 0 -10 -6 -10 -13z"/>
 <path d="M3850 3260 c0 -5 7 -10 15 -10 8 0 15 -5 15 -12 0 -6 3 -8 6 -5 8 8 -14 37 -27 37 -5 0 -9 -4 -9 -10z"/>
 <path d="M3900 3213 c1 -5 34 -30 75 -58 41 -27 75 -53 75 -57 0 -5 6 -8 14 -8 8 0 16 -6 19 -12 2 -7 8 -10 12 -6 12 11 -3 26 -73 71 -37 24 -73 51 -81 60 -14 17 -41 23 -41 10z"/>
 <path d="M4110 3072 c0 -5 11 -15 25 -22 14 -7 25 -17 25 -22 0 -4 9 -8 19 -8 11 0 26 -7 35 -15 8 -8 21 -15 29 -15 8 0 20 -7 27 -15 7 -8 20 -15 30 -15 10 0 23 -7 30 -15 14 -17 30 -20 30 -5 0 5 -17 18 -37 28 -21 10 -77 40 -125 66 -49 26 -88 43 -88 38z"/>
 <path d="M4383 2922 c16 -17 57 -27 57 -14 0 8 -48 32 -64 32 -5 0 -2 -8 7 -18z"/>
 <path d="M4450 2903 c0 -12 31 -34 40 -28 5 3 10 1 10 -4 0 -6 7 -11 15 -11 28 0 15 17 -25 33 -22 8 -40 13 -40 10z"/>
 <path d="M4600 2845 c0 -13 30 -36 40 -30 5 3 10 1 10 -5 0 -7 6 -10 13 -7 6 2 49 -9 95 -24 52 -18 82 -24 79 -16 -2 7 -15 15 -28 19 -61 18 -176 55 -191 62 -10 5 -18 5 -18 1z"/>
 <path d="M4850 2761 c0 -14 12 -20 54 -25 20 -2 51 -9 69 -15 49 -16 87 -21 87 -11 0 10 -6 11 -105 35 -38 9 -78 19 -87 21 -10 3 -18 1 -18 -5z"/>
 </g>
<g id="layer104" fill="#fe5964" stroke="none">
 <path d="M6210 9318 c0 -4 -3 -7 -7 -6 -12 4 -58 -31 -50 -38 3 -4 19 1 34 11 15 10 46 19 70 19 24 1 42 5 40 11 -4 12 -87 14 -87 3z"/>
 <path d="M6310 9307 c0 -15 58 -39 65 -27 3 4 -6 11 -20 14 -14 4 -25 11 -25 16 0 6 -4 10 -10 10 -5 0 -10 -6 -10 -13z"/>
 <path d="M6390 9272 c0 -11 93 -50 104 -44 6 3 -1 10 -15 16 -13 6 -27 15 -30 20 -4 4 -12 5 -18 2 -6 -4 -11 -2 -11 3 0 6 -7 11 -15 11 -8 0 -15 -3 -15 -8z"/>
 <path d="M6105 9199 c-3 -24 -3 -82 0 -129 4 -47 8 -98 9 -115 1 -16 6 -50 10 -75 4 -25 9 -79 11 -120 1 -41 4 -75 5 -75 1 0 3 -20 5 -45 3 -43 14 -204 20 -280 1 -19 6 -75 9 -125 4 -49 9 -99 11 -110 2 -11 4 -37 4 -58 1 -21 5 -36 9 -33 4 2 4 51 0 108 -22 293 -51 654 -67 823 -10 111 -14 205 -10 225 5 19 4 39 -1 44 -5 5 -11 -10 -15 -35z"/>
 <path d="M6550 9205 c0 -8 6 -15 14 -15 13 0 61 -19 153 -61 49 -22 53 -23 53 -9 0 5 -11 12 -25 16 -14 3 -25 10 -25 16 0 5 -6 8 -12 7 -7 -2 -30 5 -52 14 -21 9 -42 17 -47 17 -5 0 -9 5 -9 11 0 6 -7 9 -15 5 -8 -3 -15 -1 -15 4 0 6 -4 10 -10 10 -5 0 -10 -7 -10 -15z"/>
 <path d="M6862 9078 c5 -15 28 -23 28 -10 0 5 -7 13 -16 16 -10 4 -14 1 -12 -6z"/>
 <path d="M6932 9048 c4 -11 58 -31 66 -24 3 4 -56 36 -65 36 -3 0 -3 -5 -1 -12z"/>
 <path d="M7012 9018 c5 -15 28 -23 28 -10 0 5 -7 13 -16 16 -10 4 -14 1 -12 -6z"/>
 <path d="M7050 9001 c0 -5 7 -12 16 -15 24 -9 28 -7 14 9 -14 17 -30 20 -30 6z"/>
 <path d="M7161 8947 c-1 -5 8 -20 19 -34 11 -14 20 -34 20 -44 0 -24 10 -49 21 -49 11 0 -1 64 -13 68 -4 2 -8 12 -8 23 0 10 -6 19 -14 19 -8 0 -17 6 -19 13 -3 6 -6 8 -6 4z"/>
 <path d="M6434 8858 c3 -40 13 -152 21 -248 15 -188 41 -546 50 -700 15 -269 25 -471 30 -620 3 -91 8 -210 10 -265 2 -55 7 -266 10 -470 3 -203 8 -406 11 -450 8 -130 -11 -256 -49 -327 -42 -80 -124 -160 -238 -235 -52 -34 -98 -66 -104 -70 -5 -5 -41 -27 -79 -48 -38 -22 -79 -47 -91 -55 -12 -8 -35 -24 -51 -35 -136 -91 -503 -374 -644 -494 -241 -208 -333 -293 -561 -520 -329 -329 -593 -625 -585 -657 14 -54 27 -74 61 -89 19 -10 49 -35 66 -56 38 -48 101 -91 155 -107 81 -24 210 -13 291 24 17 8 35 14 40 14 23 0 222 131 312 205 49 40 218 189 301 265 122 111 321 284 420 365 47 38 94 77 105 87 11 10 72 59 135 110 63 50 129 103 146 117 17 14 47 38 65 53 19 14 81 64 139 110 58 46 124 97 146 113 45 33 484 362 576 432 31 23 59 43 63 43 3 0 11 5 18 10 7 6 35 28 63 50 28 22 59 51 68 66 36 54 35 158 -3 324 -28 125 -133 746 -186 1105 -13 94 -29 199 -34 235 -13 86 -28 189 -46 330 -8 63 -21 167 -29 230 -8 63 -20 160 -26 215 -6 55 -15 132 -21 170 -5 39 -18 162 -29 275 -29 300 -41 371 -59 377 -9 3 -40 17 -69 29 -29 13 -56 24 -60 24 -4 1 -25 9 -47 20 -22 11 -45 19 -51 20 -5 0 -34 11 -62 25 -29 14 -56 25 -60 25 -9 0 -60 22 -94 41 -29 15 -30 12 -24 -63z"/>
 <path d="M7310 8801 c0 -5 7 -12 16 -15 24 -9 28 -7 14 9 -14 17 -30 20 -30 6z"/>
 <path d="M7370 8772 c0 -12 65 -62 79 -62 6 0 11 5 11 10 0 6 -7 10 -15 10 -8 0 -15 4 -15 8 0 4 -13 16 -30 25 -16 10 -30 14 -30 9z"/>
 <path d="M7470 8692 c0 -10 22 -32 32 -32 15 0 8 15 -12 28 -11 7 -20 9 -20 4z"/>
 <path d="M7510 8640 c0 -5 3 -10 8 -10 4 0 18 -18 32 -40 23 -37 40 -51 40 -32 0 12 -63 92 -72 92 -4 0 -8 -4 -8 -10z"/>
 <path d="M7590 8535 c0 -3 17 -40 39 -83 42 -85 71 -168 96 -279 9 -40 20 -73 24 -73 8 0 4 54 -6 80 -3 8 -7 26 -9 39 -2 13 -8 29 -13 34 -6 6 -11 19 -11 28 0 20 -55 164 -76 199 -8 14 -18 33 -21 43 -5 15 -23 25 -23 12z"/>
 <path d="M7240 8483 c0 -23 13 -143 45 -423 23 -202 63 -514 95 -750 11 -80 23 -163 26 -185 36 -263 124 -810 190 -1168 30 -164 57 -326 60 -361 7 -76 -8 -163 -38 -224 -31 -61 -145 -175 -248 -247 -73 -51 -135 -96 -274 -198 -17 -12 -57 -43 -90 -68 -34 -25 -83 -62 -111 -83 -27 -20 -57 -43 -65 -49 -9 -7 -45 -34 -80 -62 -36 -27 -67 -52 -70 -55 -3 -3 -23 -18 -45 -35 -22 -16 -42 -32 -45 -35 -3 -3 -21 -17 -40 -30 -19 -13 -37 -27 -40 -30 -3 -3 -50 -41 -105 -85 -55 -44 -102 -82 -105 -85 -3 -3 -50 -41 -105 -85 -55 -44 -105 -84 -111 -90 -6 -5 -30 -26 -54 -45 -24 -19 -48 -39 -54 -45 -11 -9 -103 -87 -155 -130 -13 -11 -56 -47 -95 -81 -39 -33 -84 -71 -100 -85 -15 -13 -38 -33 -50 -44 -12 -11 -53 -47 -90 -80 -38 -33 -78 -69 -90 -80 -137 -123 -187 -165 -263 -222 -96 -71 -272 -163 -352 -184 -28 -7 -51 -15 -51 -18 0 -14 131 -60 275 -98 76 -20 126 -26 206 -27 l106 -1 64 44 c38 26 98 84 149 144 116 135 180 204 351 376 223 222 446 434 574 546 44 39 84 75 90 81 5 6 60 53 120 105 61 51 115 98 121 104 6 5 30 26 54 45 24 19 87 71 140 115 53 44 113 94 135 110 21 17 56 45 79 63 54 44 65 52 111 86 22 17 42 33 45 36 3 3 21 17 40 30 19 13 37 27 40 30 3 3 21 17 40 30 19 14 42 30 50 37 27 21 133 98 237 172 118 83 157 120 184 176 40 86 18 254 -117 880 -36 165 -88 415 -115 555 -27 140 -56 287 -65 325 -36 170 -125 641 -144 760 -60 378 -126 561 -233 646 l-27 20 0 -28z"/>
 <path d="M7750 8080 c0 -6 29 -155 65 -333 35 -177 69 -347 74 -377 67 -370 258 -1337 296 -1495 53 -222 76 -368 74 -475 0 -49 -23 -156 -43 -202 -5 -11 -4 -18 3 -18 19 0 53 141 56 235 2 50 0 94 -3 100 -3 5 -7 28 -9 50 -3 36 -6 55 -20 130 -2 11 -4 28 -4 38 0 9 -4 17 -7 17 -4 0 -8 10 -9 23 -1 12 -6 40 -12 62 -5 22 -17 74 -26 115 -9 41 -20 91 -25 111 -5 19 -12 51 -14 70 -3 18 -12 64 -21 101 -8 37 -18 89 -21 115 -3 26 -8 51 -10 55 -7 10 -16 54 -19 88 -1 14 -4 27 -5 30 -1 3 -2 8 -2 11 0 3 -4 23 -9 45 -17 69 -34 173 -30 188 1 5 -2 12 -7 15 -11 6 -16 36 -28 139 -3 34 -10 62 -14 62 -4 0 -10 21 -14 48 -3 26 -8 65 -11 87 -4 22 -13 69 -22 105 -8 36 -17 83 -20 105 -2 22 -10 67 -18 100 -24 103 -55 273 -60 327 -3 28 -9 56 -14 62 -5 6 -12 34 -16 61 -4 28 -12 66 -18 85 -13 42 -14 44 -15 93 -1 20 -6 37 -12 37 -5 0 -10 -5 -10 -10z"/>
 <path d="M6195 7933 c9 -125 15 -231 20 -363 2 -63 6 -160 9 -215 10 -183 21 -630 27 -1088 1 -66 6 -120 12 -124 14 -9 2 655 -23 1237 -15 327 -23 483 -26 500 -1 8 -3 43 -3 78 -1 36 -5 62 -12 62 -7 0 -8 -29 -4 -87z"/>
 <path d="M6260 6058 c-1 -40 -3 -84 -5 -98 -2 -14 -4 -31 -4 -38 -1 -7 -5 -10 -11 -7 -5 3 -10 -1 -10 -9 0 -8 -13 -23 -30 -33 -16 -9 -30 -21 -30 -26 0 -4 -4 -6 -9 -3 -5 3 -12 -1 -15 -10 -3 -8 -10 -12 -16 -9 -5 3 -10 -1 -10 -9 0 -10 -6 -13 -15 -10 -8 4 -17 -1 -21 -10 -3 -9 -11 -16 -18 -16 -6 -1 -26 -14 -45 -30 -19 -16 -38 -27 -42 -25 -4 3 -10 -2 -13 -11 -3 -8 -10 -12 -16 -9 -6 3 -13 -1 -16 -9 -3 -9 -12 -16 -19 -16 -6 0 -25 -11 -41 -25 -16 -14 -37 -28 -46 -31 -10 -3 -18 -11 -18 -18 0 -6 -9 -12 -20 -13 -11 -1 -25 -7 -32 -13 -51 -43 -74 -60 -81 -60 -4 0 -17 -9 -29 -20 -12 -10 -25 -17 -30 -14 -4 3 -8 -1 -8 -9 0 -8 -15 -22 -32 -31 -18 -8 -51 -31 -73 -51 -22 -19 -43 -35 -46 -35 -4 0 -21 -12 -37 -27 -47 -43 -75 -64 -99 -76 -13 -5 -23 -17 -23 -24 0 -8 -5 -11 -10 -8 -6 3 -13 -1 -16 -9 -3 -9 -12 -16 -19 -16 -7 0 -16 -7 -19 -16 -4 -9 -9 -14 -12 -11 -4 3 -24 -13 -45 -36 -22 -22 -39 -38 -39 -34 0 4 -12 -4 -27 -18 -16 -13 -40 -34 -54 -47 -75 -66 -157 -139 -212 -190 -34 -32 -65 -58 -69 -58 -5 0 -8 -7 -8 -16 0 -8 -4 -13 -9 -10 -11 7 -43 -28 -34 -37 3 -4 0 -7 -8 -7 -8 0 -43 -30 -78 -65 -36 -36 -68 -65 -73 -65 -4 0 -8 -7 -8 -15 0 -21 7 -19 38 13 118 116 285 271 402 372 41 36 80 70 85 76 6 6 35 30 65 55 60 48 97 79 114 94 6 6 29 24 50 40 22 17 94 72 160 123 67 51 261 187 431 301 171 115 320 219 332 232 11 13 26 42 32 64 13 48 15 185 2 185 -5 0 -10 -33 -11 -72z"/>
 <path d="M8171 5129 c-17 -24 -29 -44 -27 -46 9 -9 35 12 52 42 27 50 11 52 -25 4z"/>
 <path d="M8094 5041 c-22 -20 -29 -33 -23 -42 7 -11 10 -9 15 8 4 13 10 21 14 18 4 -3 15 6 24 20 22 33 8 31 -30 -4z"/>
 <path d="M8025 4984 c-11 -8 -27 -19 -35 -24 -12 -7 -13 -11 -2 -21 9 -10 12 -10 12 -1 0 7 5 12 10 12 10 0 50 36 50 45 0 9 -15 5 -35 -11z"/>
 <path d="M7920 4908 c-25 -18 -81 -58 -125 -91 -43 -32 -86 -62 -95 -67 -12 -7 -13 -11 -2 -21 9 -10 12 -10 12 -1 0 7 5 12 10 12 6 0 22 12 35 26 14 15 25 24 25 20 0 -7 75 50 108 82 7 6 17 12 21 12 4 0 17 9 29 20 12 11 25 20 29 19 4 0 9 4 11 10 6 18 -11 12 -58 -21z"/>
 <path d="M7624 4693 c-11 -10 -80 -64 -154 -120 -74 -56 -144 -110 -155 -120 -11 -10 -51 -43 -90 -73 -76 -59 -301 -246 -325 -270 -8 -8 -37 -33 -63 -54 -30 -25 -44 -42 -37 -46 7 -4 30 11 55 36 23 24 48 44 54 44 6 0 11 7 11 15 0 8 7 15 15 15 8 0 15 5 15 10 0 6 6 10 14 10 8 0 17 9 21 19 4 12 12 18 21 14 8 -3 14 1 14 11 0 9 7 16 15 16 8 0 15 7 15 16 0 10 6 14 15 10 9 -3 15 0 15 9 0 8 5 15 10 15 6 0 31 20 55 44 25 24 47 41 50 38 2 -3 16 7 29 21 14 15 28 27 31 27 4 0 21 15 38 33 18 19 38 32 45 30 6 -3 12 2 12 11 0 9 7 16 15 16 8 0 15 3 15 8 0 4 17 18 37 32 21 14 47 35 59 48 12 12 26 22 33 22 6 0 11 5 11 10 0 6 7 10 15 10 8 0 15 7 15 16 0 8 5 12 10 9 6 -3 13 1 16 9 3 9 10 13 15 10 5 -3 9 0 9 5 0 6 7 11 15 11 8 0 15 5 15 10 0 6 7 10 15 10 8 0 15 7 15 15 0 20 -12 19 -36 -2z"/>
 <path d="M4530 4556 c0 -9 -4 -16 -10 -16 -5 0 -10 -7 -10 -16 0 -8 -5 -12 -11 -9 -6 4 -13 -2 -16 -14 -3 -11 -13 -23 -22 -26 -21 -7 -56 -55 -40 -55 13 0 129 118 129 131 0 4 -4 11 -10 14 -5 3 -10 -1 -10 -9z"/>
 <path d="M4390 4399 c0 -5 -4 -7 -10 -4 -5 3 -10 0 -10 -8 0 -8 -11 -22 -25 -31 -14 -9 -25 -23 -25 -31 0 -8 -5 -15 -12 -15 -15 0 -60 -51 -53 -59 6 -6 155 139 155 151 0 5 -4 8 -10 8 -5 0 -10 -5 -10 -11z"/>
 <path d="M4223 4233 c-7 -2 -13 -11 -13 -18 0 -7 -6 -15 -12 -18 -7 -2 -10 -8 -5 -12 4 -5 18 2 32 15 34 32 33 48 -2 33z"/>
 <path d="M4160 4154 c0 -8 -4 -13 -9 -10 -9 6 -21 -15 -21 -35 0 -15 16 -2 40 31 18 25 19 30 6 30 -9 0 -16 -7 -16 -16z"/>
 <path d="M4086 4075 c-9 -14 -30 -38 -46 -54 -17 -15 -30 -31 -30 -35 0 -4 -11 -18 -25 -32 -14 -14 -25 -30 -25 -36 0 -6 -3 -8 -6 -5 -4 3 -20 -13 -37 -36 -17 -23 -34 -43 -39 -45 -4 -2 -8 -10 -8 -17 0 -7 -6 -15 -12 -18 -7 -2 -10 -8 -5 -12 4 -5 8 -6 10 -4 12 17 205 247 217 259 30 30 41 48 32 54 -6 3 -17 -6 -26 -19z"/>
 <path d="M6758 3986 c-10 -7 -56 -48 -104 -92 -48 -43 -94 -84 -102 -90 -9 -6 -12 -16 -7 -23 5 -9 12 -5 24 13 10 14 21 23 25 19 4 -4 9 3 13 15 3 12 9 19 14 16 5 -3 24 10 41 30 17 19 35 33 40 30 4 -3 8 0 8 6 0 14 16 31 53 54 15 10 27 22 27 27 0 12 -12 11 -32 -5z"/>
 <path d="M6417 3677 c-94 -90 -115 -117 -86 -117 3 0 9 9 12 21 3 12 10 18 16 14 6 -3 11 -2 11 2 0 13 68 83 80 83 5 0 10 7 10 15 0 8 3 14 8 13 9 -3 72 52 72 64 0 18 -20 3 -123 -95z"/>
 <path d="M3830 3757 c0 -8 -14 -33 -31 -57 -17 -23 -37 -61 -46 -84 -20 -56 -20 -169 1 -201 9 -14 14 -25 10 -25 -4 0 0 -7 7 -16 7 -9 18 -25 24 -37 5 -11 16 -22 23 -25 7 -2 -5 25 -25 59 -35 58 -38 69 -37 139 0 77 24 149 64 195 20 23 32 65 19 65 -5 0 -9 -6 -9 -13z"/>
 <path d="M6273 3538 c-11 -13 -66 -67 -122 -121 -56 -54 -99 -102 -96 -106 6 -10 65 45 65 60 0 6 4 8 9 5 5 -3 12 1 15 10 3 8 10 12 16 9 5 -3 10 -1 10 6 0 14 101 115 113 111 4 -1 7 5 7 13 0 8 5 15 10 15 6 0 10 5 10 10 0 17 -15 11 -37 -12z"/>
 <path d="M5943 3208 c-49 -51 -110 -115 -134 -143 -98 -111 -235 -239 -306 -286 -105 -68 -161 -83 -293 -76 -58 3 -113 8 -124 13 -13 5 -17 3 -14 -6 2 -7 13 -15 24 -16 109 -17 186 -23 198 -16 5 3 27 7 49 8 21 2 46 9 55 16 8 7 17 12 18 11 8 -3 44 10 44 16 0 4 16 13 35 21 19 8 35 20 35 27 0 8 4 12 9 8 5 -3 24 8 42 25 19 16 37 30 41 30 5 0 8 7 8 15 0 8 5 15 12 15 13 0 88 79 88 92 0 5 5 6 10 3 6 -3 10 -2 10 3 0 5 20 31 45 58 25 27 45 52 45 56 0 5 7 8 15 8 8 0 15 4 15 9 0 5 18 27 40 50 22 22 40 46 40 52 0 6 6 9 13 6 8 -3 18 7 26 24 7 16 16 27 21 24 4 -3 15 6 24 20 32 49 -3 23 -91 -67z"/>
 <path d="M3850 3260 c0 -5 7 -10 15 -10 8 0 15 -5 15 -12 0 -6 3 -8 6 -5 8 8 -14 37 -27 37 -5 0 -9 -4 -9 -10z"/>
 <path d="M3900 3213 c0 -5 21 -21 48 -38 47 -29 72 -48 97 -72 8 -7 18 -13 23 -13 6 0 12 -6 15 -12 2 -8 8 -9 13 -4 5 5 -2 15 -16 25 -13 9 -56 40 -95 69 -68 51 -85 60 -85 45z"/>
 <path d="M4148 3039 c13 -11 28 -19 34 -17 15 5 -19 38 -40 38 -13 0 -11 -4 6 -21z"/>
 <path d="M4200 3024 c0 -11 29 -34 43 -34 8 0 20 -7 27 -15 7 -8 20 -15 30 -15 10 0 23 -7 30 -15 14 -17 34 -20 28 -6 -3 11 -158 93 -158 85z"/>
 <path d="M4380 2925 c7 -8 17 -15 22 -15 6 0 5 7 -2 15 -7 8 -17 15 -22 15 -6 0 -5 -7 2 -15z"/>
 <path d="M4464 2884 c9 -8 20 -13 25 -10 5 4 11 0 14 -6 3 -10 8 -10 17 -2 9 9 4 14 -21 23 -44 15 -53 14 -35 -5z"/>
 <path d="M4614 2824 c9 -8 20 -12 26 -9 5 3 10 1 10 -5 0 -7 6 -10 13 -7 6 2 43 -7 81 -20 69 -23 106 -29 93 -16 -7 6 -214 72 -230 73 -5 0 -1 -7 7 -16z"/>
 <path d="M4850 2762 c0 -15 12 -21 54 -26 20 -2 51 -9 69 -15 50 -16 87 -21 87 -11 0 6 -12 12 -27 16 -16 3 -55 12 -87 20 -32 8 -61 12 -64 9 -3 -3 -11 0 -19 6 -9 8 -13 8 -13 1z"/>
 </g>
<g id="layer105" fill="#6bf078" stroke="none">
 <path d="M6210 9318 c0 -4 -3 -7 -7 -6 -12 4 -58 -31 -50 -38 3 -4 19 1 34 11 15 10 46 19 70 19 24 1 42 5 40 11 -4 12 -87 14 -87 3z"/>
 <path d="M6310 9307 c0 -15 58 -39 65 -27 3 4 -6 11 -20 14 -14 4 -25 11 -25 16 0 6 -4 10 -10 10 -5 0 -10 -6 -10 -13z"/>
 <path d="M6390 9272 c0 -11 93 -50 104 -44 6 3 -1 10 -15 16 -13 6 -27 15 -30 20 -4 4 -12 5 -18 2 -6 -4 -11 -2 -11 3 0 6 -7 11 -15 11 -8 0 -15 -3 -15 -8z"/>
 <path d="M6105 9199 c-3 -24 -3 -82 0 -129 4 -47 8 -98 9 -115 1 -16 6 -50 10 -75 4 -25 9 -79 11 -120 1 -41 4 -75 5 -75 1 0 3 -20 5 -45 3 -43 14 -204 20 -280 1 -19 6 -75 9 -125 4 -49 9 -99 11 -110 2 -11 4 -37 4 -58 1 -21 5 -36 9 -33 4 2 4 51 0 108 -22 293 -51 654 -67 823 -10 111 -14 205 -10 225 5 19 4 39 -1 44 -5 5 -11 -10 -15 -35z"/>
 <path d="M6550 9205 c0 -8 6 -15 14 -15 13 0 61 -19 153 -61 49 -22 53 -23 53 -9 0 5 -11 12 -25 16 -14 3 -25 10 -25 16 0 5 -6 8 -12 7 -7 -2 -30 5 -52 14 -21 9 -42 17 -47 17 -5 0 -9 5 -9 11 0 6 -7 9 -15 5 -8 -3 -15 -1 -15 4 0 6 -4 10 -10 10 -5 0 -10 -7 -10 -15z"/>
 <path d="M6862 9078 c5 -15 28 -23 28 -10 0 5 -7 13 -16 16 -10 4 -14 1 -12 -6z"/>
 <path d="M6932 9048 c4 -11 58 -31 66 -24 3 4 -56 36 -65 36 -3 0 -3 -5 -1 -12z"/>
 <path d="M7012 9018 c5 -15 28 -23 28 -10 0 5 -7 13 -16 16 -10 4 -14 1 -12 -6z"/>
 <path d="M7050 9001 c0 -5 7 -12 16 -15 24 -9 28 -7 14 9 -14 17 -30 20 -30 6z"/>
 <path d="M7161 8947 c-1 -5 8 -20 19 -34 11 -14 20 -34 20 -44 0 -24 10 -49 21 -49 11 0 -1 64 -13 68 -4 2 -8 12 -8 23 0 10 -6 19 -14 19 -8 0 -17 6 -19 13 -3 6 -6 8 -6 4z"/>
 <path d="M6434 8858 c3 -40 13 -152 21 -248 15 -188 41 -546 50 -700 15 -269 25 -471 30 -620 3 -91 8 -210 10 -265 2 -55 7 -266 10 -470 3 -203 8 -406 11 -450 8 -130 -11 -256 -49 -327 -42 -80 -124 -160 -238 -235 -52 -34 -98 -66 -104 -70 -5 -5 -41 -27 -79 -48 -38 -22 -79 -47 -91 -55 -12 -8 -35 -24 -51 -35 -136 -91 -503 -374 -644 -494 -241 -208 -333 -293 -561 -520 -329 -329 -593 -625 -585 -657 14 -54 27 -74 61 -89 19 -10 49 -35 66 -56 38 -48 101 -91 155 -107 81 -24 210 -13 291 24 17 8 35 14 40 14 23 0 222 131 312 205 49 40 218 189 301 265 122 111 321 284 420 365 47 38 94 77 105 87 11 10 72 59 135 110 63 50 129 103 146 117 17 14 47 38 65 53 19 14 81 64 139 110 58 46 124 97 146 113 45 33 484 362 576 432 31 23 59 43 63 43 3 0 11 5 18 10 7 6 35 28 63 50 28 22 59 51 68 66 36 54 35 158 -3 324 -28 125 -133 746 -186 1105 -13 94 -29 199 -34 235 -13 86 -28 189 -46 330 -8 63 -21 167 -29 230 -8 63 -20 160 -26 215 -6 55 -15 132 -21 170 -5 39 -18 162 -29 275 -29 300 -41 371 -59 377 -9 3 -40 17 -69 29 -29 13 -56 24 -60 24 -4 1 -25 9 -47 20 -22 11 -45 19 -51 20 -5 0 -34 11 -62 25 -29 14 -56 25 -60 25 -9 0 -60 22 -94 41 -29 15 -30 12 -24 -63z"/>
 <path d="M7310 8801 c0 -5 7 -12 16 -15 24 -9 28 -7 14 9 -14 17 -30 20 -30 6z"/>
 <path d="M7370 8772 c0 -12 65 -62 79 -62 6 0 11 5 11 10 0 6 -7 10 -15 10 -8 0 -15 4 -15 8 0 4 -13 16 -30 25 -16 10 -30 14 -30 9z"/>
 <path d="M7470 8692 c0 -10 22 -32 32 -32 15 0 8 15 -12 28 -11 7 -20 9 -20 4z"/>
 <path d="M7510 8640 c0 -5 3 -10 8 -10 4 0 18 -18 32 -40 23 -37 40 -51 40 -32 0 12 -63 92 -72 92 -4 0 -8 -4 -8 -10z"/>
 <path d="M7590 8535 c0 -3 17 -40 39 -83 42 -85 71 -168 96 -279 9 -40 20 -73 24 -73 8 0 4 54 -6 80 -3 8 -7 26 -9 39 -2 13 -8 29 -13 34 -6 6 -11 19 -11 28 0 20 -55 164 -76 199 -8 14 -18 33 -21 43 -5 15 -23 25 -23 12z"/>
 <path d="M7249 8388 c4 -28 6 -29 9 -9 2 13 0 27 -5 32 -6 6 -7 -3 -4 -23z"/>
 <path d="M7370 8338 c0 -11 30 -78 35 -78 3 0 -2 17 -10 37 -15 36 -25 52 -25 41z"/>
 <path d="M7750 8080 c0 -6 29 -155 65 -333 35 -177 69 -347 74 -377 67 -370 258 -1337 296 -1495 53 -222 76 -368 74 -475 0 -49 -23 -156 -43 -202 -5 -11 -4 -18 3 -18 19 0 53 141 56 235 2 50 0 94 -3 100 -3 5 -7 28 -9 50 -3 36 -6 55 -20 130 -2 11 -4 28 -4 38 0 9 -4 17 -7 17 -4 0 -8 10 -9 23 -1 12 -6 40 -12 62 -5 22 -17 74 -26 115 -9 41 -20 91 -25 111 -5 19 -12 51 -14 70 -3 18 -12 64 -21 101 -8 37 -18 89 -21 115 -3 26 -8 51 -10 55 -7 10 -16 54 -19 88 -1 14 -4 27 -5 30 -1 3 -2 8 -2 11 0 3 -4 23 -9 45 -17 69 -34 173 -30 188 1 5 -2 12 -7 15 -11 6 -16 36 -28 139 -3 34 -10 62 -14 62 -4 0 -10 21 -14 48 -3 26 -8 65 -11 87 -4 22 -13 69 -22 105 -8 36 -17 83 -20 105 -2 22 -10 67 -18 100 -24 103 -55 273 -60 327 -3 28 -9 56 -14 62 -5 6 -12 34 -16 61 -4 28 -12 66 -18 85 -13 42 -14 44 -15 93 -1 20 -6 37 -12 37 -5 0 -10 -5 -10 -10z"/>
 <path d="M6195 7933 c9 -125 15 -231 20 -363 2 -63 6 -160 9 -215 10 -183 21 -630 27 -1088 1 -66 6 -120 12 -124 14 -9 2 655 -23 1237 -15 327 -23 483 -26 500 -1 8 -3 43 -3 78 -1 36 -5 62 -12 62 -7 0 -8 -29 -4 -87z"/>
 <path d="M7474 7940 c3 -19 9 -55 12 -80 3 -25 9 -49 14 -53 4 -5 2 28 -6 73 -7 45 -16 85 -20 89 -4 3 -4 -10 0 -29z"/>
 <path d="M7301 7903 c0 -4 4 -17 9 -28 8 -19 9 -19 9 2 1 12 -3 25 -9 28 -5 3 -10 3 -9 -2z"/>
 <path d="M7505 7745 c3 -27 10 -54 14 -58 5 -5 4 15 -1 45 -13 69 -22 78 -13 13z"/>
 <path d="M7331 7685 c0 -16 4 -37 9 -45 8 -12 10 -11 9 5 -1 11 -5 31 -9 45 -8 24 -8 24 -9 -5z"/>
 <path d="M7541 7554 c5 -26 12 -50 15 -53 9 -9 -7 83 -16 92 -4 5 -4 -13 1 -39z"/>
 <path d="M7362 7455 c0 -16 4 -43 8 -60 l8 -30 0 30 c0 17 -4 44 -8 60 l-8 30 0 -30z"/>
 <path d="M7581 7348 c-1 -16 4 -28 9 -28 12 0 12 8 0 35 -8 18 -9 17 -9 -7z"/>
 <path d="M7612 7210 c0 -14 4 -36 8 -50 l8 -25 0 25 c0 14 -4 36 -8 50 l-8 25 0 -25z"/>
 <path d="M7408 7094 c2 -19 7 -34 11 -34 9 0 1 59 -8 64 -4 3 -5 -11 -3 -30z"/>
 <path d="M7420 7034 c0 -48 28 -199 36 -192 2 3 -3 50 -11 104 -16 95 -25 129 -25 88z"/>
 <path d="M7648 7005 c2 -19 9 -38 15 -42 7 -4 8 0 4 11 -4 10 -7 29 -7 42 0 13 -4 24 -8 24 -4 0 -6 -16 -4 -35z"/>
 <path d="M7682 6850 c0 -14 4 -36 8 -50 l8 -25 0 25 c0 14 -4 36 -8 50 l-8 25 0 -25z"/>
 <path d="M7456 6785 c3 -27 11 -54 16 -60 6 -6 6 7 2 35 -10 65 -26 87 -18 25z"/>
 <path d="M7717 6670 c3 -25 10 -49 14 -55 10 -10 1 47 -12 80 -5 12 -6 2 -2 -25z"/>
 <path d="M7492 6570 c0 -8 4 -26 8 -40 6 -20 8 -21 8 -5 0 11 -3 29 -8 40 -5 12 -8 14 -8 5z"/>
 <path d="M7754 6482 c3 -19 7 -36 10 -40 9 -9 6 31 -5 53 -7 16 -8 13 -5 -13z"/>
 <path d="M7503 6489 c3 -9 8 -41 12 -72 4 -32 12 -57 17 -57 5 0 7 3 5 8 -3 4 -8 32 -12 62 -4 30 -11 60 -17 65 -8 7 -9 5 -5 -6z"/>
 <path d="M7781 6353 c-1 -17 4 -35 9 -38 11 -7 11 9 0 45 -8 24 -8 24 -9 -7z"/>
 <path d="M7530 6325 c0 -14 4 -25 9 -25 4 0 6 11 3 25 -2 14 -6 25 -8 25 -2 0 -4 -11 -4 -25z"/>
 <path d="M7541 6243 c0 -4 4 -17 9 -28 8 -19 9 -19 9 2 1 12 -3 25 -9 28 -5 3 -10 3 -9 -2z"/>
 <path d="M7831 6123 c-1 -12 4 -25 9 -28 12 -7 12 2 0 30 -8 19 -9 19 -9 -2z"/>
 <path d="M6260 6058 c-1 -40 -3 -84 -5 -98 -2 -14 -4 -31 -4 -38 -1 -7 -5 -10 -11 -7 -5 3 -10 -1 -10 -9 0 -8 -13 -23 -30 -33 -16 -9 -30 -21 -30 -26 0 -4 -4 -6 -9 -3 -5 3 -12 -1 -15 -10 -3 -8 -10 -12 -16 -9 -5 3 -10 -1 -10 -9 0 -10 -6 -13 -15 -10 -8 4 -17 -1 -21 -10 -3 -9 -11 -16 -18 -16 -6 -1 -26 -14 -45 -30 -19 -16 -38 -27 -42 -25 -4 3 -10 -2 -13 -11 -3 -8 -10 -12 -16 -9 -6 3 -13 -1 -16 -9 -3 -9 -12 -16 -19 -16 -6 0 -25 -11 -41 -25 -16 -14 -37 -28 -46 -31 -10 -3 -18 -11 -18 -18 0 -6 -9 -12 -20 -13 -11 -1 -25 -7 -32 -13 -51 -43 -74 -60 -81 -60 -4 0 -17 -9 -29 -20 -12 -10 -25 -17 -30 -14 -4 3 -8 -1 -8 -9 0 -8 -15 -22 -32 -31 -18 -8 -51 -31 -73 -51 -22 -19 -43 -35 -46 -35 -4 0 -21 -12 -37 -27 -47 -43 -75 -64 -99 -76 -13 -5 -23 -17 -23 -24 0 -8 -5 -11 -10 -8 -6 3 -13 -1 -16 -9 -3 -9 -12 -16 -19 -16 -7 0 -16 -7 -19 -16 -4 -9 -9 -14 -12 -11 -4 3 -24 -13 -45 -36 -22 -22 -39 -38 -39 -34 0 4 -12 -4 -27 -18 -16 -13 -40 -34 -54 -47 -75 -66 -157 -139 -212 -190 -34 -32 -65 -58 -69 -58 -5 0 -8 -7 -8 -16 0 -8 -4 -13 -9 -10 -11 7 -43 -28 -34 -37 3 -4 0 -7 -8 -7 -8 0 -43 -30 -78 -65 -36 -36 -68 -65 -73 -65 -4 0 -8 -7 -8 -15 0 -21 7 -19 38 13 118 116 285 271 402 372 41 36 80 70 85 76 6 6 35 30 65 55 60 48 97 79 114 94 6 6 29 24 50 40 22 17 94 72 160 123 67 51 261 187 431 301 171 115 320 219 332 232 11 13 26 42 32 64 13 48 15 185 2 185 -5 0 -10 -33 -11 -72z"/>
 <path d="M7597 5955 c3 -27 10 -61 14 -75 6 -16 6 -5 3 30 -4 30 -10 64 -15 75 -6 13 -6 1 -2 -30z"/>
 <path d="M7861 5983 c-1 -12 4 -25 9 -28 12 -7 12 2 0 30 -8 19 -9 19 -9 -2z"/>
 <path d="M7891 5839 c0 -13 4 -33 9 -44 7 -14 8 -8 3 20 -7 46 -13 59 -12 24z"/>
 <path d="M7643 5700 c4 -14 7 -37 7 -52 0 -16 5 -28 10 -28 6 0 8 10 5 23 -3 12 -6 32 -8 44 -2 12 -7 26 -12 30 -4 5 -5 -3 -2 -17z"/>
 <path d="M7650 5476 c0 -31 6 -34 13 -6 3 11 1 23 -4 26 -5 3 -9 -6 -9 -20z"/>
 <path d="M7605 5348 l-16 -33 20 25 c20 24 26 40 16 40 -2 0 -12 -15 -20 -32z"/>
 <path d="M7554 5286 c-9 -15 -14 -29 -12 -32 3 -2 13 7 22 22 10 14 15 28 13 31 -3 2 -13 -7 -23 -21z"/>
 <path d="M7426 5164 c-11 -7 -18 -16 -15 -18 2 -2 13 2 23 10 11 7 18 16 15 18 -2 2 -13 -2 -23 -10z"/>
 <path d="M8171 5129 c-17 -24 -29 -44 -27 -46 9 -9 35 12 52 42 27 50 11 52 -25 4z"/>
 <path d="M7299 5077 c-48 -37 -72 -58 -68 -62 3 -2 18 7 34 21 17 14 37 30 45 34 8 5 13 11 10 13 -3 3 -12 0 -21 -6z"/>
 <path d="M8094 5041 c-22 -20 -29 -33 -23 -42 7 -11 10 -9 15 8 4 13 10 21 14 18 4 -3 15 6 24 20 22 33 8 31 -30 -4z"/>
 <path d="M7591 5044 c-7 -8 -11 -17 -9 -20 3 -2 13 5 23 16 10 11 14 20 9 20 -5 -1 -15 -8 -23 -16z"/>
 <path d="M8025 4984 c-11 -8 -27 -19 -35 -24 -12 -7 -13 -11 -2 -21 9 -10 12 -10 12 -1 0 7 5 12 10 12 10 0 50 36 50 45 0 9 -15 5 -35 -11z"/>
 <path d="M7920 4908 c-25 -18 -81 -58 -125 -91 -43 -32 -86 -62 -95 -67 -12 -7 -13 -11 -2 -21 9 -10 12 -10 12 -1 0 7 5 12 10 12 6 0 22 12 35 26 14 15 25 24 25 20 0 -7 75 50 108 82 7 6 17 12 21 12 4 0 17 9 29 20 12 11 25 20 29 19 4 0 9 4 11 10 6 18 -11 12 -58 -21z"/>
 <path d="M6866 4755 c-11 -8 -18 -17 -15 -19 2 -3 15 4 29 14 14 11 21 20 15 19 -5 0 -19 -6 -29 -14z"/>
 <path d="M6770 4680 l-35 -31 37 23 c21 13 38 26 38 31 0 11 -3 9 -40 -23z"/>
 <path d="M7624 4693 c-11 -10 -80 -64 -154 -120 -74 -56 -144 -110 -155 -120 -11 -10 -51 -43 -90 -73 -76 -59 -301 -246 -325 -270 -8 -8 -37 -33 -63 -54 -30 -25 -44 -42 -37 -46 7 -4 30 11 55 36 23 24 48 44 54 44 6 0 11 7 11 15 0 8 7 15 15 15 8 0 15 5 15 10 0 6 6 10 14 10 8 0 17 9 21 19 4 12 12 18 21 14 8 -3 14 1 14 11 0 9 7 16 15 16 8 0 15 7 15 16 0 10 6 14 15 10 9 -3 15 0 15 9 0 8 5 15 10 15 6 0 31 20 55 44 25 24 47 41 50 38 2 -3 16 7 29 21 14 15 28 27 31 27 4 0 21 15 38 33 18 19 38 32 45 30 6 -3 12 2 12 11 0 9 7 16 15 16 8 0 15 3 15 8 0 4 17 18 37 32 21 14 47 35 59 48 12 12 26 22 33 22 6 0 11 5 11 10 0 6 7 10 15 10 8 0 15 7 15 16 0 8 5 12 10 9 6 -3 13 1 16 9 3 9 10 13 15 10 5 -3 9 0 9 5 0 6 7 11 15 11 8 0 15 5 15 10 0 6 7 10 15 10 8 0 15 7 15 15 0 20 -12 19 -36 -2z"/>
 <path d="M6701 4629 c-13 -10 -19 -19 -14 -19 13 0 49 27 43 33 -3 3 -16 -3 -29 -14z"/>
 <path d="M7026 4609 c-11 -10 -17 -21 -14 -24 2 -3 15 6 28 20 27 29 14 33 -14 4z"/>
 <path d="M4530 4556 c0 -9 -4 -16 -10 -16 -5 0 -10 -7 -10 -16 0 -8 -5 -12 -11 -9 -6 4 -13 -2 -16 -14 -3 -11 -13 -23 -22 -26 -21 -7 -56 -55 -40 -55 13 0 129 118 129 131 0 4 -4 11 -10 14 -5 3 -10 -1 -10 -9z"/>
 <path d="M6526 4494 c-11 -7 -18 -16 -15 -18 2 -2 13 2 23 10 11 7 18 16 15 18 -2 2 -13 -2 -23 -10z"/>
 <path d="M4390 4399 c0 -5 -4 -7 -10 -4 -5 3 -10 0 -10 -8 0 -8 -11 -22 -25 -31 -14 -9 -25 -23 -25 -31 0 -8 -5 -15 -12 -15 -15 0 -60 -51 -53 -59 6 -6 155 139 155 151 0 5 -4 8 -10 8 -5 0 -10 -5 -10 -11z"/>
 <path d="M4223 4233 c-7 -2 -13 -11 -13 -18 0 -7 -6 -15 -12 -18 -7 -2 -10 -8 -5 -12 4 -5 18 2 32 15 34 32 33 48 -2 33z"/>
 <path d="M4160 4154 c0 -8 -4 -13 -9 -10 -9 6 -21 -15 -21 -35 0 -15 16 -2 40 31 18 25 19 30 6 30 -9 0 -16 -7 -16 -16z"/>
 <path d="M4086 4075 c-9 -14 -30 -38 -46 -54 -17 -15 -30 -31 -30 -35 0 -4 -11 -18 -25 -32 -14 -14 -25 -30 -25 -36 0 -6 -3 -8 -6 -5 -4 3 -20 -13 -37 -36 -17 -23 -34 -43 -39 -45 -4 -2 -8 -10 -8 -17 0 -7 -6 -15 -12 -18 -7 -2 -10 -8 -5 -12 4 -5 8 -6 10 -4 12 17 205 247 217 259 30 30 41 48 32 54 -6 3 -17 -6 -26 -19z"/>
 <path d="M6758 3986 c-10 -7 -56 -48 -104 -92 -48 -43 -94 -84 -102 -90 -9 -6 -12 -16 -7 -23 5 -9 12 -5 24 13 10 14 21 23 25 19 4 -4 9 3 13 15 3 12 9 19 14 16 5 -3 24 10 41 30 17 19 35 33 40 30 4 -3 8 0 8 6 0 14 16 31 53 54 15 10 27 22 27 27 0 12 -12 11 -32 -5z"/>
 <path d="M6417 3677 c-94 -90 -115 -117 -86 -117 3 0 9 9 12 21 3 12 10 18 16 14 6 -3 11 -2 11 2 0 13 68 83 80 83 5 0 10 7 10 15 0 8 3 14 8 13 9 -3 72 52 72 64 0 18 -20 3 -123 -95z"/>
 <path d="M3830 3757 c0 -8 -14 -33 -31 -57 -17 -23 -37 -61 -46 -84 -20 -56 -20 -169 1 -201 9 -14 14 -25 10 -25 -4 0 0 -7 7 -16 7 -9 18 -25 24 -37 5 -11 16 -22 23 -25 7 -2 -5 25 -25 59 -35 58 -38 69 -37 139 0 77 24 149 64 195 20 23 32 65 19 65 -5 0 -9 -6 -9 -13z"/>
 <path d="M5596 3724 c-15 -14 -25 -28 -23 -31 3 -2 17 7 32 22 16 14 26 27 24 30 -3 2 -17 -7 -33 -21z"/>
 <path d="M5990 3685 c-7 -9 -11 -18 -8 -20 3 -3 11 1 18 10 7 9 11 18 8 20 -3 3 -11 -1 -18 -10z"/>
 <path d="M5850 3545 c-7 -9 -11 -18 -8 -20 3 -3 11 1 18 10 7 9 11 18 8 20 -3 3 -11 -1 -18 -10z"/>
 <path d="M6273 3538 c-11 -13 -66 -67 -122 -121 -56 -54 -99 -102 -96 -106 6 -10 65 45 65 60 0 6 4 8 9 5 5 -3 12 1 15 10 3 8 10 12 16 9 5 -3 10 -1 10 6 0 14 101 115 113 111 4 -1 7 5 7 13 0 8 5 15 10 15 6 0 10 5 10 10 0 17 -15 11 -37 -12z"/>
 <path d="M5810 3505 c-7 -9 -11 -18 -8 -20 3 -3 11 1 18 10 7 9 11 18 8 20 -3 3 -11 -1 -18 -10z"/>
 <path d="M5760 3455 c-7 -9 -11 -18 -8 -20 3 -3 11 1 18 10 7 9 11 18 8 20 -3 3 -11 -1 -18 -10z"/>
 <path d="M5710 3405 c-7 -9 -11 -18 -8 -20 3 -3 11 1 18 10 7 9 11 18 8 20 -3 3 -11 -1 -18 -10z"/>
 <path d="M5095 3294 l-30 -25 33 17 c17 10 32 22 32 26 0 12 -2 11 -35 -18z"/>
 <path d="M5943 3208 c-49 -51 -110 -115 -134 -143 -98 -111 -235 -239 -306 -286 -105 -68 -161 -83 -293 -76 -58 3 -113 8 -124 13 -13 5 -17 3 -14 -6 2 -7 13 -15 24 -16 109 -17 186 -23 198 -16 5 3 27 7 49 8 21 2 46 9 55 16 8 7 17 12 18 11 8 -3 44 10 44 16 0 4 16 13 35 21 19 8 35 20 35 27 0 8 4 12 9 8 5 -3 24 8 42 25 19 16 37 30 41 30 5 0 8 7 8 15 0 8 5 15 12 15 13 0 88 79 88 92 0 5 5 6 10 3 6 -3 10 -2 10 3 0 5 20 31 45 58 25 27 45 52 45 56 0 5 7 8 15 8 8 0 15 4 15 9 0 5 18 27 40 50 22 22 40 46 40 52 0 6 6 9 13 6 8 -3 18 7 26 24 7 16 16 27 21 24 4 -3 15 6 24 20 32 49 -3 23 -91 -67z"/>
 <path d="M5580 3258 c-31 -47 -33 -53 -11 -33 26 23 46 55 34 55 -5 0 -15 -10 -23 -22z"/>
 <path d="M3850 3260 c0 -5 7 -10 15 -10 8 0 15 -5 15 -12 0 -6 3 -8 6 -5 8 8 -14 37 -27 37 -5 0 -9 -4 -9 -10z"/>
 <path d="M4930 3200 c-30 -16 -49 -29 -43 -30 18 0 103 42 103 52 0 10 4 12 -60 -22z"/>
 <path d="M3900 3213 c0 -5 21 -21 48 -38 47 -29 72 -48 97 -72 8 -7 18 -13 23 -13 6 0 12 -6 15 -12 2 -8 8 -9 13 -4 5 5 -2 15 -16 25 -13 9 -56 40 -95 69 -68 51 -85 60 -85 45z"/>
 <path d="M5485 3143 l-17 -28 23 22 c12 12 20 25 17 28 -3 3 -13 -7 -23 -22z"/>
 <path d="M4800 3089 c0 -5 4 -9 9 -9 5 0 17 -3 27 -7 11 -4 15 -3 11 4 -9 14 -47 24 -47 12z"/>
 <path d="M4148 3039 c13 -11 28 -19 34 -17 15 5 -19 38 -40 38 -13 0 -11 -4 6 -21z"/>
 <path d="M4920 3050 c0 -4 11 -10 25 -12 13 -3 22 -2 20 2 -7 11 -45 20 -45 10z"/>
 <path d="M5353 3034 c-18 -8 -33 -19 -33 -24 0 -12 21 -3 55 24 24 19 20 19 -22 0z"/>
 <path d="M4200 3024 c0 -11 29 -34 43 -34 8 0 20 -7 27 -15 7 -8 20 -15 30 -15 10 0 23 -7 30 -15 14 -17 34 -20 28 -6 -3 11 -158 93 -158 85z"/>
 <path d="M5030 3019 c0 -5 10 -9 22 -9 12 0 18 3 14 7 -10 11 -36 12 -36 2z"/>
 <path d="M4380 2925 c7 -8 17 -15 22 -15 6 0 5 7 -2 15 -7 8 -17 15 -22 15 -6 0 -5 -7 2 -15z"/>
 <path d="M4464 2884 c9 -8 20 -13 25 -10 5 4 11 0 14 -6 3 -10 8 -10 17 -2 9 9 4 14 -21 23 -44 15 -53 14 -35 -5z"/>
 <path d="M4614 2824 c9 -8 20 -12 26 -9 5 3 10 1 10 -5 0 -7 6 -10 13 -7 6 2 43 -7 81 -20 69 -23 106 -29 93 -16 -7 6 -214 72 -230 73 -5 0 -1 -7 7 -16z"/>
 <path d="M4850 2762 c0 -15 12 -21 54 -26 20 -2 51 -9 69 -15 50 -16 87 -21 87 -11 0 6 -12 12 -27 16 -16 3 -55 12 -87 20 -32 8 -61 12 -64 9 -3 -3 -11 0 -19 6 -9 8 -13 8 -13 1z"/>
 </g>
<g id="layer106" fill="#9fa0a0" stroke="none">
 <path d="M6210 9318 c0 -4 -3 -7 -7 -6 -12 4 -58 -31 -50 -38 3 -4 19 1 34 11 15 10 46 19 70 19 24 1 42 5 40 11 -4 12 -87 14 -87 3z"/>
 <path d="M6310 9307 c0 -15 58 -39 65 -27 3 4 -6 11 -20 14 -14 4 -25 11 -25 16 0 6 -4 10 -10 10 -5 0 -10 -6 -10 -13z"/>
 <path d="M6390 9272 c0 -11 93 -50 104 -44 6 3 -1 10 -15 16 -13 6 -27 15 -30 20 -4 4 -12 5 -18 2 -6 -4 -11 -2 -11 3 0 6 -7 11 -15 11 -8 0 -15 -3 -15 -8z"/>
 <path d="M6105 9199 c-3 -24 -3 -82 0 -129 4 -47 8 -98 9 -115 1 -16 6 -50 10 -75 4 -25 9 -79 11 -120 1 -41 4 -75 5 -75 1 0 3 -20 5 -45 3 -43 14 -204 20 -280 1 -19 6 -75 9 -125 4 -49 9 -99 11 -110 2 -11 4 -37 4 -58 1 -21 5 -36 9 -33 4 2 4 51 0 108 -22 293 -51 654 -67 823 -10 111 -14 205 -10 225 5 19 4 39 -1 44 -5 5 -11 -10 -15 -35z"/>
 <path d="M6550 9205 c0 -8 6 -15 14 -15 13 0 61 -19 153 -61 49 -22 53 -23 53 -9 0 5 -11 12 -25 16 -14 3 -25 10 -25 16 0 5 -6 8 -12 7 -7 -2 -30 5 -52 14 -21 9 -42 17 -47 17 -5 0 -9 5 -9 11 0 6 -7 9 -15 5 -8 -3 -15 -1 -15 4 0 6 -4 10 -10 10 -5 0 -10 -7 -10 -15z"/>
 <path d="M6862 9078 c5 -15 28 -23 28 -10 0 5 -7 13 -16 16 -10 4 -14 1 -12 -6z"/>
 <path d="M6932 9048 c4 -11 58 -31 66 -24 3 4 -56 36 -65 36 -3 0 -3 -5 -1 -12z"/>
 <path d="M7012 9018 c5 -15 28 -23 28 -10 0 5 -7 13 -16 16 -10 4 -14 1 -12 -6z"/>
 <path d="M7050 9001 c0 -5 7 -12 16 -15 24 -9 28 -7 14 9 -14 17 -30 20 -30 6z"/>
 <path d="M7161 8947 c-1 -5 8 -20 19 -34 11 -14 20 -34 20 -44 0 -24 10 -49 21 -49 11 0 -1 64 -13 68 -4 2 -8 12 -8 23 0 10 -6 19 -14 19 -8 0 -17 6 -19 13 -3 6 -6 8 -6 4z"/>
 <path d="M7310 8801 c0 -5 7 -12 16 -15 24 -9 28 -7 14 9 -14 17 -30 20 -30 6z"/>
 <path d="M7370 8772 c0 -12 65 -62 79 -62 6 0 11 5 11 10 0 6 -7 10 -15 10 -8 0 -15 4 -15 8 0 4 -13 16 -30 25 -16 10 -30 14 -30 9z"/>
 <path d="M7470 8692 c0 -10 22 -32 32 -32 15 0 8 15 -12 28 -11 7 -20 9 -20 4z"/>
 <path d="M7510 8640 c0 -5 3 -10 8 -10 4 0 18 -18 32 -40 23 -37 40 -51 40 -32 0 12 -63 92 -72 92 -4 0 -8 -4 -8 -10z"/>
 <path d="M7590 8535 c0 -3 17 -40 39 -83 42 -85 71 -168 96 -279 9 -40 20 -73 24 -73 8 0 4 54 -6 80 -3 8 -7 26 -9 39 -2 13 -8 29 -13 34 -6 6 -11 19 -11 28 0 20 -55 164 -76 199 -8 14 -18 33 -21 43 -5 15 -23 25 -23 12z"/>
 <path d="M7249 8388 c4 -28 6 -29 9 -9 2 13 0 27 -5 32 -6 6 -7 -3 -4 -23z"/>
 <path d="M7370 8338 c0 -11 30 -78 35 -78 3 0 -2 17 -10 37 -15 36 -25 52 -25 41z"/>
 <path d="M7750 8080 c0 -6 29 -155 65 -333 35 -177 69 -347 74 -377 67 -370 258 -1337 296 -1495 53 -222 76 -368 74 -475 0 -49 -23 -156 -43 -202 -5 -11 -4 -18 3 -18 19 0 53 141 56 235 2 50 0 94 -3 100 -3 5 -7 28 -9 50 -3 36 -6 55 -20 130 -2 11 -4 28 -4 38 0 9 -4 17 -7 17 -4 0 -8 10 -9 23 -1 12 -6 40 -12 62 -5 22 -17 74 -26 115 -9 41 -20 91 -25 111 -5 19 -12 51 -14 70 -3 18 -12 64 -21 101 -8 37 -18 89 -21 115 -3 26 -8 51 -10 55 -7 10 -16 54 -19 88 -1 14 -4 27 -5 30 -1 3 -2 8 -2 11 0 3 -4 23 -9 45 -17 69 -34 173 -30 188 1 5 -2 12 -7 15 -11 6 -16 36 -28 139 -3 34 -10 62 -14 62 -4 0 -10 21 -14 48 -3 26 -8 65 -11 87 -4 22 -13 69 -22 105 -8 36 -17 83 -20 105 -2 22 -10 67 -18 100 -24 103 -55 273 -60 327 -3 28 -9 56 -14 62 -5 6 -12 34 -16 61 -4 28 -12 66 -18 85 -13 42 -14 44 -15 93 -1 20 -6 37 -12 37 -5 0 -10 -5 -10 -10z"/>
 <path d="M6195 7933 c9 -125 15 -231 20 -363 2 -63 6 -160 9 -215 10 -183 21 -630 27 -1088 1 -66 6 -120 12 -124 14 -9 2 655 -23 1237 -15 327 -23 483 -26 500 -1 8 -3 43 -3 78 -1 36 -5 62 -12 62 -7 0 -8 -29 -4 -87z"/>
 <path d="M7474 7940 c3 -19 9 -55 12 -80 3 -25 9 -49 14 -53 4 -5 2 28 -6 73 -7 45 -16 85 -20 89 -4 3 -4 -10 0 -29z"/>
 <path d="M7301 7903 c0 -4 4 -17 9 -28 8 -19 9 -19 9 2 1 12 -3 25 -9 28 -5 3 -10 3 -9 -2z"/>
 <path d="M7505 7745 c3 -27 10 -54 14 -58 5 -5 4 15 -1 45 -13 69 -22 78 -13 13z"/>
 <path d="M7331 7685 c0 -16 4 -37 9 -45 8 -12 10 -11 9 5 -1 11 -5 31 -9 45 -8 24 -8 24 -9 -5z"/>
 <path d="M7541 7554 c5 -26 12 -50 15 -53 9 -9 -7 83 -16 92 -4 5 -4 -13 1 -39z"/>
 <path d="M7362 7455 c0 -16 4 -43 8 -60 l8 -30 0 30 c0 17 -4 44 -8 60 l-8 30 0 -30z"/>
 <path d="M7581 7348 c-1 -16 4 -28 9 -28 12 0 12 8 0 35 -8 18 -9 17 -9 -7z"/>
 <path d="M7612 7210 c0 -14 4 -36 8 -50 l8 -25 0 25 c0 14 -4 36 -8 50 l-8 25 0 -25z"/>
 <path d="M7408 7094 c2 -19 7 -34 11 -34 9 0 1 59 -8 64 -4 3 -5 -11 -3 -30z"/>
 <path d="M7420 7034 c0 -48 28 -199 36 -192 2 3 -3 50 -11 104 -16 95 -25 129 -25 88z"/>
 <path d="M7648 7005 c2 -19 9 -38 15 -42 7 -4 8 0 4 11 -4 10 -7 29 -7 42 0 13 -4 24 -8 24 -4 0 -6 -16 -4 -35z"/>
 <path d="M7682 6850 c0 -14 4 -36 8 -50 l8 -25 0 25 c0 14 -4 36 -8 50 l-8 25 0 -25z"/>
 <path d="M7456 6785 c3 -27 11 -54 16 -60 6 -6 6 7 2 35 -10 65 -26 87 -18 25z"/>
 <path d="M7717 6670 c3 -25 10 -49 14 -55 10 -10 1 47 -12 80 -5 12 -6 2 -2 -25z"/>
 <path d="M7492 6570 c0 -8 4 -26 8 -40 6 -20 8 -21 8 -5 0 11 -3 29 -8 40 -5 12 -8 14 -8 5z"/>
 <path d="M7754 6482 c3 -19 7 -36 10 -40 9 -9 6 31 -5 53 -7 16 -8 13 -5 -13z"/>
 <path d="M7503 6489 c3 -9 8 -41 12 -72 4 -32 12 -57 17 -57 5 0 7 3 5 8 -3 4 -8 32 -12 62 -4 30 -11 60 -17 65 -8 7 -9 5 -5 -6z"/>
 <path d="M7781 6353 c-1 -17 4 -35 9 -38 11 -7 11 9 0 45 -8 24 -8 24 -9 -7z"/>
 <path d="M7530 6325 c0 -14 4 -25 9 -25 4 0 6 11 3 25 -2 14 -6 25 -8 25 -2 0 -4 -11 -4 -25z"/>
 <path d="M7541 6243 c0 -4 4 -17 9 -28 8 -19 9 -19 9 2 1 12 -3 25 -9 28 -5 3 -10 3 -9 -2z"/>
 <path d="M7831 6123 c-1 -12 4 -25 9 -28 12 -7 12 2 0 30 -8 19 -9 19 -9 -2z"/>
 <path d="M6260 6058 c-1 -40 -3 -84 -5 -98 -2 -14 -4 -31 -4 -38 -1 -7 -5 -10 -11 -7 -5 3 -10 -1 -10 -9 0 -8 -13 -23 -30 -33 -16 -9 -30 -21 -30 -26 0 -4 -4 -6 -9 -3 -5 3 -12 -1 -15 -10 -3 -8 -10 -12 -16 -9 -5 3 -10 -1 -10 -9 0 -10 -6 -13 -15 -10 -8 4 -17 -1 -21 -10 -3 -9 -11 -16 -18 -16 -6 -1 -26 -14 -45 -30 -19 -16 -38 -27 -42 -25 -4 3 -10 -2 -13 -11 -3 -8 -10 -12 -16 -9 -6 3 -13 -1 -16 -9 -3 -9 -12 -16 -19 -16 -6 0 -25 -11 -41 -25 -16 -14 -37 -28 -46 -31 -10 -3 -18 -11 -18 -18 0 -6 -9 -12 -20 -13 -11 -1 -25 -7 -32 -13 -51 -43 -74 -60 -81 -60 -4 0 -17 -9 -29 -20 -12 -10 -25 -17 -30 -14 -4 3 -8 -1 -8 -9 0 -8 -15 -22 -32 -31 -18 -8 -51 -31 -73 -51 -22 -19 -43 -35 -46 -35 -4 0 -21 -12 -37 -27 -47 -43 -75 -64 -99 -76 -13 -5 -23 -17 -23 -24 0 -8 -5 -11 -10 -8 -6 3 -13 -1 -16 -9 -3 -9 -12 -16 -19 -16 -7 0 -16 -7 -19 -16 -4 -9 -9 -14 -12 -11 -4 3 -24 -13 -45 -36 -22 -22 -39 -38 -39 -34 0 4 -12 -4 -27 -18 -16 -13 -40 -34 -54 -47 -75 -66 -157 -139 -212 -190 -34 -32 -65 -58 -69 -58 -5 0 -8 -7 -8 -16 0 -8 -4 -13 -9 -10 -11 7 -43 -28 -34 -37 3 -4 0 -7 -8 -7 -8 0 -43 -30 -78 -65 -36 -36 -68 -65 -73 -65 -4 0 -8 -7 -8 -15 0 -21 7 -19 38 13 118 116 285 271 402 372 41 36 80 70 85 76 6 6 35 30 65 55 60 48 97 79 114 94 6 6 29 24 50 40 22 17 94 72 160 123 67 51 261 187 431 301 171 115 320 219 332 232 11 13 26 42 32 64 13 48 15 185 2 185 -5 0 -10 -33 -11 -72z"/>
 <path d="M7597 5955 c3 -27 10 -61 14 -75 6 -16 6 -5 3 30 -4 30 -10 64 -15 75 -6 13 -6 1 -2 -30z"/>
 <path d="M7861 5983 c-1 -12 4 -25 9 -28 12 -7 12 2 0 30 -8 19 -9 19 -9 -2z"/>
 <path d="M7891 5839 c0 -13 4 -33 9 -44 7 -14 8 -8 3 20 -7 46 -13 59 -12 24z"/>
 <path d="M7643 5700 c4 -14 7 -37 7 -52 0 -16 5 -28 10 -28 6 0 8 10 5 23 -3 12 -6 32 -8 44 -2 12 -7 26 -12 30 -4 5 -5 -3 -2 -17z"/>
 <path d="M7650 5476 c0 -31 6 -34 13 -6 3 11 1 23 -4 26 -5 3 -9 -6 -9 -20z"/>
 <path d="M7605 5348 l-16 -33 20 25 c20 24 26 40 16 40 -2 0 -12 -15 -20 -32z"/>
 <path d="M7554 5286 c-9 -15 -14 -29 -12 -32 3 -2 13 7 22 22 10 14 15 28 13 31 -3 2 -13 -7 -23 -21z"/>
 <path d="M7426 5164 c-11 -7 -18 -16 -15 -18 2 -2 13 2 23 10 11 7 18 16 15 18 -2 2 -13 -2 -23 -10z"/>
 <path d="M8171 5129 c-17 -24 -29 -44 -27 -46 9 -9 35 12 52 42 27 50 11 52 -25 4z"/>
 <path d="M7299 5077 c-48 -37 -72 -58 -68 -62 3 -2 18 7 34 21 17 14 37 30 45 34 8 5 13 11 10 13 -3 3 -12 0 -21 -6z"/>
 <path d="M8094 5041 c-22 -20 -29 -33 -23 -42 7 -11 10 -9 15 8 4 13 10 21 14 18 4 -3 15 6 24 20 22 33 8 31 -30 -4z"/>
 <path d="M7591 5044 c-7 -8 -11 -17 -9 -20 3 -2 13 5 23 16 10 11 14 20 9 20 -5 -1 -15 -8 -23 -16z"/>
 <path d="M8025 4984 c-11 -8 -27 -19 -35 -24 -12 -7 -13 -11 -2 -21 9 -10 12 -10 12 -1 0 7 5 12 10 12 10 0 50 36 50 45 0 9 -15 5 -35 -11z"/>
 <path d="M7920 4908 c-25 -18 -81 -58 -125 -91 -43 -32 -86 -62 -95 -67 -12 -7 -13 -11 -2 -21 9 -10 12 -10 12 -1 0 7 5 12 10 12 6 0 22 12 35 26 14 15 25 24 25 20 0 -7 75 50 108 82 7 6 17 12 21 12 4 0 17 9 29 20 12 11 25 20 29 19 4 0 9 4 11 10 6 18 -11 12 -58 -21z"/>
 <path d="M6866 4755 c-11 -8 -18 -17 -15 -19 2 -3 15 4 29 14 14 11 21 20 15 19 -5 0 -19 -6 -29 -14z"/>
 <path d="M6770 4680 l-35 -31 37 23 c21 13 38 26 38 31 0 11 -3 9 -40 -23z"/>
 <path d="M7624 4693 c-11 -10 -80 -64 -154 -120 -74 -56 -144 -110 -155 -120 -11 -10 -51 -43 -90 -73 -76 -59 -301 -246 -325 -270 -8 -8 -37 -33 -63 -54 -30 -25 -44 -42 -37 -46 7 -4 30 11 55 36 23 24 48 44 54 44 6 0 11 7 11 15 0 8 7 15 15 15 8 0 15 5 15 10 0 6 6 10 14 10 8 0 17 9 21 19 4 12 12 18 21 14 8 -3 14 1 14 11 0 9 7 16 15 16 8 0 15 7 15 16 0 10 6 14 15 10 9 -3 15 0 15 9 0 8 5 15 10 15 6 0 31 20 55 44 25 24 47 41 50 38 2 -3 16 7 29 21 14 15 28 27 31 27 4 0 21 15 38 33 18 19 38 32 45 30 6 -3 12 2 12 11 0 9 7 16 15 16 8 0 15 3 15 8 0 4 17 18 37 32 21 14 47 35 59 48 12 12 26 22 33 22 6 0 11 5 11 10 0 6 7 10 15 10 8 0 15 7 15 16 0 8 5 12 10 9 6 -3 13 1 16 9 3 9 10 13 15 10 5 -3 9 0 9 5 0 6 7 11 15 11 8 0 15 5 15 10 0 6 7 10 15 10 8 0 15 7 15 15 0 20 -12 19 -36 -2z"/>
 <path d="M6701 4629 c-13 -10 -19 -19 -14 -19 13 0 49 27 43 33 -3 3 -16 -3 -29 -14z"/>
 <path d="M7026 4609 c-11 -10 -17 -21 -14 -24 2 -3 15 6 28 20 27 29 14 33 -14 4z"/>
 <path d="M4530 4556 c0 -9 -4 -16 -10 -16 -5 0 -10 -7 -10 -16 0 -8 -5 -12 -11 -9 -6 4 -13 -2 -16 -14 -3 -11 -13 -23 -22 -26 -21 -7 -56 -55 -40 -55 13 0 129 118 129 131 0 4 -4 11 -10 14 -5 3 -10 -1 -10 -9z"/>
 <path d="M6526 4494 c-11 -7 -18 -16 -15 -18 2 -2 13 2 23 10 11 7 18 16 15 18 -2 2 -13 -2 -23 -10z"/>
 <path d="M4390 4399 c0 -5 -4 -7 -10 -4 -5 3 -10 0 -10 -8 0 -8 -11 -22 -25 -31 -14 -9 -25 -23 -25 -31 0 -8 -5 -15 -12 -15 -15 0 -60 -51 -53 -59 6 -6 155 139 155 151 0 5 -4 8 -10 8 -5 0 -10 -5 -10 -11z"/>
 <path d="M4223 4233 c-7 -2 -13 -11 -13 -18 0 -7 -6 -15 -12 -18 -7 -2 -10 -8 -5 -12 4 -5 18 2 32 15 34 32 33 48 -2 33z"/>
 <path d="M4160 4154 c0 -8 -4 -13 -9 -10 -9 6 -21 -15 -21 -35 0 -15 16 -2 40 31 18 25 19 30 6 30 -9 0 -16 -7 -16 -16z"/>
 <path d="M4086 4075 c-9 -14 -30 -38 -46 -54 -17 -15 -30 -31 -30 -35 0 -4 -11 -18 -25 -32 -14 -14 -25 -30 -25 -36 0 -6 -3 -8 -6 -5 -4 3 -20 -13 -37 -36 -17 -23 -34 -43 -39 -45 -4 -2 -8 -10 -8 -17 0 -7 -6 -15 -12 -18 -7 -2 -10 -8 -5 -12 4 -5 8 -6 10 -4 12 17 205 247 217 259 30 30 41 48 32 54 -6 3 -17 -6 -26 -19z"/>
 <path d="M6758 3986 c-10 -7 -56 -48 -104 -92 -48 -43 -94 -84 -102 -90 -9 -6 -12 -16 -7 -23 5 -9 12 -5 24 13 10 14 21 23 25 19 4 -4 9 3 13 15 3 12 9 19 14 16 5 -3 24 10 41 30 17 19 35 33 40 30 4 -3 8 0 8 6 0 14 16 31 53 54 15 10 27 22 27 27 0 12 -12 11 -32 -5z"/>
 <path d="M6417 3677 c-94 -90 -115 -117 -86 -117 3 0 9 9 12 21 3 12 10 18 16 14 6 -3 11 -2 11 2 0 13 68 83 80 83 5 0 10 7 10 15 0 8 3 14 8 13 9 -3 72 52 72 64 0 18 -20 3 -123 -95z"/>
 <path d="M3830 3757 c0 -8 -14 -33 -31 -57 -17 -23 -37 -61 -46 -84 -20 -56 -20 -169 1 -201 9 -14 14 -25 10 -25 -4 0 0 -7 7 -16 7 -9 18 -25 24 -37 5 -11 16 -22 23 -25 7 -2 -5 25 -25 59 -35 58 -38 69 -37 139 0 77 24 149 64 195 20 23 32 65 19 65 -5 0 -9 -6 -9 -13z"/>
 <path d="M5596 3724 c-15 -14 -25 -28 -23 -31 3 -2 17 7 32 22 16 14 26 27 24 30 -3 2 -17 -7 -33 -21z"/>
 <path d="M5990 3685 c-7 -9 -11 -18 -8 -20 3 -3 11 1 18 10 7 9 11 18 8 20 -3 3 -11 -1 -18 -10z"/>
 <path d="M5850 3545 c-7 -9 -11 -18 -8 -20 3 -3 11 1 18 10 7 9 11 18 8 20 -3 3 -11 -1 -18 -10z"/>
 <path d="M6273 3538 c-11 -13 -66 -67 -122 -121 -56 -54 -99 -102 -96 -106 6 -10 65 45 65 60 0 6 4 8 9 5 5 -3 12 1 15 10 3 8 10 12 16 9 5 -3 10 -1 10 6 0 14 101 115 113 111 4 -1 7 5 7 13 0 8 5 15 10 15 6 0 10 5 10 10 0 17 -15 11 -37 -12z"/>
 <path d="M5810 3505 c-7 -9 -11 -18 -8 -20 3 -3 11 1 18 10 7 9 11 18 8 20 -3 3 -11 -1 -18 -10z"/>
 <path d="M5760 3455 c-7 -9 -11 -18 -8 -20 3 -3 11 1 18 10 7 9 11 18 8 20 -3 3 -11 -1 -18 -10z"/>
 <path d="M5710 3405 c-7 -9 -11 -18 -8 -20 3 -3 11 1 18 10 7 9 11 18 8 20 -3 3 -11 -1 -18 -10z"/>
 <path d="M5095 3294 l-30 -25 33 17 c17 10 32 22 32 26 0 12 -2 11 -35 -18z"/>
 <path d="M5943 3208 c-49 -51 -110 -115 -134 -143 -98 -111 -235 -239 -306 -286 -105 -68 -161 -83 -293 -76 -58 3 -113 8 -124 13 -13 5 -17 3 -14 -6 2 -7 13 -15 24 -16 109 -17 186 -23 198 -16 5 3 27 7 49 8 21 2 46 9 55 16 8 7 17 12 18 11 8 -3 44 10 44 16 0 4 16 13 35 21 19 8 35 20 35 27 0 8 4 12 9 8 5 -3 24 8 42 25 19 16 37 30 41 30 5 0 8 7 8 15 0 8 5 15 12 15 13 0 88 79 88 92 0 5 5 6 10 3 6 -3 10 -2 10 3 0 5 20 31 45 58 25 27 45 52 45 56 0 5 7 8 15 8 8 0 15 4 15 9 0 5 18 27 40 50 22 22 40 46 40 52 0 6 6 9 13 6 8 -3 18 7 26 24 7 16 16 27 21 24 4 -3 15 6 24 20 32 49 -3 23 -91 -67z"/>
 <path d="M5580 3258 c-31 -47 -33 -53 -11 -33 26 23 46 55 34 55 -5 0 -15 -10 -23 -22z"/>
 <path d="M3850 3260 c0 -5 7 -10 15 -10 8 0 15 -5 15 -12 0 -6 3 -8 6 -5 8 8 -14 37 -27 37 -5 0 -9 -4 -9 -10z"/>
 <path d="M4930 3200 c-30 -16 -49 -29 -43 -30 18 0 103 42 103 52 0 10 4 12 -60 -22z"/>
 <path d="M3900 3213 c0 -5 21 -21 48 -38 47 -29 72 -48 97 -72 8 -7 18 -13 23 -13 6 0 12 -6 15 -12 2 -8 8 -9 13 -4 5 5 -2 15 -16 25 -13 9 -56 40 -95 69 -68 51 -85 60 -85 45z"/>
 <path d="M5485 3143 l-17 -28 23 22 c12 12 20 25 17 28 -3 3 -13 -7 -23 -22z"/>
 <path d="M4800 3089 c0 -5 4 -9 9 -9 5 0 17 -3 27 -7 11 -4 15 -3 11 4 -9 14 -47 24 -47 12z"/>
 <path d="M4148 3039 c13 -11 28 -19 34 -17 15 5 -19 38 -40 38 -13 0 -11 -4 6 -21z"/>
 <path d="M4920 3050 c0 -4 11 -10 25 -12 13 -3 22 -2 20 2 -7 11 -45 20 -45 10z"/>
 <path d="M5353 3034 c-18 -8 -33 -19 -33 -24 0 -12 21 -3 55 24 24 19 20 19 -22 0z"/>
 <path d="M4200 3024 c0 -11 29 -34 43 -34 8 0 20 -7 27 -15 7 -8 20 -15 30 -15 10 0 23 -7 30 -15 14 -17 34 -20 28 -6 -3 11 -158 93 -158 85z"/>
 <path d="M5030 3019 c0 -5 10 -9 22 -9 12 0 18 3 14 7 -10 11 -36 12 -36 2z"/>
 <path d="M4380 2925 c7 -8 17 -15 22 -15 6 0 5 7 -2 15 -7 8 -17 15 -22 15 -6 0 -5 -7 2 -15z"/>
 <path d="M4464 2884 c9 -8 20 -13 25 -10 5 4 11 0 14 -6 3 -10 8 -10 17 -2 9 9 4 14 -21 23 -44 15 -53 14 -35 -5z"/>
 <path d="M4614 2824 c9 -8 20 -12 26 -9 5 3 10 1 10 -5 0 -7 6 -10 13 -7 6 2 43 -7 81 -20 69 -23 106 -29 93 -16 -7 6 -214 72 -230 73 -5 0 -1 -7 7 -16z"/>
 <path d="M4850 2762 c0 -15 12 -21 54 -26 20 -2 51 -9 69 -15 50 -16 87 -21 87 -11 0 6 -12 12 -27 16 -16 3 -55 12 -87 20 -32 8 -61 12 -64 9 -3 -3 -11 0 -19 6 -9 8 -13 8 -13 1z"/>
 </g>
<g id="layer107" fill="#ed9b57" stroke="none">
 <path d="M6210 9318 c0 -4 -3 -7 -7 -6 -11 4 -58 -30 -52 -37 3 -2 23 4 44 15 22 11 55 20 74 20 19 0 31 3 27 8 -10 9 -86 10 -86 0z"/>
 <path d="M6105 9198 c-3 -24 -3 -81 0 -128 4 -47 8 -98 9 -115 1 -16 6 -50 10 -75 4 -25 9 -79 11 -120 1 -41 4 -75 5 -75 1 0 3 -10 4 -22 2 -13 6 -26 10 -30 4 -5 5 10 3 32 -3 22 -8 76 -12 120 -3 44 -13 149 -21 233 -11 109 -13 161 -5 182 5 17 6 32 1 35 -5 3 -12 -14 -15 -37z"/>
 <path d="M6580 9201 c0 -14 59 -41 65 -30 3 4 -6 11 -20 15 -14 3 -25 10 -25 15 0 5 -4 9 -10 9 -5 0 -10 -4 -10 -9z"/>
 <path d="M6700 9150 c0 -12 48 -32 64 -27 6 3 -1 8 -16 12 -16 4 -28 11 -28 16 0 5 -4 9 -10 9 -5 0 -10 -5 -10 -10z"/>
 <path d="M6940 9051 c0 -9 51 -34 57 -27 2 2 -10 11 -26 19 -17 9 -31 12 -31 8z"/>
 <path d="M7185 8913 c4 -10 12 -31 17 -48 16 -45 29 -55 22 -15 -4 19 -11 37 -16 38 -4 2 -8 12 -8 23 0 10 -5 19 -11 19 -7 0 -8 -7 -4 -17z"/>
 <path d="M7370 8773 c0 -8 73 -63 84 -63 3 0 6 5 6 10 0 6 -7 10 -15 10 -8 0 -15 4 -15 8 0 4 -13 16 -30 25 -16 10 -30 15 -30 10z"/>
 <path d="M7471 8695 c-1 -13 19 -35 31 -35 4 0 8 5 8 10 0 6 -6 10 -14 10 -8 0 -17 6 -19 13 -3 6 -6 7 -6 2z"/>
 <path d="M6144 8603 c3 -10 9 -61 12 -113 4 -52 8 -111 9 -130 1 -19 3 -45 4 -57 0 -13 4 -23 9 -23 4 0 2 69 -5 153 -6 83 -12 160 -12 170 -1 9 -6 17 -12 17 -6 0 -8 -8 -5 -17z"/>
 <path d="M7542 8615 c10 -29 32 -65 40 -65 15 0 8 19 -18 47 -14 15 -24 24 -22 18z"/>
 <path d="M7622 8475 c6 -14 15 -25 20 -25 12 0 9 12 -6 33 -19 25 -27 21 -14 -8z"/>
 <path d="M7660 8390 c27 -71 49 -118 50 -104 0 16 -49 137 -61 149 -6 5 -1 -15 11 -45z"/>
 <path d="M7249 8388 c4 -28 6 -29 9 -9 2 13 0 27 -5 32 -6 6 -7 -3 -4 -23z"/>
 <path d="M7370 8338 c0 -11 30 -78 35 -78 3 0 -2 17 -10 37 -15 36 -25 52 -25 41z"/>
 <path d="M6174 8230 c3 -25 8 -79 12 -120 10 -119 17 -97 10 30 -4 63 -12 120 -18 125 -7 7 -8 -4 -4 -35z"/>
 <path d="M7714 8240 c3 -14 6 -28 6 -32 0 -5 5 -8 11 -8 12 0 2 39 -13 55 -7 7 -9 2 -4 -15z"/>
 <path d="M7733 8160 c4 -18 7 -39 7 -46 0 -8 3 -14 8 -14 11 0 2 79 -11 87 -7 4 -8 -5 -4 -27z"/>
 <path d="M7755 8053 c3 -21 11 -42 17 -48 8 -7 9 -4 4 8 -3 10 -6 32 -6 48 0 16 -5 29 -11 29 -8 0 -9 -13 -4 -37z"/>
 <path d="M6194 7960 c3 -36 5 -84 5 -107 1 -24 5 -43 9 -43 11 0 2 180 -9 200 -6 9 -7 -10 -5 -50z"/>
 <path d="M7774 7979 c2 -9 8 -38 11 -65 10 -67 26 -93 18 -29 -3 28 -12 64 -20 80 -7 17 -11 23 -9 14z"/>
 <path d="M7474 7940 c3 -19 9 -55 12 -80 3 -25 9 -49 14 -53 4 -5 2 28 -6 73 -7 45 -16 85 -20 89 -4 3 -4 -10 0 -29z"/>
 <path d="M7301 7903 c0 -4 4 -17 9 -28 8 -19 9 -19 9 2 1 12 -3 25 -9 28 -5 3 -10 3 -9 -2z"/>
 <path d="M7810 7800 c0 -14 7 -47 15 -75 l14 -50 -4 64 c-5 63 -25 113 -25 61z"/>
 <path d="M6206 7739 c4 -84 14 -88 14 -6 0 37 -4 67 -8 67 -5 0 -7 -28 -6 -61z"/>
 <path d="M7505 7745 c3 -27 10 -54 14 -58 5 -5 4 15 -1 45 -13 69 -22 78 -13 13z"/>
 <path d="M7331 7685 c0 -16 4 -37 9 -45 8 -12 10 -11 9 5 -1 11 -5 31 -9 45 -8 24 -8 24 -9 -5z"/>
 <path d="M7841 7653 c-1 -26 27 -164 35 -172 8 -8 -5 76 -21 142 -7 29 -13 42 -14 30z"/>
 <path d="M6215 7560 c2 -58 7 -148 9 -200 8 -138 18 -495 21 -720 3 -258 4 -260 14 -260 6 0 8 15 6 33 -2 17 -7 178 -9 356 -7 398 -26 861 -37 881 -4 8 -6 -32 -4 -90z"/>
 <path d="M7541 7554 c5 -26 12 -50 15 -53 9 -9 -7 83 -16 92 -4 5 -4 -13 1 -39z"/>
 <path d="M7362 7455 c0 -16 4 -43 8 -60 l8 -30 0 30 c0 17 -4 44 -8 60 l-8 30 0 -30z"/>
 <path d="M7880 7449 c0 -34 24 -149 32 -149 4 0 6 10 4 23 -3 12 -10 48 -16 80 -10 51 -20 74 -20 46z"/>
 <path d="M7581 7348 c-1 -16 4 -28 9 -28 12 0 12 8 0 35 -8 18 -9 17 -9 -7z"/>
 <path d="M7911 7273 c-1 -12 4 -25 9 -28 12 -7 12 2 0 30 -8 19 -9 19 -9 -2z"/>
 <path d="M7612 7210 c0 -14 4 -36 8 -50 l8 -25 0 25 c0 14 -4 36 -8 50 l-8 25 0 -25z"/>
 <path d="M7920 7217 c0 -18 42 -202 46 -206 4 -3 3 12 -1 34 -4 22 -9 54 -11 70 -10 73 -15 95 -24 100 -6 4 -10 4 -10 2z"/>
 <path d="M7408 7094 c2 -19 7 -34 11 -34 9 0 1 59 -8 64 -4 3 -5 -11 -3 -30z"/>
 <path d="M7420 7034 c0 -48 28 -199 36 -192 2 3 -3 50 -11 104 -16 95 -25 129 -25 88z"/>
 <path d="M7648 7005 c2 -19 9 -38 15 -42 7 -4 8 0 4 11 -4 10 -7 29 -7 42 0 13 -4 24 -8 24 -4 0 -6 -16 -4 -35z"/>
 <path d="M7970 6969 c0 -27 24 -139 30 -139 3 0 1 34 -4 75 -5 41 -13 75 -18 75 -4 0 -8 -5 -8 -11z"/>
 <path d="M7682 6850 c0 -14 4 -36 8 -50 l8 -25 0 25 c0 14 -4 36 -8 50 l-8 25 0 -25z"/>
 <path d="M7456 6785 c3 -27 11 -54 16 -60 6 -6 6 7 2 35 -10 65 -26 87 -18 25z"/>
 <path d="M8010 6762 c0 -33 23 -132 30 -132 4 0 3 24 -2 53 -5 28 -9 62 -10 75 -1 26 -18 30 -18 4z"/>
 <path d="M7717 6670 c3 -25 10 -49 14 -55 10 -10 1 47 -12 80 -5 12 -6 2 -2 -25z"/>
 <path d="M8040 6609 c0 -40 24 -129 33 -120 5 5 6 15 1 22 -4 7 -9 29 -11 48 -4 39 -22 79 -23 50z"/>
 <path d="M7492 6570 c0 -8 4 -26 8 -40 6 -20 8 -21 8 -5 0 11 -3 29 -8 40 -5 12 -8 14 -8 5z"/>
 <path d="M7754 6482 c3 -19 7 -36 10 -40 9 -9 6 31 -5 53 -7 16 -8 13 -5 -13z"/>
 <path d="M7503 6489 c3 -9 8 -41 12 -72 4 -32 12 -57 17 -57 5 0 7 3 5 8 -3 4 -8 32 -12 62 -4 30 -11 60 -17 65 -8 7 -9 5 -5 -6z"/>
 <path d="M8080 6405 c0 -22 95 -493 109 -540 5 -16 12 -47 16 -67 3 -21 10 -38 14 -38 5 0 5 17 0 38 -14 57 -39 172 -49 225 -5 27 -12 52 -14 56 -3 4 -7 25 -10 47 -2 21 -12 69 -21 106 -8 37 -18 89 -21 115 -6 52 -23 94 -24 58z"/>
 <path d="M7781 6353 c-1 -17 4 -35 9 -38 11 -7 11 9 0 45 -8 24 -8 24 -9 -7z"/>
 <path d="M6250 6319 c0 -29 3 -50 6 -46 9 9 11 87 2 93 -4 3 -8 -18 -8 -47z"/>
 <path d="M7530 6325 c0 -14 4 -25 9 -25 4 0 6 11 3 25 -2 14 -6 25 -8 25 -2 0 -4 -11 -4 -25z"/>
 <path d="M6253 6205 c0 -31 3 -58 8 -61 5 -3 9 22 9 55 0 34 -4 61 -9 61 -5 0 -8 -25 -8 -55z"/>
 <path d="M7541 6243 c0 -4 4 -17 9 -28 8 -19 9 -19 9 2 1 12 -3 25 -9 28 -5 3 -10 3 -9 -2z"/>
 <path d="M7831 6123 c-1 -12 4 -25 9 -28 12 -7 12 2 0 30 -8 19 -9 19 -9 -2z"/>
 <path d="M6260 6059 c-1 -41 -3 -85 -5 -99 -2 -14 -4 -31 -4 -38 -1 -7 -5 -10 -11 -7 -5 3 -10 -1 -10 -9 0 -8 -13 -23 -30 -33 -16 -9 -30 -21 -30 -26 0 -4 -4 -6 -9 -3 -5 3 -12 -1 -15 -10 -3 -8 -10 -12 -16 -9 -5 3 -10 -1 -10 -10 0 -24 116 58 135 96 18 34 29 186 16 208 -6 9 -10 -13 -11 -60z"/>
 <path d="M7597 5955 c3 -27 10 -61 14 -75 6 -16 6 -5 3 30 -4 30 -10 64 -15 75 -6 13 -6 1 -2 -30z"/>
 <path d="M7861 5983 c-1 -12 4 -25 9 -28 12 -7 12 2 0 30 -8 19 -9 19 -9 -2z"/>
 <path d="M7891 5839 c0 -13 4 -33 9 -44 7 -14 8 -8 3 20 -7 46 -13 59 -12 24z"/>
 <path d="M6084 5795 c-4 -8 -11 -15 -18 -15 -6 -1 -26 -14 -45 -30 -19 -16 -38 -27 -42 -25 -4 3 -10 -2 -13 -11 -3 -8 -10 -12 -16 -9 -6 3 -13 -1 -16 -9 -3 -9 -12 -16 -19 -16 -6 0 -25 -11 -41 -25 -16 -14 -37 -28 -46 -31 -17 -5 -26 -24 -12 -24 8 0 76 41 84 50 3 3 30 21 60 40 30 19 57 37 60 40 3 3 24 18 48 33 23 15 42 32 42 37 0 16 -20 12 -26 -5z"/>
 <path d="M8220 5733 c1 -10 7 -47 15 -83 21 -89 31 -308 17 -349 -6 -17 -7 -31 -2 -31 5 0 12 15 16 33 9 41 13 199 6 212 -3 5 -7 28 -9 50 -3 36 -6 55 -20 130 -2 11 -4 28 -4 38 0 9 -4 17 -10 17 -5 0 -9 -8 -9 -17z"/>
 <path d="M7643 5700 c4 -14 7 -37 7 -52 0 -16 5 -28 10 -28 6 0 8 10 5 23 -3 12 -6 32 -8 44 -2 12 -7 26 -12 30 -4 5 -5 -3 -2 -17z"/>
 <path d="M5780 5593 c-8 -3 -19 -10 -25 -15 -58 -48 -71 -58 -78 -58 -4 0 -17 -9 -29 -20 -12 -10 -25 -17 -30 -14 -4 3 -8 -1 -8 -9 0 -8 -15 -22 -32 -31 -18 -8 -51 -31 -73 -51 -22 -19 -43 -35 -46 -35 -4 0 -21 -12 -37 -27 -47 -43 -75 -64 -99 -76 -13 -5 -23 -17 -23 -24 0 -8 -5 -11 -10 -8 -6 3 -13 -1 -16 -9 -3 -9 -12 -16 -19 -16 -7 0 -16 -7 -19 -16 -4 -9 -9 -14 -12 -11 -4 3 -24 -13 -45 -36 -22 -22 -39 -38 -39 -34 0 4 -12 -4 -27 -18 -16 -13 -40 -34 -54 -47 -75 -66 -157 -139 -212 -190 -34 -32 -65 -58 -69 -58 -5 0 -8 -7 -8 -16 0 -8 -4 -13 -9 -10 -4 3 -16 -3 -26 -14 -14 -15 -15 -20 -4 -20 8 1 48 33 90 73 81 77 79 75 244 217 61 52 112 97 115 100 7 7 309 243 385 300 33 25 62 48 63 53 2 4 10 7 17 7 7 0 15 3 17 8 2 4 33 27 71 52 37 25 67 48 67 52 0 5 -1 8 -2 7 -2 0 -10 -3 -18 -6z"/>
 <path d="M7650 5476 c0 -31 6 -34 13 -6 3 11 1 23 -4 26 -5 3 -9 -6 -9 -20z"/>
 <path d="M7605 5348 l-16 -33 20 25 c20 24 26 40 16 40 -2 0 -12 -15 -20 -32z"/>
 <path d="M7554 5286 c-9 -15 -14 -29 -12 -32 3 -2 13 7 22 22 10 14 15 28 13 31 -3 2 -13 -7 -23 -21z"/>
 <path d="M8224 5214 c-4 -10 -9 -22 -11 -26 -2 -5 0 -8 6 -8 11 0 26 39 17 47 -3 3 -9 -3 -12 -13z"/>
 <path d="M7426 5164 c-11 -7 -18 -16 -15 -18 2 -2 13 2 23 10 11 7 18 16 15 18 -2 2 -13 -2 -23 -10z"/>
 <path d="M8171 5125 c-33 -46 -28 -62 8 -23 21 22 36 56 29 64 -3 2 -19 -16 -37 -41z"/>
 <path d="M7299 5077 c-48 -37 -72 -58 -68 -62 3 -2 18 7 34 21 17 14 37 30 45 34 8 5 13 11 10 13 -3 3 -12 0 -21 -6z"/>
 <path d="M7591 5044 c-7 -8 -11 -17 -9 -20 3 -2 13 5 23 16 10 11 14 20 9 20 -5 -1 -15 -8 -23 -16z"/>
 <path d="M8101 5046 c-8 -9 -8 -16 -2 -20 6 -4 15 3 21 14 12 23 -2 27 -19 6z"/>
 <path d="M8025 4980 c-25 -27 -12 -37 14 -11 12 12 21 23 21 26 0 11 -18 4 -35 -15z"/>
 <path d="M7924 4907 c-39 -28 -112 -81 -162 -117 -50 -36 -91 -72 -91 -80 0 -12 2 -12 13 2 7 10 16 15 19 11 4 -3 7 -1 7 5 0 7 5 12 10 12 6 0 22 12 35 26 14 15 25 24 25 20 0 -6 85 57 100 75 3 3 20 14 38 24 17 11 32 23 32 28 0 4 5 5 10 2 6 -3 13 1 16 9 3 9 10 13 15 10 5 -3 9 2 9 10 0 9 -1 16 -2 16 -2 0 -35 -24 -74 -53z"/>
 <path d="M6866 4755 c-11 -8 -18 -17 -15 -19 2 -3 15 4 29 14 14 11 21 20 15 19 -5 0 -19 -6 -29 -14z"/>
 <path d="M4650 4664 c-30 -31 -63 -62 -74 -69 -10 -8 -17 -18 -15 -24 4 -9 159 133 159 145 0 13 -21 -2 -70 -52z"/>
 <path d="M6770 4680 l-35 -31 37 23 c21 13 38 26 38 31 0 11 -3 9 -40 -23z"/>
 <path d="M7539 4624 c-190 -144 -240 -186 -233 -193 4 -3 9 -1 11 6 2 7 11 9 19 6 8 -3 14 1 14 11 0 9 7 16 15 16 8 0 15 3 15 8 0 4 17 18 37 32 21 14 47 35 59 48 12 12 26 22 33 22 6 0 11 5 11 10 0 6 7 10 15 10 8 0 15 7 15 16 0 8 5 12 10 9 6 -3 13 1 16 9 3 9 10 13 15 10 5 -3 9 0 9 5 0 6 7 11 15 11 8 0 15 5 15 10 0 6 7 10 15 10 8 0 15 7 15 15 0 8 -2 15 -4 15 -2 0 -55 -39 -117 -86z"/>
 <path d="M6701 4629 c-13 -10 -19 -19 -14 -19 13 0 49 27 43 33 -3 3 -16 -3 -29 -14z"/>
 <path d="M7026 4609 c-11 -10 -17 -21 -14 -24 2 -3 15 6 28 20 27 29 14 33 -14 4z"/>
 <path d="M4530 4558 c0 -9 -6 -18 -12 -21 -7 -2 -10 -8 -5 -13 4 -4 15 0 24 9 13 13 15 20 5 29 -9 9 -12 8 -12 -4z"/>
 <path d="M4484 4505 c-9 -22 1 -29 15 -11 8 10 9 16 1 21 -5 3 -13 -1 -16 -10z"/>
 <path d="M6526 4494 c-11 -7 -18 -16 -15 -18 2 -2 13 2 23 10 11 7 18 16 15 18 -2 2 -13 -2 -23 -10z"/>
 <path d="M4432 4449 c-19 -31 -9 -33 18 -4 16 17 19 25 9 25 -8 0 -20 -9 -27 -21z"/>
 <path d="M7254 4402 c-10 -9 -32 -27 -47 -39 -17 -13 -24 -24 -17 -28 6 -4 22 5 35 19 13 14 27 26 30 26 8 0 35 27 35 34 0 11 -16 6 -36 -12z"/>
 <path d="M4390 4399 c0 -5 -4 -7 -10 -4 -5 3 -10 0 -10 -7 0 -7 -12 -22 -27 -34 -16 -12 -25 -25 -21 -29 4 -4 25 12 47 34 43 44 47 51 31 51 -5 0 -10 -5 -10 -11z"/>
 <path d="M7108 4283 c-37 -31 -53 -50 -45 -55 7 -4 13 -1 15 7 2 8 7 15 12 15 5 0 28 18 52 40 60 55 35 50 -34 -7z"/>
 <path d="M4277 4290 c-26 -31 -20 -46 8 -20 25 23 32 40 17 40 -4 0 -15 -9 -25 -20z"/>
 <path d="M4223 4233 c-7 -2 -13 -11 -13 -18 0 -7 -6 -15 -12 -18 -7 -2 -10 -8 -6 -12 7 -7 19 3 47 38 13 17 8 20 -16 10z"/>
 <path d="M6983 4178 c-51 -39 -65 -58 -43 -58 6 0 10 5 10 10 0 6 6 10 14 10 8 0 17 9 21 19 4 12 12 18 21 14 8 -3 14 1 14 11 0 9 7 16 15 16 8 0 15 5 15 10 0 17 -13 11 -67 -32z"/>
 <path d="M4160 4154 c0 -8 -4 -13 -9 -10 -5 3 -12 -1 -15 -10 -11 -28 -1 -25 29 6 23 24 25 30 12 30 -9 0 -17 -7 -17 -16z"/>
 <path d="M6853 4066 c-35 -30 -57 -56 -51 -58 6 -2 30 15 53 39 24 24 48 43 54 43 6 0 11 7 11 15 0 8 -1 15 -3 15 -1 0 -30 -24 -64 -54z"/>
 <path d="M4086 4075 c-9 -14 -30 -38 -46 -54 -17 -15 -30 -31 -30 -35 0 -4 -11 -18 -25 -32 -14 -14 -25 -29 -25 -35 0 -6 -4 -8 -8 -5 -5 3 -17 -9 -27 -27 -10 -18 -27 -40 -38 -50 -11 -9 -18 -20 -14 -23 6 -6 58 48 86 90 8 12 48 58 88 103 41 45 70 84 65 87 -6 3 -17 -6 -26 -19z"/>
 <path d="M6693 3925 c-45 -41 -78 -77 -72 -80 5 -4 24 9 41 29 17 19 35 33 40 30 4 -3 8 0 8 6 0 14 16 31 53 54 25 17 36 37 20 36 -5 -1 -45 -34 -90 -75z"/>
 <path d="M6585 3831 c-6 -11 9 -23 19 -14 9 9 7 23 -3 23 -6 0 -12 -4 -16 -9z"/>
 <path d="M6512 3762 c-29 -27 -49 -51 -45 -55 3 -4 24 10 44 32 21 21 39 37 41 35 2 -2 9 6 16 16 20 33 0 22 -56 -28z"/>
 <path d="M5596 3724 c-15 -14 -25 -28 -23 -31 3 -2 17 7 32 22 16 14 26 27 24 30 -3 2 -17 -7 -33 -21z"/>
 <path d="M3812 3720 c-7 -11 -9 -20 -4 -20 4 0 13 9 20 20 7 11 9 20 4 20 -4 0 -13 -9 -20 -20z"/>
 <path d="M5990 3685 c-7 -9 -11 -18 -8 -20 3 -3 11 1 18 10 7 9 11 18 8 20 -3 3 -11 -1 -18 -10z"/>
 <path d="M6378 3636 c-37 -34 -65 -66 -61 -69 12 -12 21 -7 26 14 3 12 10 18 16 14 6 -3 11 -2 11 2 0 13 68 83 80 83 5 0 10 5 10 10 0 19 -16 9 -82 -54z"/>
 <path d="M3781 3677 c-14 -17 -41 -94 -41 -116 0 -9 12 11 26 44 14 33 28 66 31 73 7 16 -2 15 -16 -1z"/>
 <path d="M5850 3545 c-7 -9 -11 -18 -8 -20 3 -3 11 1 18 10 7 9 11 18 8 20 -3 3 -11 -1 -18 -10z"/>
 <path d="M6280 3545 c-10 -12 -10 -19 -2 -27 9 -9 12 -8 12 5 0 9 5 17 10 17 6 0 10 5 10 10 0 15 -16 12 -30 -5z"/>
 <path d="M3738 3534 c-10 -15 7 -113 22 -127 10 -10 11 -7 5 13 -4 13 -11 47 -14 75 -3 27 -9 45 -13 39z"/>
 <path d="M5810 3505 c-7 -9 -11 -18 -8 -20 3 -3 11 1 18 10 7 9 11 18 8 20 -3 3 -11 -1 -18 -10z"/>
 <path d="M6146 3411 c-54 -54 -94 -101 -89 -104 6 -4 16 5 23 18 7 14 19 25 27 25 7 0 13 7 13 16 0 8 4 13 9 10 5 -3 12 1 15 10 3 8 10 12 16 9 5 -3 10 0 10 7 0 8 20 31 45 53 43 38 54 55 37 55 -4 0 -52 -44 -106 -99z"/>
 <path d="M5760 3455 c-7 -9 -11 -18 -8 -20 3 -3 11 1 18 10 7 9 11 18 8 20 -3 3 -11 -1 -18 -10z"/>
 <path d="M5710 3405 c-7 -9 -11 -18 -8 -20 3 -3 11 1 18 10 7 9 11 18 8 20 -3 3 -11 -1 -18 -10z"/>
 <path d="M5095 3294 l-30 -25 33 17 c17 10 32 22 32 26 0 12 -2 11 -35 -18z"/>
 <path d="M6016 3281 c-10 -11 -13 -22 -8 -25 6 -3 17 5 26 19 19 29 7 33 -18 6z"/>
 <path d="M5580 3258 c-31 -47 -33 -53 -11 -33 26 23 46 55 34 55 -5 0 -15 -10 -23 -22z"/>
 <path d="M5961 3226 c-9 -10 -8 -15 3 -19 8 -3 16 2 19 14 6 22 -6 25 -22 5z"/>
 <path d="M4930 3200 c-30 -16 -49 -29 -43 -30 18 0 103 42 103 52 0 10 4 12 -60 -22z"/>
 <path d="M3900 3212 c0 -4 15 -16 33 -26 l32 -19 -24 26 c-24 27 -41 34 -41 19z"/>
 <path d="M5915 3180 c-11 -13 -14 -20 -6 -20 13 0 41 24 41 34 0 12 -18 5 -35 -14z"/>
 <path d="M5485 3143 l-17 -28 23 22 c12 12 20 25 17 28 -3 3 -13 -7 -23 -22z"/>
 <path d="M5861 3118 c-17 -17 -31 -37 -30 -42 0 -6 3 -5 6 2 2 6 11 12 19 12 8 0 14 4 14 8 0 5 9 18 20 30 33 35 6 26 -29 -10z"/>
 <path d="M4030 3124 c0 -9 28 -34 38 -34 6 0 13 -6 15 -12 4 -9 6 -8 6 2 1 8 -13 23 -29 32 -17 9 -30 15 -30 12z"/>
 <path d="M4800 3089 c0 -5 4 -9 9 -9 5 0 17 -3 27 -7 11 -4 15 -3 11 4 -9 14 -47 24 -47 12z"/>
 <path d="M5772 3021 c-23 -28 -38 -53 -32 -56 5 -3 10 -2 10 3 0 5 16 26 35 47 20 20 35 41 33 46 -2 5 -22 -13 -46 -40z"/>
 <path d="M4149 3039 c12 -12 25 -18 29 -14 4 4 -2 13 -12 21 -30 22 -43 17 -17 -7z"/>
 <path d="M4920 3050 c0 -4 11 -10 25 -12 13 -3 22 -2 20 2 -7 11 -45 20 -45 10z"/>
 <path d="M5353 3034 c-18 -8 -33 -19 -33 -24 0 -12 21 -3 55 24 24 19 20 19 -22 0z"/>
 <path d="M5030 3019 c0 -5 10 -9 22 -9 12 0 18 3 14 7 -10 11 -36 12 -36 2z"/>
 <path d="M4220 3000 c0 -5 10 -10 23 -10 18 0 19 2 7 10 -19 13 -30 13 -30 0z"/>
 <path d="M4280 2970 c0 -5 10 -10 23 -10 18 0 19 2 7 10 -19 13 -30 13 -30 0z"/>
 <path d="M5641 2889 c-165 -156 -268 -200 -451 -193 -79 3 -89 -3 -19 -11 24 -3 60 -7 79 -9 19 -2 39 -1 44 2 5 3 27 7 49 8 21 2 46 9 55 16 8 7 17 12 18 11 8 -3 44 10 44 16 0 4 16 13 35 21 19 8 35 20 35 27 0 8 4 12 9 8 5 -3 24 8 42 25 19 16 37 30 41 30 5 0 8 7 8 15 0 8 5 15 11 15 14 0 79 67 79 81 0 13 2 14 -79 -62z"/>
 <path d="M4465 2884 c9 -9 18 -14 21 -11 9 9 -6 27 -22 27 -13 0 -13 -2 1 -16z"/>
 <path d="M4614 2824 c9 -8 20 -12 26 -9 5 3 10 2 10 -4 0 -5 9 -9 20 -8 31 2 24 13 -19 25 -50 16 -55 15 -37 -4z"/>
 <path d="M4705 2801 c13 -11 104 -41 124 -40 20 0 -7 12 -80 33 -29 9 -49 12 -44 7z"/>
 <path d="M4900 2741 c0 -6 8 -9 18 -9 9 0 31 -2 47 -6 l30 -6 -30 14 c-35 17 -65 20 -65 7z"/>
 </g>
<g id="layer108" fill="#e1e1e1" stroke="none">
 <path d="M6210 9318 c0 -4 -3 -7 -7 -6 -11 4 -58 -30 -52 -37 3 -2 23 4 44 15 22 11 55 20 74 20 19 0 31 3 27 8 -10 9 -86 10 -86 0z"/>
 <path d="M6105 9198 c-3 -24 -3 -81 0 -128 4 -47 8 -98 9 -115 1 -16 6 -50 10 -75 4 -25 9 -79 11 -120 1 -41 4 -75 5 -75 1 0 3 -10 4 -22 2 -13 6 -26 10 -30 4 -5 5 10 3 32 -3 22 -8 76 -12 120 -3 44 -13 149 -21 233 -11 109 -13 161 -5 182 5 17 6 32 1 35 -5 3 -12 -14 -15 -37z"/>
 <path d="M6580 9201 c0 -14 59 -41 65 -30 3 4 -6 11 -20 15 -14 3 -25 10 -25 15 0 5 -4 9 -10 9 -5 0 -10 -4 -10 -9z"/>
 <path d="M6700 9150 c0 -12 48 -32 64 -27 6 3 -1 8 -16 12 -16 4 -28 11 -28 16 0 5 -4 9 -10 9 -5 0 -10 -5 -10 -10z"/>
 <path d="M6940 9051 c0 -9 51 -34 57 -27 2 2 -10 11 -26 19 -17 9 -31 12 -31 8z"/>
 <path d="M7185 8913 c4 -10 12 -31 17 -48 16 -45 29 -55 22 -15 -4 19 -11 37 -16 38 -4 2 -8 12 -8 23 0 10 -5 19 -11 19 -7 0 -8 -7 -4 -17z"/>
 <path d="M7370 8773 c0 -8 73 -63 84 -63 3 0 6 5 6 10 0 6 -7 10 -15 10 -8 0 -15 4 -15 8 0 4 -13 16 -30 25 -16 10 -30 15 -30 10z"/>
 <path d="M7471 8695 c-1 -13 19 -35 31 -35 4 0 8 5 8 10 0 6 -6 10 -14 10 -8 0 -17 6 -19 13 -3 6 -6 7 -6 2z"/>
 <path d="M6144 8603 c3 -10 9 -61 12 -113 4 -52 8 -111 9 -130 1 -19 3 -45 4 -57 0 -13 4 -23 9 -23 4 0 2 69 -5 153 -6 83 -12 160 -12 170 -1 9 -6 17 -12 17 -6 0 -8 -8 -5 -17z"/>
 <path d="M7542 8615 c10 -29 32 -65 40 -65 15 0 8 19 -18 47 -14 15 -24 24 -22 18z"/>
 <path d="M7622 8475 c6 -14 15 -25 20 -25 12 0 9 12 -6 33 -19 25 -27 21 -14 -8z"/>
 <path d="M7660 8390 c27 -71 49 -118 50 -104 0 16 -49 137 -61 149 -6 5 -1 -15 11 -45z"/>
 <path d="M6174 8230 c3 -25 8 -79 12 -120 10 -119 17 -97 10 30 -4 63 -12 120 -18 125 -7 7 -8 -4 -4 -35z"/>
 <path d="M7714 8240 c3 -14 6 -28 6 -32 0 -5 5 -8 11 -8 12 0 2 39 -13 55 -7 7 -9 2 -4 -15z"/>
 <path d="M7733 8160 c4 -18 7 -39 7 -46 0 -8 3 -14 8 -14 11 0 2 79 -11 87 -7 4 -8 -5 -4 -27z"/>
 <path d="M7755 8053 c3 -21 11 -42 17 -48 8 -7 9 -4 4 8 -3 10 -6 32 -6 48 0 16 -5 29 -11 29 -8 0 -9 -13 -4 -37z"/>
 <path d="M6194 7960 c3 -36 5 -84 5 -107 1 -24 5 -43 9 -43 11 0 2 180 -9 200 -6 9 -7 -10 -5 -50z"/>
 <path d="M7774 7979 c2 -9 8 -38 11 -65 10 -67 26 -93 18 -29 -3 28 -12 64 -20 80 -7 17 -11 23 -9 14z"/>
 <path d="M7810 7800 c0 -14 7 -47 15 -75 l14 -50 -4 64 c-5 63 -25 113 -25 61z"/>
 <path d="M6206 7739 c4 -84 14 -88 14 -6 0 37 -4 67 -8 67 -5 0 -7 -28 -6 -61z"/>
 <path d="M7841 7653 c-1 -26 27 -164 35 -172 8 -8 -5 76 -21 142 -7 29 -13 42 -14 30z"/>
 <path d="M6215 7560 c2 -58 7 -148 9 -200 8 -138 18 -495 21 -720 3 -258 4 -260 14 -260 6 0 8 15 6 33 -2 17 -7 178 -9 356 -7 398 -26 861 -37 881 -4 8 -6 -32 -4 -90z"/>
 <path d="M7880 7449 c0 -34 24 -149 32 -149 4 0 6 10 4 23 -3 12 -10 48 -16 80 -10 51 -20 74 -20 46z"/>
 <path d="M7911 7273 c-1 -12 4 -25 9 -28 12 -7 12 2 0 30 -8 19 -9 19 -9 -2z"/>
 <path d="M7920 7217 c0 -18 42 -202 46 -206 4 -3 3 12 -1 34 -4 22 -9 54 -11 70 -10 73 -15 95 -24 100 -6 4 -10 4 -10 2z"/>
 <path d="M7970 6969 c0 -27 24 -139 30 -139 3 0 1 34 -4 75 -5 41 -13 75 -18 75 -4 0 -8 -5 -8 -11z"/>
 <path d="M8010 6762 c0 -33 23 -132 30 -132 4 0 3 24 -2 53 -5 28 -9 62 -10 75 -1 26 -18 30 -18 4z"/>
 <path d="M8040 6609 c0 -40 24 -129 33 -120 5 5 6 15 1 22 -4 7 -9 29 -11 48 -4 39 -22 79 -23 50z"/>
 <path d="M8080 6405 c0 -22 95 -493 109 -540 5 -16 12 -47 16 -67 3 -21 10 -38 14 -38 5 0 5 17 0 38 -14 57 -39 172 -49 225 -5 27 -12 52 -14 56 -3 4 -7 25 -10 47 -2 21 -12 69 -21 106 -8 37 -18 89 -21 115 -6 52 -23 94 -24 58z"/>
 <path d="M6250 6319 c0 -29 3 -50 6 -46 9 9 11 87 2 93 -4 3 -8 -18 -8 -47z"/>
 <path d="M6253 6205 c0 -31 3 -58 8 -61 5 -3 9 22 9 55 0 34 -4 61 -9 61 -5 0 -8 -25 -8 -55z"/>
 <path d="M6260 6059 c-1 -41 -3 -85 -5 -99 -2 -14 -4 -31 -4 -38 -1 -7 -5 -10 -11 -7 -5 3 -10 -1 -10 -9 0 -8 -13 -23 -30 -33 -16 -9 -30 -21 -30 -26 0 -4 -4 -6 -9 -3 -5 3 -12 -1 -15 -10 -3 -8 -10 -12 -16 -9 -5 3 -10 -1 -10 -10 0 -24 116 58 135 96 18 34 29 186 16 208 -6 9 -10 -13 -11 -60z"/>
 <path d="M6084 5795 c-4 -8 -11 -15 -18 -15 -6 -1 -26 -14 -45 -30 -19 -16 -38 -27 -42 -25 -4 3 -10 -2 -13 -11 -3 -8 -10 -12 -16 -9 -6 3 -13 -1 -16 -9 -3 -9 -12 -16 -19 -16 -6 0 -25 -11 -41 -25 -16 -14 -37 -28 -46 -31 -17 -5 -26 -24 -12 -24 8 0 76 41 84 50 3 3 30 21 60 40 30 19 57 37 60 40 3 3 24 18 48 33 23 15 42 32 42 37 0 16 -20 12 -26 -5z"/>
 <path d="M8220 5733 c1 -10 7 -47 15 -83 21 -89 31 -308 17 -349 -6 -17 -7 -31 -2 -31 5 0 12 15 16 33 9 41 13 199 6 212 -3 5 -7 28 -9 50 -3 36 -6 55 -20 130 -2 11 -4 28 -4 38 0 9 -4 17 -10 17 -5 0 -9 -8 -9 -17z"/>
 <path d="M5780 5593 c-8 -3 -19 -10 -25 -15 -58 -48 -71 -58 -78 -58 -4 0 -17 -9 -29 -20 -12 -10 -25 -17 -30 -14 -4 3 -8 -1 -8 -9 0 -8 -15 -22 -32 -31 -18 -8 -51 -31 -73 -51 -22 -19 -43 -35 -46 -35 -4 0 -21 -12 -37 -27 -47 -43 -75 -64 -99 -76 -13 -5 -23 -17 -23 -24 0 -8 -5 -11 -10 -8 -6 3 -13 -1 -16 -9 -3 -9 -12 -16 -19 -16 -7 0 -16 -7 -19 -16 -4 -9 -9 -14 -12 -11 -4 3 -24 -13 -45 -36 -22 -22 -39 -38 -39 -34 0 4 -12 -4 -27 -18 -16 -13 -40 -34 -54 -47 -75 -66 -157 -139 -212 -190 -34 -32 -65 -58 -69 -58 -5 0 -8 -7 -8 -16 0 -8 -4 -13 -9 -10 -4 3 -16 -3 -26 -14 -14 -15 -15 -20 -4 -20 8 1 48 33 90 73 81 77 79 75 244 217 61 52 112 97 115 100 7 7 309 243 385 300 33 25 62 48 63 53 2 4 10 7 17 7 7 0 15 3 17 8 2 4 33 27 71 52 37 25 67 48 67 52 0 5 -1 8 -2 7 -2 0 -10 -3 -18 -6z"/>
 <path d="M8224 5214 c-4 -10 -9 -22 -11 -26 -2 -5 0 -8 6 -8 11 0 26 39 17 47 -3 3 -9 -3 -12 -13z"/>
 <path d="M8171 5125 c-33 -46 -28 -62 8 -23 21 22 36 56 29 64 -3 2 -19 -16 -37 -41z"/>
 <path d="M8101 5046 c-8 -9 -8 -16 -2 -20 6 -4 15 3 21 14 12 23 -2 27 -19 6z"/>
 <path d="M8025 4980 c-25 -27 -12 -37 14 -11 12 12 21 23 21 26 0 11 -18 4 -35 -15z"/>
 <path d="M7924 4907 c-39 -28 -112 -81 -162 -117 -50 -36 -91 -72 -91 -80 0 -12 2 -12 13 2 7 10 16 15 19 11 4 -3 7 -1 7 5 0 7 5 12 10 12 6 0 22 12 35 26 14 15 25 24 25 20 0 -6 85 57 100 75 3 3 20 14 38 24 17 11 32 23 32 28 0 4 5 5 10 2 6 -3 13 1 16 9 3 9 10 13 15 10 5 -3 9 2 9 10 0 9 -1 16 -2 16 -2 0 -35 -24 -74 -53z"/>
 <path d="M4650 4664 c-30 -31 -63 -62 -74 -69 -10 -8 -17 -18 -15 -24 4 -9 159 133 159 145 0 13 -21 -2 -70 -52z"/>
 <path d="M7539 4624 c-190 -144 -240 -186 -233 -193 4 -3 9 -1 11 6 2 7 11 9 19 6 8 -3 14 1 14 11 0 9 7 16 15 16 8 0 15 3 15 8 0 4 17 18 37 32 21 14 47 35 59 48 12 12 26 22 33 22 6 0 11 5 11 10 0 6 7 10 15 10 8 0 15 7 15 16 0 8 5 12 10 9 6 -3 13 1 16 9 3 9 10 13 15 10 5 -3 9 0 9 5 0 6 7 11 15 11 8 0 15 5 15 10 0 6 7 10 15 10 8 0 15 7 15 15 0 8 -2 15 -4 15 -2 0 -55 -39 -117 -86z"/>
 <path d="M4530 4558 c0 -9 -6 -18 -12 -21 -7 -2 -10 -8 -5 -13 4 -4 15 0 24 9 13 13 15 20 5 29 -9 9 -12 8 -12 -4z"/>
 <path d="M4484 4505 c-9 -22 1 -29 15 -11 8 10 9 16 1 21 -5 3 -13 -1 -16 -10z"/>
 <path d="M4432 4449 c-19 -31 -9 -33 18 -4 16 17 19 25 9 25 -8 0 -20 -9 -27 -21z"/>
 <path d="M7254 4402 c-10 -9 -32 -27 -47 -39 -17 -13 -24 -24 -17 -28 6 -4 22 5 35 19 13 14 27 26 30 26 8 0 35 27 35 34 0 11 -16 6 -36 -12z"/>
 <path d="M4390 4399 c0 -5 -4 -7 -10 -4 -5 3 -10 0 -10 -7 0 -7 -12 -22 -27 -34 -16 -12 -25 -25 -21 -29 4 -4 25 12 47 34 43 44 47 51 31 51 -5 0 -10 -5 -10 -11z"/>
 <path d="M7108 4283 c-37 -31 -53 -50 -45 -55 7 -4 13 -1 15 7 2 8 7 15 12 15 5 0 28 18 52 40 60 55 35 50 -34 -7z"/>
 <path d="M4277 4290 c-26 -31 -20 -46 8 -20 25 23 32 40 17 40 -4 0 -15 -9 -25 -20z"/>
 <path d="M4223 4233 c-7 -2 -13 -11 -13 -18 0 -7 -6 -15 -12 -18 -7 -2 -10 -8 -6 -12 7 -7 19 3 47 38 13 17 8 20 -16 10z"/>
 <path d="M6983 4178 c-51 -39 -65 -58 -43 -58 6 0 10 5 10 10 0 6 6 10 14 10 8 0 17 9 21 19 4 12 12 18 21 14 8 -3 14 1 14 11 0 9 7 16 15 16 8 0 15 5 15 10 0 17 -13 11 -67 -32z"/>
 <path d="M4160 4154 c0 -8 -4 -13 -9 -10 -5 3 -12 -1 -15 -10 -11 -28 -1 -25 29 6 23 24 25 30 12 30 -9 0 -17 -7 -17 -16z"/>
 <path d="M6853 4066 c-35 -30 -57 -56 -51 -58 6 -2 30 15 53 39 24 24 48 43 54 43 6 0 11 7 11 15 0 8 -1 15 -3 15 -1 0 -30 -24 -64 -54z"/>
 <path d="M4086 4075 c-9 -14 -30 -38 -46 -54 -17 -15 -30 -31 -30 -35 0 -4 -11 -18 -25 -32 -14 -14 -25 -29 -25 -35 0 -6 -4 -8 -8 -5 -5 3 -17 -9 -27 -27 -10 -18 -27 -40 -38 -50 -11 -9 -18 -20 -14 -23 6 -6 58 48 86 90 8 12 48 58 88 103 41 45 70 84 65 87 -6 3 -17 -6 -26 -19z"/>
 <path d="M6693 3925 c-45 -41 -78 -77 -72 -80 5 -4 24 9 41 29 17 19 35 33 40 30 4 -3 8 0 8 6 0 14 16 31 53 54 25 17 36 37 20 36 -5 -1 -45 -34 -90 -75z"/>
 <path d="M6585 3831 c-6 -11 9 -23 19 -14 9 9 7 23 -3 23 -6 0 -12 -4 -16 -9z"/>
 <path d="M6512 3762 c-29 -27 -49 -51 -45 -55 3 -4 24 10 44 32 21 21 39 37 41 35 2 -2 9 6 16 16 20 33 0 22 -56 -28z"/>
 <path d="M3812 3720 c-7 -11 -9 -20 -4 -20 4 0 13 9 20 20 7 11 9 20 4 20 -4 0 -13 -9 -20 -20z"/>
 <path d="M6378 3636 c-37 -34 -65 -66 -61 -69 12 -12 21 -7 26 14 3 12 10 18 16 14 6 -3 11 -2 11 2 0 13 68 83 80 83 5 0 10 5 10 10 0 19 -16 9 -82 -54z"/>
 <path d="M3781 3677 c-14 -17 -41 -94 -41 -116 0 -9 12 11 26 44 14 33 28 66 31 73 7 16 -2 15 -16 -1z"/>
 <path d="M6280 3545 c-10 -12 -10 -19 -2 -27 9 -9 12 -8 12 5 0 9 5 17 10 17 6 0 10 5 10 10 0 15 -16 12 -30 -5z"/>
 <path d="M3738 3534 c-10 -15 7 -113 22 -127 10 -10 11 -7 5 13 -4 13 -11 47 -14 75 -3 27 -9 45 -13 39z"/>
 <path d="M6146 3411 c-54 -54 -94 -101 -89 -104 6 -4 16 5 23 18 7 14 19 25 27 25 7 0 13 7 13 16 0 8 4 13 9 10 5 -3 12 1 15 10 3 8 10 12 16 9 5 -3 10 0 10 7 0 8 20 31 45 53 43 38 54 55 37 55 -4 0 -52 -44 -106 -99z"/>
 <path d="M6016 3281 c-10 -11 -13 -22 -8 -25 6 -3 17 5 26 19 19 29 7 33 -18 6z"/>
 <path d="M5961 3226 c-9 -10 -8 -15 3 -19 8 -3 16 2 19 14 6 22 -6 25 -22 5z"/>
 <path d="M3900 3212 c0 -4 15 -16 33 -26 l32 -19 -24 26 c-24 27 -41 34 -41 19z"/>
 <path d="M5915 3180 c-11 -13 -14 -20 -6 -20 13 0 41 24 41 34 0 12 -18 5 -35 -14z"/>
 <path d="M5861 3118 c-17 -17 -31 -37 -30 -42 0 -6 3 -5 6 2 2 6 11 12 19 12 8 0 14 4 14 8 0 5 9 18 20 30 33 35 6 26 -29 -10z"/>
 <path d="M4030 3124 c0 -9 28 -34 38 -34 6 0 13 -6 15 -12 4 -9 6 -8 6 2 1 8 -13 23 -29 32 -17 9 -30 15 -30 12z"/>
 <path d="M5772 3021 c-23 -28 -38 -53 -32 -56 5 -3 10 -2 10 3 0 5 16 26 35 47 20 20 35 41 33 46 -2 5 -22 -13 -46 -40z"/>
 <path d="M4149 3039 c12 -12 25 -18 29 -14 4 4 -2 13 -12 21 -30 22 -43 17 -17 -7z"/>
 <path d="M4220 3000 c0 -5 10 -10 23 -10 18 0 19 2 7 10 -19 13 -30 13 -30 0z"/>
 <path d="M4280 2970 c0 -5 10 -10 23 -10 18 0 19 2 7 10 -19 13 -30 13 -30 0z"/>
 <path d="M5641 2889 c-165 -156 -268 -200 -451 -193 -79 3 -89 -3 -19 -11 24 -3 60 -7 79 -9 19 -2 39 -1 44 2 5 3 27 7 49 8 21 2 46 9 55 16 8 7 17 12 18 11 8 -3 44 10 44 16 0 4 16 13 35 21 19 8 35 20 35 27 0 8 4 12 9 8 5 -3 24 8 42 25 19 16 37 30 41 30 5 0 8 7 8 15 0 8 5 15 11 15 14 0 79 67 79 81 0 13 2 14 -79 -62z"/>
 <path d="M4465 2884 c9 -9 18 -14 21 -11 9 9 -6 27 -22 27 -13 0 -13 -2 1 -16z"/>
 <path d="M4614 2824 c9 -8 20 -12 26 -9 5 3 10 2 10 -4 0 -5 9 -9 20 -8 31 2 24 13 -19 25 -50 16 -55 15 -37 -4z"/>
 <path d="M4705 2801 c13 -11 104 -41 124 -40 20 0 -7 12 -80 33 -29 9 -49 12 -44 7z"/>
 <path d="M4900 2741 c0 -6 8 -9 18 -9 9 0 31 -2 47 -6 l30 -6 -30 14 c-35 17 -65 20 -65 7z"/>
 </g>

</svg>